<?xml version="1.0" encoding="UTF-8" standalone="no"?>
<!-- Created with Inkscape (http://www.inkscape.org/) -->

<svg
   xmlns:dc="http://purl.org/dc/elements/1.1/"
   xmlns:cc="http://creativecommons.org/ns#"
   xmlns:rdf="http://www.w3.org/1999/02/22-rdf-syntax-ns#"
   xmlns:svg="http://www.w3.org/2000/svg"
   xmlns="http://www.w3.org/2000/svg"
   xmlns:sodipodi="http://sodipodi.sourceforge.net/DTD/sodipodi-0.dtd"
   xmlns:inkscape="http://www.inkscape.org/namespaces/inkscape"
   width="210mm"
   height="297mm"
   viewBox="0 0 210 297"
   version="1.1"
   id="svg8156"
   inkscape:version="0.92.4 (5da689c313, 2019-01-14)"
   sodipodi:docname="DreiStuehle.svg">
  <defs
     id="defs8150" />
  <sodipodi:namedview
     id="base"
     pagecolor="#ffffff"
     bordercolor="#666666"
     borderopacity="1.0"
     inkscape:pageopacity="0.0"
     inkscape:pageshadow="2"
     inkscape:zoom="0.35"
     inkscape:cx="-64.285714"
     inkscape:cy="560"
     inkscape:document-units="mm"
     inkscape:current-layer="layer1"
     showgrid="false"
     inkscape:window-width="1857"
     inkscape:window-height="1177"
     inkscape:window-x="1975"
     inkscape:window-y="-8"
     inkscape:window-maximized="1" />
  <metadata
     id="metadata8153">
    <rdf:RDF>
      <cc:Work
         rdf:about="">
        <dc:format>image/svg+xml</dc:format>
        <dc:type
           rdf:resource="http://purl.org/dc/dcmitype/StillImage" />
        <dc:title></dc:title>
      </cc:Work>
    </rdf:RDF>
  </metadata>
  <g
     inkscape:label="Layer 1"
     inkscape:groupmode="layer"
     id="layer1">
    <path
       style="fill:#4fdc05;fill-opacity:0.48066316;stroke-width:0.48765016"
       d="m 52.778267,170.19048 c -0.191107,-0.19124 -0.355264,-3.54768 -0.364765,-7.45907 -0.01281,-5.24476 -0.20021,-7.43157 -0.714194,-8.33068 -0.558614,-0.97719 -0.698862,-3.97716 -0.706729,-15.11715 -0.0053,-7.64394 0.151411,-14.13949 0.348458,-14.4346 1.311545,-1.96421 4.740437,-1.70298 5.21608,0.39741 0.1388,0.61294 0.309518,5.32335 0.379358,10.4676 0.116919,8.61236 0.207698,9.46206 1.146138,10.72829 1.541098,2.07943 3.420301,2.75985 8.246195,2.98567 3.023022,0.14141 4.65443,0.43958 5.24224,0.9579 1.219103,1.07496 1.090782,3.30594 -0.243832,4.23909 -1.035783,0.72426 -1.110864,1.18308 -1.341036,8.19583 l -0.243832,7.42859 H 68.27941 66.816461 l -0.243832,-7.31476 -0.243832,-7.31476 h -5.120326 -5.120327 l -0.243832,7.31476 -0.243832,7.31476 -1.237373,0.1442 c -0.680558,0.0793 -1.393744,-0.0139 -1.584865,-0.20322 z m 34.874335,-33.58607 c -0.605203,0.54854 -8.604875,1.17141 -11.814528,0.0479 -2.949716,-1.03245 -2.925901,-1.04117 -2.925901,1.07078 0,2.16136 0.682498,3.01924 2.413869,3.03416 0.683928,0.006 2.163235,0.42826 3.287348,0.93861 3.100667,1.40771 3.349064,2.84222 2.610748,15.07713 -0.329603,5.46195 -0.821617,10.56864 -1.093362,11.34816 -0.919309,2.63713 -4.273326,3.24987 -6.253214,1.14238 l -8.6e-5,-3e-5 -1.155221,-1.22968 0.590733,-6.69465 c 0.720208,-8.16189 0.7284,-10.12836 0.04749,-11.40063 -0.836227,-1.56251 -3.462312,-2.36491 -7.739797,-2.36491 -2.774923,-0.17593 -5.85607,-0.36765 -7.094282,-2.84592 -1.573412,-3.51581 0,-11.55552 0,-11.55552 0,0 -1.6022,-8.05275 0,-11.55556 0.33771,-0.73831 1.84265,-1.59285 1.84265,-1.59285 1.013456,-0.87609 2.494692,-1.72325 3.29164,-1.88265 1.918107,-0.38363 1.823205,-0.8277 -0.45484,-2.12837 -2.10484,-1.20173 -3.955059,-4.37455 -3.937267,-6.75174 0.02617,-3.50687 2.821829,-6.87949 6.453863,-7.786 5.041203,-1.25821 10.333492,4.0486 9.336641,9.36226 -0.442085,2.35651 -3.222311,5.37143 -5.614115,6.08803 -1.043374,0.31259 -1.896452,0.6982 -1.895728,0.85691 7.32e-4,0.15867 0.823636,0.72743 1.828689,1.26387 1.487176,0.79371 2.193064,1.73429 3.791723,5.05248 2.898848,6.01677 4.970706,7.37414 11.264404,7.37988 2.058524,0.002 3.118083,0.14531 3.499929,0.9842 0.590597,1.29758 0.09913,3.79687 -0.281396,4.14175 z"
       id="path65318-5"
       inkscape:connector-curvature="0"
       sodipodi:nodetypes="ccccccsccccsccccccccccccscsccsccccsscccscccscscccccss" />
    <path
       style="fill:#a1844c;fill-opacity:0.49171274;stroke-width:0.48765016"
       d="m 148.30507,170.19048 c 0.1911,-0.19124 0.35526,-3.54768 0.36476,-7.45907 0.0128,-5.24476 0.20021,-7.43157 0.7142,-8.33068 0.55862,-0.97719 0.69886,-3.97716 0.70673,-15.11715 0.005,-7.64394 -0.15141,-14.13949 -0.34846,-14.4346 -1.31155,-1.96421 -4.74044,-1.70298 -5.21608,0.39741 -0.1388,0.61294 -0.30952,5.32335 -0.37936,10.4676 -0.11692,8.61236 -0.2077,9.46206 -1.14614,10.72829 -1.5411,2.07943 -3.4203,2.75985 -8.24619,2.98567 -3.02302,0.14141 -4.65443,0.43958 -5.24225,0.9579 -1.2191,1.07496 -1.09077,3.30594 0.24384,4.23909 1.03578,0.72426 1.11086,1.18308 1.34104,8.19583 l 0.24383,7.42859 h 1.46295 1.46294 l 0.24383,-7.31476 0.24384,-7.31476 h 5.12032 5.12033 l 0.24383,7.31476 0.24383,7.31476 1.23737,0.1442 c 0.68056,0.0793 1.39375,-0.0139 1.58487,-0.20322 z m -34.87433,-33.58607 c 0.6052,0.54854 8.60487,1.17141 11.81452,0.0479 2.94972,-1.03245 2.92591,-1.04117 2.92591,1.07078 0,2.16136 -0.68251,3.01924 -2.41388,3.03416 -0.68392,0.006 -2.16323,0.42826 -3.28734,0.93861 -3.10067,1.40771 -3.34907,2.84222 -2.61075,15.07713 0.3296,5.46195 0.82161,10.56864 1.09336,11.34816 0.91931,2.63713 4.27333,3.24987 6.25321,1.14238 l 9e-5,-3e-5 1.15522,-1.22968 -0.59074,-6.69465 c -0.7202,-8.16192 -0.72839,-10.12836 -0.0475,-11.40066 0.83623,-1.56251 3.46231,-2.36488 7.73979,-2.36488 2.77493,-0.17593 5.85608,-0.36768 7.09429,-2.84592 1.57342,-3.51584 0,-11.55555 0,-11.55555 0,0 1.6022,-8.05274 0,-11.55555 -0.3377,-0.73829 -1.84264,-1.59283 -1.84264,-1.59283 -1.01345,-0.87609 -2.49469,-1.72325 -3.29163,-1.88265 -1.91811,-0.38363 -1.82321,-0.8277 0.45484,-2.12837 2.10484,-1.20173 3.95505,-4.37455 3.93726,-6.75174 -0.0262,-3.50687 -2.82183,-6.87949 -6.45386,-7.786 -5.0412,-1.25824 -10.33349,4.0486 -9.33664,9.36226 0.44208,2.35651 3.22231,5.37143 5.61412,6.08803 1.04337,0.31259 1.89644,0.6982 1.89572,0.85691 -7.3e-4,0.15867 -0.82363,0.72743 -1.82869,1.26387 -1.48718,0.79371 -2.19306,1.73429 -3.79172,5.05248 -2.89885,6.01677 -4.97071,7.37414 -11.26441,7.37988 -2.05852,0.002 -3.11807,0.14531 -3.49993,0.9842 -0.59058,1.29758 -0.0991,3.79687 0.2814,4.14175 z"
       id="path65318-5-0"
       inkscape:connector-curvature="0"
       sodipodi:nodetypes="ccccccsccccsccccccccccccscsccsccccsscccscccscscccccss" />
    <path
       style="fill:#00acd7;fill-opacity:1;stroke-width:0.48765016"
       d="m 84.550732,129.63236 c 1.123194,-7.25647 4.980946,-12.53834 10.728209,-14.68868 3.287974,-1.24232 6.533769,-1.33702 9.255229,-0.48538 4.64154,1.47207 8.67116,4.9981 10.44729,9.14165 0.52867,1.23333 1.21098,3.849 1.51626,5.81263 l 0.46972,7.83719 c 0.15071,1.31005 0.23601,1.34435 3.68976,1.48432 l 3.53547,0.14308 v 2.42897 c 0,2.14218 -0.14395,2.48369 -1.21913,2.89246 l -1.21912,0.4635 -0.007,12.32527 c -0.004,6.77886 -0.19044,12.61376 -0.41407,12.96641 -0.26276,0.41436 -1.16586,0.58687 -2.5527,0.48766 l -2.1461,-0.15339 -0.24383,-12.92272 -0.24383,-12.92273 -2.31634,-0.14865 c -1.96193,-0.12583 -2.31671,-0.0139 -2.31875,0.73147 -0.004,1.27029 -2.37897,21.15677 -2.68113,22.44511 -0.37419,1.59552 -2.17935,3.06133 -3.77003,3.06133 -1.57453,0 -3.78307,-1.90308 -3.79425,-3.26948 -0.004,-0.48156 0.47577,-4.7986 1.06602,-9.59345 1.04809,-8.51396 1.05178,-8.73357 0.15779,-9.38726 -1.09062,-0.7975 -2.39551,-0.85574 -3.686965,-0.16453 -1.20075,0.64261 -1.197449,1.66738 0.03602,11.19879 1.072114,8.28443 0.906017,9.66948 -1.279013,10.66504 -1.725561,0.7862 -2.840451,0.68476 -4.152736,-0.37784 -1.062265,-0.86016 -1.256676,-1.82352 -2.632501,-13.04465 l -1.48557,-12.11588 h -2.176111 -2.176116 l -0.243832,12.92273 -0.243832,12.92272 -2.146099,0.15339 c -1.386843,0.0991 -2.289942,-0.0732 -2.552695,-0.48764 -0.223622,-0.35267 -0.40996,-6.18757 -0.414066,-12.96643 l -0.0075,-12.32524 -1.219125,-0.46353 c -1.075243,-0.4088 -1.219179,-0.75031 -1.219179,-2.89249 v -2.42894 l 3.535464,-0.14308 c 3.453755,-0.14003 3.53903,-0.17427 3.68977,-1.48432 m 7.891833,-3.80813 c 0,-4.33572 -0.576102,-5.74652 -1.158169,-2.83615 -0.388336,1.94166 -0.394028,5.96612 -0.0097,6.96728 0.66719,1.73867 1.168023,-0.0326 1.168023,-4.13113 z m 18.516573,0.76025 c 7.4e-4,-3.26026 -0.36891,-5.1203 -1.01805,-5.1203 -0.50074,0 -0.59365,8.45227 -0.0983,8.94756 0.6505,0.65049 1.11561,-0.94401 1.1164,-3.82726 z M 97.001386,112.47516 c -6.244174,-3.17315 -6.255229,-11.63283 -0.01949,-14.890555 0.724258,-0.378373 2.392484,-0.687957 3.707174,-0.687957 5.94489,0 9.74357,6.449392 7.09105,12.039152 -1.79202,3.77643 -6.96786,5.47599 -10.778765,3.53936 z"
       id="path65318"
       inkscape:connector-curvature="0"
       sodipodi:nodetypes="ccccccccsccccccccccsscsscsccscccccccsccsccccsccccsccccsccc" />
  </g>
</svg>
