<?xml version="1.0" encoding="UTF-8" standalone="no"?>
<svg
   xmlns:dc="http://purl.org/dc/elements/1.1/"
   xmlns:cc="http://creativecommons.org/ns#"
   xmlns:rdf="http://www.w3.org/1999/02/22-rdf-syntax-ns#"
   xmlns:svg="http://www.w3.org/2000/svg"
   xmlns="http://www.w3.org/2000/svg"
   xmlns:sodipodi="http://sodipodi.sourceforge.net/DTD/sodipodi-0.dtd"
   xmlns:inkscape="http://www.inkscape.org/namespaces/inkscape"
   version="1.1"
   id="Layer_1"
   x="0px"
   y="0px"
   viewBox="0 0 1920 1518"
   enable-background="new 0 0 1920 1518"
   xml:space="preserve"
   sodipodi:docname="FuelGauge.svg"
   inkscape:version="0.92.2 (5c3e80d, 2017-08-06)"><metadata
     id="metadata2408"><rdf:RDF><cc:Work
         rdf:about=""><dc:format>image/svg+xml</dc:format><dc:type
           rdf:resource="http://purl.org/dc/dcmitype/StillImage" /></cc:Work></rdf:RDF></metadata><defs
     id="defs2406" /><sodipodi:namedview
     pagecolor="#ffffff"
     bordercolor="#666666"
     borderopacity="1"
     objecttolerance="10"
     gridtolerance="10"
     guidetolerance="10"
     inkscape:pageopacity="0"
     inkscape:pageshadow="2"
     inkscape:window-width="1618"
     inkscape:window-height="1028"
     id="namedview2404"
     showgrid="false"
     inkscape:zoom="0.56587615"
     inkscape:cx="960"
     inkscape:cy="971.06054"
     inkscape:window-x="1734"
     inkscape:window-y="-8"
     inkscape:window-maximized="1"
     inkscape:current-layer="Layer_1" /><g
     id="g6329"
     inkscape:export-filename="D:\MatamekoWiki\mtameko.git\images\FuelGauge.png"
     inkscape:export-xdpi="20"
     inkscape:export-ydpi="20"><rect
       style="stroke-width:0.97105968"
       width="1920"
       height="1431.4086"
       id="rect2335"
       x="0"
       y="-74.221184" /><path
       d="m 952.2,220.12 c 6.76,-0.41 13.55,-0.06 20.31,0.05 -0.13,60.77 -0.07,121.54 -0.03,182.31 -6.74,0.01 -13.47,-0.06 -20.21,0.03 -0.04,-60.79 0.11,-121.59 -0.07,-182.39 m 3.03,1.13 c -1.43,1.52 -1.65,3.7 -1.66,5.68 -0.01,56.37 0.01,112.73 -0.03,169.1 0.04,1.86 0.47,4.28 2.42,5.09 4.34,0.06 8.69,0.2 13.03,-0.04 2.33,-0.54 2.43,-3.18 2.38,-5.11 -0.02,-53.99 0.04,-107.98 0.01,-161.97 -0.01,-4.25 0.58,-8.82 -1.67,-12.66 -2.4,-0.93 -5.09,0.75 -7.59,0.11 -2.26,-0.23 -4.85,-1.83 -6.89,-0.2 z"
       id="path2337"
       inkscape:connector-curvature="0"
       style="fill:#82c674;stroke:#82c674;stroke-width:0.0938" /><path
       d="m 1440.0601,390.81 c 0.59,-0.57 1.36,-2.3 2.33,-1.16 4.9,4.11 9.79,8.24 14.7,12.35 -1.45,1.86 -2.98,3.66 -4.5699,5.39 0.1799,-2 0.53,-4.02 0.29,-6.02 -1.7201,-2.91 -4.7001,-4.79 -6.9801,-7.22 -1.5501,-1.69 -3.6001,-2.72 -5.77,-3.34 z"
       id="path2339"
       inkscape:connector-curvature="0"
       style="fill:#82c674;stroke:#82c674;stroke-width:0.0938" /><path
       d="m 955.23,221.25 c 2.04,-1.63 4.63,-0.03 6.89,0.2 2.5,0.64 5.19,-1.04 7.59,-0.11 2.25,3.84 1.66,8.41 1.67,12.66 0.03,53.99 -0.03,107.98 -0.01,161.97 0.05,1.93 -0.05,4.57 -2.38,5.11 -4.34,0.24 -8.69,0.1 -13.03,0.04 -1.95,-0.81 -2.38,-3.23 -2.42,-5.09 0.04,-56.37 0.02,-112.73 0.03,-169.1 0.01,-1.98 0.23,-4.16 1.66,-5.68 z"
       id="path2341"
       inkscape:connector-curvature="0"
       style="fill:#68d551;stroke:#68d551;stroke-width:0.0938" /><path
       d="m 821.1,231.48 c 6.65,-0.89 13.1801,-2.59 19.87,-3.2 4.76,30.03 10.7,59.88 15.52,89.9 -6.65,0.98 -13.23,2.29 -19.85,3.42 -4.57,-26.22 -9.24,-52.42 -13.86,-78.62 -0.57,-3.84 -1.64,-7.61 -1.68,-11.5 z"
       id="path2343"
       inkscape:connector-curvature="0"
       style="fill:#68d551;stroke:#68d551;stroke-width:0.0938" /><path
       d="m 259.47,709.31 c 26.73,9.43 53.23,19.56 80.01,28.85 -1.6,6.59 -4.61,12.73 -6.59,19.21 -20.45,-7.08 -40.68,-14.82 -61.08,-22.06 L 271.59,735 c -0.83,-1.05 -1.52,-2.39 -2.97,-2.61 -6.66,-1.99 -13.16,-4.52 -19.44,-7.49 1.3,-4.7 3.63,-9.04 5.09,-13.69 1.54,-1.06 3.43,-1.42 5.2,-1.9 z"
       id="path2345"
       inkscape:connector-curvature="0"
       style="fill:#68d551;stroke:#68d551;stroke-width:0.0938" /><path
       d="m 1083.99,228.11 c 6.64,1.06 13.23,2.41 19.88,3.47 -1.48,8.23 -2.6899,16.53 -4.5,24.71 -0.4,-3.35 -1.1,-6.84 0.12,-10.11 1.67,-4.23 1.26,-8.84 2.03,-13.25 -5.34,-0.99 -10.76,-2.47 -16.22,-1.92 -0.54,2.02 -1.0901,4.05 -1.66,6.06 -0.24,-1 -0.46,-2.01 -0.65,-3.01 0.14,-2.01 0.59,-3.98 1,-5.95 z"
       id="path2347"
       inkscape:connector-curvature="0"
       style="fill:#7bc56a;stroke:#7bc56a;stroke-width:0.0938" /><path
       d="m 1082.41,237.55 c 0.3099,4.36 0.9099,8.89 -0.73,13.06 -1.8401,4.76 -0.3501,10.08 -2.4401,14.78 -2.39,5.85 -1.5599,12.34 -3.53,18.27 -1.25,3.26 1.0601,6.92 -1.0599,9.97 -2.04,3.43 -1.4401,7.56 -2.78,11.21 -1.2,3.53 -1.03,7.3 -1.39,10.97 2.59,0.29 5.16,0.88 7.42,2.26 2.65,1.68 5.88,1.04 8.83,0.78 1.0701,-5.09 1.88,-10.25 3.25,-15.28 0.28,-0.05 0.84,-0.14 1.13,-0.19 -1.0499,6.1 -1.67,12.34 -3.4299,18.28 -6.4501,-1.51 -13.05,-2.29 -19.54,-3.63 4.6999,-26.84 9.2699,-53.7 14.2699,-80.48 z"
       id="path2349"
       inkscape:connector-curvature="0"
       style="fill:#7bc56a;stroke:#7bc56a;stroke-width:0.0938" /><path
       d="m 728.23,303.64 c 4.03,10.27 7.8,20.68 11.3,31.15 -3.19,-1.14 -2.75,-5.37 -4.59,-7.73 -1.66,-2.14 -3.04,-4.47 -2.69,-7.29 0.51,-5.9 -5.91,-10.18 -4.02,-16.13 z"
       id="path2351"
       inkscape:connector-curvature="0"
       style="fill:#7bc56a;stroke:#7bc56a;stroke-width:0.0938" /><path
       d="m 253.69,707.26 c 1.96,0.57 3.9,1.24 5.78,2.05 -1.77,0.48 -3.66,0.84 -5.2,1.9 -1.46,4.65 -3.79,8.99 -5.09,13.69 6.28,2.97 12.78,5.5 19.44,7.49 1.45,0.22 2.14,1.56 2.97,2.61 -8.28,-2.53 -16.23,-6.02 -24.5,-8.54 1.62,-6.57 4.57,-12.74 6.6,-19.2 z"
       id="path2353"
       inkscape:connector-curvature="0"
       style="fill:#7bc56a;stroke:#7bc56a;stroke-width:0.0938" /><path
       d="m 1674.16,716.71 c 1.5499,3.05 2.5499,6.34 3.59,9.6 -6.85,2.14 -13.4301,5.08 -20.3,7.15 0.2001,-0.96 0.3101,-2.26 1.55,-2.44 5.37,-1.58 10.5699,-3.65 15.9,-5.39 -0.5899,-2.94 -0.92,-5.93 -0.74,-8.92 z"
       id="path2355"
       inkscape:connector-curvature="0"
       style="fill:#7bc56a;stroke:#7bc56a;stroke-width:0.0938" /><path
       d="m 1085.3,231.01 c 5.46,-0.55 10.88,0.93 16.22,1.92 -0.77,4.41 -0.36,9.02 -2.03,13.25 -1.22,3.27 -0.52,6.76 -0.12,10.11 -2.28,15.72 -5.61,31.33 -8.02,47.05 l -0.24,0.04 c -0.29,0.05 -0.85,0.14 -1.13,0.19 -1.37,5.03 -2.1799,10.19 -3.25,15.28 -2.95,0.26 -6.1799,0.9 -8.83,-0.78 -2.26,-1.38 -4.8301,-1.97 -7.42,-2.26 0.36,-3.67 0.1901,-7.44 1.39,-10.97 1.34,-3.65 0.74,-7.78 2.78,-11.21 2.12,-3.05 -0.1901,-6.71 1.0599,-9.97 1.9701,-5.93 1.14,-12.42 3.53,-18.27 2.09,-4.7 0.6,-10.02 2.4401,-14.78 1.6399,-4.17 1.0399,-8.7 0.73,-13.06 -0.06,-1.19 0.33,-2.34 0.58,-3.49 0.1901,1 0.41,2.01 0.65,3.01 0.57,-2.01 1.12,-4.04 1.66,-6.06 z"
       id="path2357"
       inkscape:connector-curvature="0"
       style="fill:#68d651;stroke:#68d651;stroke-width:0.0938" /><path
       d="m 1440.0601,390.81 c 2.1699,0.62 4.22,1.65 5.7699,3.34 2.28,2.43 5.26,4.31 6.9801,7.22 0.24,2 -0.1101,4.02 -0.29,6.02 l -0.04,0.32 c -18.03,21.37 -36.01,42.78 -53.9,64.26 -5.3999,-4.07 -10.47,-8.58 -15.63,-12.95 18.9199,-22.83 38.1499,-45.41 57.11,-68.21 z"
       id="path2359"
       inkscape:connector-curvature="0"
       style="fill:#68d651;stroke:#68d651;stroke-width:0.0938" /><path
       d="m 693.94,267.23 c 6.39,-2.02 12.58,-4.61 18.97,-6.65 4.84,14.27 10.17,28.38 15.39,42.51 l -0.07,0.55 c -1.89,5.95 4.53,10.23 4.02,16.13 -0.35,2.82 1.03,5.15 2.69,7.29 1.84,2.36 1.4,6.59 4.59,7.73 1.85,3.66 3.03,7.82 4.37,11.76 -6.37,2.11 -12.62,4.55 -18.95,6.76 -8.25,-22.54 -16.44,-45.1 -24.66,-67.64 -2.02,-6.18 -4.89,-12.1 -6.35,-18.44 z"
       id="path2361"
       inkscape:connector-curvature="0"
       style="fill:#69d551;stroke:#69d551;stroke-width:0.0938" /><path
       d="m 1187.65,327.37 c 8.0399,-22.29 16.28,-44.51 24.2899,-66.82 6.3601,2.19 12.6101,4.68 19,6.8 -10.11,28.72 -20.83,57.23 -31.1,85.88 -6.34,-1.91 -12.38,-4.64 -18.73,-6.48 1.2701,-6.69 4.4701,-12.89 6.5401,-19.38 z"
       id="path2363"
       inkscape:connector-curvature="0"
       style="fill:#68d552;stroke:#68d552;stroke-width:0.0938" /><path
       d="m 481.45,390.27 c 0.66,-0.65 1.88,-1.56 2.51,-0.3 19.21,23.09 38.61,46.02 57.88,69.07 -5.25,4.26 -10.3,8.75 -15.56,12.98 -18.99,-22.47 -37.77,-45.11 -56.79,-67.55 -0.52,-0.88 -2.23,-1.99 -1.17,-3.06 4.27,-3.83 8.84,-7.32 13.13,-11.14 z"
       id="path2365"
       inkscape:connector-curvature="0"
       style="fill:#68d552;stroke:#68d552;stroke-width:0.0938" /><path
       d="m 388.34,481.18 c 22.72,18.73 45.13,37.85 67.78,56.67 0.61,0.7401 2.57,1.57 1.6,2.7401 -3.8,5.04 -8.22,9.58 -12.02,14.62 -3.08,-1.73 -5.54,-4.31 -8.26,-6.51 -20.68,-17.26 -41.23,-34.69 -61.97,-51.89 4.02,-5.4201 8.59,-10.4101 12.87,-15.6301 z"
       id="path2367"
       inkscape:connector-curvature="0"
       style="fill:#68d552;stroke:#68d552;stroke-width:0.0938" /><path
       d="m 1466.23,539.91 c 23.39,-19.6 46.63,-39.42 70.24,-58.75 4.1,5.34 8.79,10.21 12.77,15.64 -23.42,19.43 -46.5699,39.18 -70.04,58.53 -4.35,-5.13 -8.6,-10.32 -12.97,-15.42 z"
       id="path2369"
       inkscape:connector-curvature="0"
       style="fill:#68d552;stroke:#68d552;stroke-width:0.0938" /><path
       d="m 311.15,588.29 c 26.37,14.9 52.37,30.48 78.83,45.22 -0.49,2.89 -2.5,5.18 -3.8,7.74 -2.09,3.37 -3.74,7.02 -6.15,10.2 -26.27,-15.28 -52.62,-30.43 -78.94,-45.62 3.27,-5.89 6.74,-11.68 10.06,-17.54 z"
       id="path2371"
       inkscape:connector-curvature="0"
       style="fill:#68d552;stroke:#68d552;stroke-width:0.0938" /><path
       d="m 1534.38,633.88 c 26.3199,-15.22 52.72,-30.31 78.97,-45.65 3.64,5.73 6.86,11.73 10.27,17.61 -26.48,15.1299 -52.73,30.66 -79.3199,45.59 -3.1801,-5.92 -6.7701,-11.61 -9.9201,-17.55 z"
       id="path2373"
       inkscape:connector-curvature="0"
       style="fill:#68d552;stroke:#68d552;stroke-width:0.0938" /><path
       d="m 590,316 c 0.85,-0.47 2.45,-1.55 3,-0.06 14.92,26.01 30.04,51.91 44.93,77.94 -5.83,3.39 -11.64,6.85 -17.56,10.09 -15.16,-26.35 -30.42,-52.63 -45.59,-78.96 4.91,-3.27 10.17,-5.96 15.22,-9.01 z"
       id="path2375"
       inkscape:connector-curvature="0"
       style="fill:#69d552;stroke:#69d552;stroke-width:0.0938" /><path
       d="m 1332.26,314.85 c 6.0599,3.05 11.84,6.64 17.73,10.02 -15.09,26.39 -30.5699,52.55 -45.48,79.04 -6.1,-2.97 -11.85,-6.63 -17.71,-10.04 15,-26.42 30.47,-52.59 45.46,-79.02 z"
       id="path2377"
       inkscape:connector-curvature="0"
       style="fill:#69d552;stroke:#69d552;stroke-width:0.0938" /><path
       d="m 1585.05,738.38 c 28.7,-10.27 57.22,-21.08 86,-31.07 0.8199,3.19 2.5699,6.14 3.11,9.4 -0.1801,2.99 0.15,5.98 0.74,8.92 -5.3301,1.74 -10.53,3.81 -15.9,5.39 -1.24,0.18 -1.35,1.48 -1.55,2.44 l -0.05,0.2 c -21.84,7.88 -43.62,15.95 -65.48,23.76 -2.3301,-6.34 -4.6801,-12.66 -6.8701,-19.04 z"
       id="path2379"
       inkscape:connector-curvature="0"
       style="fill:#69d552;stroke:#69d552;stroke-width:0.0938" /><path
       d="m 1531.6899,865.27 c 58.3,-10.66 116.75,-20.63 175.1101,-31.03 1.1399,6.66 2.38,13.31 3.5,19.98 -58.38,10.13 -116.6801,20.66 -175.0601,30.73 -1.2199,-6.55 -2.2399,-13.14 -3.55,-19.68 z"
       id="path2385"
       inkscape:connector-curvature="0"
       style="fill:#ffffff;stroke:#ffffff;stroke-width:0.0938" /><g
       transform="matrix(0.60765029,0,0,0.60765029,-366.36655,664.76906)"
       id="g2393"><path
         d="m 867.22,472.33 c 2.6,-5.58 8.6201,-9.39 14.8101,-9.12 63.3199,0.04 126.65,-0.01 189.97,0.02 7.96,-0.12 15.13,6.74 15.59,14.65 0.23,6.62 -0.06,13.25 0.14,19.88 8.4401,7.15 17.88,14.66 29.51,14.83 1.3,8.27 8.61,13.4 14.15,18.93 6.46,6.62 16.25,9.83 20.61,18.43 5.73,11.78 6.75,25.13 7.49,38.01 1.6801,46.4 -5.9,92.75 -2.13,139.13 1.61,23.98 4.75,48.0699 2.3201,72.1 -1.3301,10.97 -3.87,22.59 -11.4901,31.04 -6.0099,6.76 -15.2699,9.7 -24.1299,9.58 -1.55,0.07 -3.8701,-0.26 -4.4,1.66 -1.29,4.66 1.35,9.53 -0.08,14.21 -0.83,1.07 -2.26,1.8 -3.6,1.77 -91.51,0.05 -183.03,-0.04 -274.54,0.05 -0.5,-7.05 -1.83,-15.04 2.83,-21.08 5.11,-6.42 14.09,-6.96 21.66,-6.77 -0.7,-10.54 -0.14,-21.12 -0.32,-31.67 0,-104.34 0.01,-208.67 0,-313 0.0599,-4.24 -0.4101,-8.76 1.6099,-12.65 m 41.2,23.3 c -6.37,2.15 -11.02,8.61 -10.78,15.37 0.02,32.99 0.01,65.98 0.01,98.97 0.01,3.97 -0.38,8.1801 1.44,11.8701 2.54,5.74 8.66,9.56 14.93,9.3799 42.31,-0.02 84.62,0.01 126.9399,-0.01 8.48,-0.02 15.91,-7.76 15.63,-16.2401 -0.02,-34.95 0.05,-69.91 -0.03,-104.86 -0.1201,-8.93 -8.7301,-16.26 -17.54,-15.39 -41.69,0.04 -83.38,0.01 -125.06,0.02 -1.9,-0.02 -3.77,0.28 -5.54,0.89 m 181.49,19.08 c 0.01,42.43 0,84.86 0.01,127.29 0.14,23.36 -0.3,46.74 0.22,70.09 7.0699,1.08 15.0499,-2.89 21.45,1.21 3.0601,7.8 3.9301,16.34 4.99,24.62 2.7001,21.32 -3.01,42.76 -0.01,64.04 0.9601,7.62 4.9,15.52 12.54,18.27 5.55,-1.68 9.33,-6.84 10.4301,-12.38 2.14,-10.2 -0.41,-20.56 -0.16,-30.83 0.39,-41.68 1.1801,-83.37 0.13,-125.06 -0.63,-25.25 -1.83,-50.52 -5.05,-75.6 -5.6599,-6.96 -14.62,-10.94 -18.63,-19.26 -3.1599,-6.27 -2.48,-13.5699 -1.12,-20.21 -6.24,-2.97 -13.6599,-3.88 -18.8099,-8.8 -3.0701,-2.9 -3.42,-7.3 -3.4401,-11.26 0.3099,-1.46 -1.2901,-2.36 -2.5501,-2.12 m 0.3,216.42 c -0.75,20.59 0.06,41.24 -0.4099,61.85 -0.4301,10.22 -2.52,20.75 0.34,30.79 1.08,4.41 5.51,7.09 9.95,6.36 0.98,-5.03 -1.35,-9.74 -2.9399,-14.35 -3.22,-8.51 -2.92,-17.79 -2.99,-26.7401 0,-18.36 2.61,-36.74 0.84,-55.07 -0.2502,-2.4199 -2.9303,-2.6299 -4.7902,-2.8399 z"
         id="path2389"
         inkscape:connector-curvature="0"
         style="fill:#ffffff;stroke:#ffffff;stroke-width:0.0938" /><path
         d="m 1090.21,731.13 c 1.86,0.21 4.54,0.42 4.79,2.84 1.77,18.33 -0.84,36.71 -0.84,55.07 0.07,8.95 -0.23,18.23 2.99,26.7401 1.59,4.61 3.9199,9.3199 2.9399,14.35 -4.4399,0.73 -8.87,-1.95 -9.95,-6.36 -2.86,-10.04 -0.77,-20.57 -0.34,-30.79 C 1090.27,772.37 1089.46,751.72 1090.21,731.13 Z"
         id="path2391"
         inkscape:connector-curvature="0"
         style="fill:#010101;stroke:#010101;stroke-width:0.0938" /></g><path
       d="m 527.49,967.65 c 3.03,0.46 6.38,1.06 8.61,3.38 -3.01,-0.41 -6.62,-0.84 -8.61,-3.38 z"
       id="path2397"
       inkscape:connector-curvature="0"
       style="fill:#a72f2a;stroke:#a72f2a;stroke-width:0.0938" /><path
       d="m 877.78,1008.49 c 1.39,-2.83 3.1,-5.48 5.22,-7.81 -0.91,3.09 -2.51,5.95 -5.22,7.81 z"
       id="path2399"
       inkscape:connector-curvature="0"
       style="fill:#f6c1ba;stroke:#f6c1ba;stroke-width:0.0938" /><text
       id="text6134"
       y="905.8327"
       x="71.75338"
       style="font-style:normal;font-weight:normal;font-size:185.72540283px;line-height:1.25;font-family:sans-serif;letter-spacing:0px;word-spacing:0px;fill:#000000;fill-opacity:1;stroke:none;stroke-width:1.93463957"
       xml:space="preserve"><tspan
         style="fill:#ffffff;fill-opacity:1;stroke-width:1.93463957"
         y="905.8327"
         x="71.75338"
         id="tspan6132"
         sodipodi:role="line">0</tspan></text>
<text
       id="text6134-4"
       y="908.64398"
       x="1720.4139"
       style="font-style:normal;font-weight:normal;font-size:185.72540283px;line-height:1.25;font-family:sans-serif;letter-spacing:0px;word-spacing:0px;fill:#000000;fill-opacity:1;stroke:none;stroke-width:1.93463957"
       xml:space="preserve"><tspan
         style="fill:#ffffff;fill-opacity:1;stroke-width:1.93463957"
         y="908.64398"
         x="1720.4139"
         id="tspan6132-7"
         sodipodi:role="line">1</tspan></text>
<path
       d="m 393.86077,865.27 c -58.3,-10.66 -116.75,-20.63 -175.1101,-31.03 -1.1399,6.66 -2.38,13.31 -3.5,19.98 58.38,10.13 116.6801,20.66 175.0601,30.73 1.2199,-6.55 2.2399,-13.14 3.55,-19.68 z"
       id="path2385-4"
       inkscape:connector-curvature="0"
       style="fill:#ffffff;stroke:#ffffff;stroke-width:0.0938" /><text
       id="text6134-5"
       y="168.19933"
       x="796.18335"
       style="font-style:normal;font-weight:normal;font-size:185.72540283px;line-height:1.25;font-family:sans-serif;letter-spacing:0px;word-spacing:0px;fill:#000000;fill-opacity:1;stroke:none;stroke-width:1.93463957"
       xml:space="preserve"><tspan
         style="fill:#ffffff;fill-opacity:1;stroke-width:1.93463957"
         y="168.19933"
         x="796.18335"
         id="tspan6132-6"
         sodipodi:role="line">1/2</tspan></text>
<g
       transform="rotate(-42.203288,752.73064,995.72146)"
       id="g6267"><path
         style="fill:#da251e;stroke:#da251e;stroke-width:0.0938"
         inkscape:connector-curvature="0"
         id="path2395"
         d="m 1774.2177,1071.498 c -2.8377,5.0927 -7.3219,9.5069 -13.032,11.1533 -12.3549,4.045 -24.638,8.4766 -37.3343,11.3289 -35.8189,7.449 -72.4736,9.3896 -108.9506,10.9684 -41.4231,2.1708 -82.8522,4.3226 -124.3212,5.1742 -126.4735,3.2821 -252.9955,0.1724 -379.4799,2.1135 -9.1085,0.3544 -18.2719,-0.082 -27.329,0.7914 l -1.2366,-1.1676 c 0.4712,-1.7691 0.9675,-3.5252 1.505,-5.2841 1.3053,-2.867 2.1223,-5.9132 2.5795,-9.0327 4.0796,-16.4896 3.8978,-33.7524 1.0186,-50.4209 -0.8964,-7.5267 -4.0022,-14.5745 -6.1447,-21.7953 3.7727,-0.8765 7.6287,-0.089 11.4439,-0.2123 97.8941,1.7557 195.8195,0.8964 293.7207,2.2822 5.0835,0.4562 10.1353,-0.5585 15.228,-0.3679 -2.9411,0.5883 -6.0083,0.2613 -8.8991,1.1695 7.147,-0.5748 14.3022,-0.4379 21.4509,-0.2884 3.5814,-0.1324 7.2793,0.6537 10.7029,-0.6884 2.5932,-0.8862 4.9665,1.3341 7.588,1.0586 72.8979,1.7658 145.7972,5.1698 218.3456,12.6781 21.0525,2.0664 41.99,5.1152 63.0745,6.8563 15.3674,1.667 31.1946,3.8166 44.8588,11.5563 5.905,2.8812 10.6401,7.5144 15.211,12.1269 m -341.617,-42.2733 c -2.6718,-1.8091 -6.2403,-1.1137 -9.2313,-0.5829 2.833,1.5263 6.2059,1.0722 9.2313,0.5829 z" /><path
         style="fill:#ffffff;stroke:#ffffff;stroke-width:0.0938"
         inkscape:connector-curvature="0"
         id="path2387"
         d="m 921.57,966.5 c 17.8,-9.71 38.13,-14.85 58.42,-14.34 35.95,0.36 71.0601,18.69 92.16,47.75 14.73,20.17 22.86,45.1301 22.53,70.1201 -0.09,36.23 -18.3401,71.8099 -47.65,93.1 -19.03,13.99 -42.4,22.01 -66.02,22.62 -34.25,1.14 -68.53,-13.84 -91.05,-39.65 -21.47,-24.27 -32.03,-57.73 -28.58,-89.9199 2.36,-16.75 7.47,-33.2401 16.4,-47.6901 2.71,-1.86 4.31,-4.72 5.22,-7.81 1.05,-1.51 2.06,-3.03 3.05,-4.57 C 896.12,984.34 907.83,973.82 921.57,966.5 Z" /></g></g></svg>