<?xml version="1.0" encoding="UTF-8" standalone="no"?>
<!-- Created with Inkscape (http://www.inkscape.org/) -->

<svg
   xmlns:dc="http://purl.org/dc/elements/1.1/"
   xmlns:cc="http://creativecommons.org/ns#"
   xmlns:rdf="http://www.w3.org/1999/02/22-rdf-syntax-ns#"
   xmlns:svg="http://www.w3.org/2000/svg"
   xmlns="http://www.w3.org/2000/svg"
   xmlns:sodipodi="http://sodipodi.sourceforge.net/DTD/sodipodi-0.dtd"
   xmlns:inkscape="http://www.inkscape.org/namespaces/inkscape"
   width="210mm"
   height="297mm"
   id="svg2"
   version="1.1"
   inkscape:version="0.48.2 r9819"
   sodipodi:docname="Gefuehle_lokalisiern.svg">
  <defs
     id="defs4">
    <inkscape:perspective
       sodipodi:type="inkscape:persp3d"
       inkscape:vp_x="0 : 526.18109 : 1"
       inkscape:vp_y="0 : 1000 : 0"
       inkscape:vp_z="744.09448 : 526.18109 : 1"
       inkscape:persp3d-origin="372.04724 : 350.78739 : 1"
       id="perspective10" />
    <inkscape:perspective
       id="perspective2824"
       inkscape:persp3d-origin="0.5 : 0.33333333 : 1"
       inkscape:vp_z="1 : 0.5 : 1"
       inkscape:vp_y="0 : 1000 : 0"
       inkscape:vp_x="0 : 0.5 : 1"
       sodipodi:type="inkscape:persp3d" />
    <inkscape:perspective
       id="perspective3616"
       inkscape:persp3d-origin="0.5 : 0.33333333 : 1"
       inkscape:vp_z="1 : 0.5 : 1"
       inkscape:vp_y="0 : 1000 : 0"
       inkscape:vp_x="0 : 0.5 : 1"
       sodipodi:type="inkscape:persp3d" />
    <inkscape:perspective
       id="perspective3052"
       inkscape:persp3d-origin="0.5 : 0.33333333 : 1"
       inkscape:vp_z="1 : 0.5 : 1"
       inkscape:vp_y="0 : 1000 : 0"
       inkscape:vp_x="0 : 0.5 : 1"
       sodipodi:type="inkscape:persp3d" />
  </defs>
  <sodipodi:namedview
     id="base"
     pagecolor="#ffffff"
     bordercolor="#666666"
     borderopacity="1.0"
     inkscape:pageopacity="0.0"
     inkscape:pageshadow="2"
     inkscape:zoom="0.66510359"
     inkscape:cx="3.0470401"
     inkscape:cy="370.86946"
     inkscape:document-units="px"
     inkscape:current-layer="layer1"
     showgrid="false"
     inkscape:window-width="1920"
     inkscape:window-height="1138"
     inkscape:window-x="-8"
     inkscape:window-y="-8"
     inkscape:window-maximized="1" />
  <metadata
     id="metadata7">
    <rdf:RDF>
      <cc:Work
         rdf:about="">
        <dc:format>image/svg+xml</dc:format>
        <dc:type
           rdf:resource="http://purl.org/dc/dcmitype/StillImage" />
        <dc:title />
      </cc:Work>
    </rdf:RDF>
  </metadata>
  <g
     inkscape:label="Ebene 1"
     inkscape:groupmode="layer"
     id="layer1">
    <g
       id="g3632"
       transform="matrix(1.2967723,0,0,1.2967723,31.569091,159.99857)">
      <path
         sodipodi:nodetypes="csssssssscccccsccssssccccscccsssssccsssssscssccccccssssssscscssccssssccccccsccscccsscsscccssssssscccc"
         id="path2830"
         d="m 110.67165,135.18086 c 15.73846,-2.90712 27.70636,-1.76989 27.85553,-20.29042 0.0154,-1.90777 -0.94832,-10.40096 -2.45734,-10.66221 -3.42099,-0.59224 -5.96393,-9.435622 -4.4978,-13.621877 0.71586,-2.043991 -0.3891,-2.301308 -0.70471,-4.415837 -0.3156,-2.114529 -0.51745,-4.210171 -0.54066,-6.246884 -0.0232,-2.036713 0.13222,-4.014497 0.53118,-5.893309 0.39895,-1.878813 1.04144,-3.658654 1.99233,-5.299482 0.9509,-1.640828 2.21021,-3.142642 3.84281,-4.465401 1.63261,-1.322758 3.63851,-2.466462 6.08259,-3.391067 7.83641,-4.106008 16.6356,-3.209786 23.19812,1.639833 7.53174,0.804219 11.97878,11.590587 9.16061,26.562676 3.5452,0.898997 0.6773,13.189388 -2.94601,15.505578 -1.80003,4.10435 -1.85375,6.41761 -4.46817,9.88192 -1.25415,3.72985 -0.20936,3.98913 0.13214,7.3491 1.07978,10.62381 18.18689,11.90653 30.14716,14.31786 20.07542,7.49836 15.61229,32.43074 14.05934,47.11034 0.38184,4.85837 1.52114,10.00596 2.58349,15.21354 1.06235,5.20757 1.40312,9.05694 1.99287,14.67099 0.35947,3.42187 4.90639,12.30318 7.67799,20.31303 2.77159,8.00985 2.453,27.04276 5.92201,33.90763 2.25647,4.46537 2.07896,10.04685 8.12866,14.30213 5.43993,4.68175 15.22926,23.76169 8.31077,22.65216 -17.13571,-22.28454 3.05496,13.17401 -2.1534,15.35235 -3.60447,-0.40479 -6.59367,-12.10883 -8.04127,-13.3064 -1.44759,-1.19756 2.23867,19.29194 -0.33872,18.78991 -3.13037,-0.60974 -3.45539,-11.97263 -5.27264,-17.7989 -1.48422,7.97786 -0.52131,13.91253 -3.92437,17.04568 -3.11446,-6.23025 -2.16132,-8.68372 -2.6136,-16.24942 -2.51406,4.62345 -1.73901,10.61849 -4.97309,12.3916 -0.52019,0.2852 -0.78172,-2.20052 -0.82006,-5.46263 -0.0383,-3.26211 0.0819,-7.68532 0.13117,-12.4292 0.0493,-4.74389 -0.72035,-4.48055 -0.6809,-8.42261 0.0719,-7.1861 -0.63645,-14.93003 -1.70914,-17.16549 -4.97987,-10.37795 -11.15695,-19.10775 -15.4756,-31.3084 -5.05242,-8.2189 -0.97618,-31.28361 -9.1527,-35.86102 -2.3672,18.67693 -4.65878,40.00136 0.6025,52.9399 8.12808,19.98857 7.27793,44.43186 5.55832,64.17276 -1.51368,17.37682 -4.66746,22.42213 -8.06267,39.77872 -0.74692,3.81832 -0.88478,8.29758 -0.69773,13.10599 0.18705,4.80841 -1.49275,9.94598 -0.94,15.08092 0.55275,5.13494 3.33804,10.26726 3.68821,15.06517 0.35018,4.79791 0.457,9.26141 0.0363,13.05872 -2.80429,19.48417 -9.39914,25.98741 -13.64905,43.66505 -0.59697,2.48311 -0.0787,7.13592 -0.0678,11.59771 0.0261,10.76009 3.4324,14.46814 4.93524,19.89155 0.30651,3.0854 -2.78807,6.65746 -3.68335,3.40685 -3.0071,2.4644 -3.28575,3.74689 -6.23737,1.42279 0.0162,-0.79287 -1.74816,6.15913 -4.61611,0.62863 -2.49509,2.70841 -4.03613,3.54953 -4.64158,-0.94796 -0.61834,2.62138 -5.40456,6.37941 -9.17982,0.87177 -0.74855,-4.40536 2.92277,-10.43237 4.28843,-14.12555 0.9054,-2.4485 0.68682,-7.46638 1.48037,-9.88345 0.79355,-2.41708 0.9016,-6.92862 1.49307,-9.04185 0.59146,-2.11322 1.53741,-6.72737 1.68606,-8.31822 0.62344,-6.67228 0.40132,-6.76916 0.73792,-14.08288 0.33659,-7.31373 -2.22768,-22.80468 -1.84062,-30.26976 0.38707,-7.46508 2.56513,-9.09605 2.33005,-16.28028 -0.23509,-7.18422 -1.07833,-12.18606 -2.60818,-18.65722 -2.00633,-8.12021 -1.40243,-16.68742 -2.25479,-27.0338 -1.00248,-12.1686 -5.05705,-35.60958 -7.0207,-45.10325 -3.87944,24.02507 -6.56746,39.58199 -7.68363,58.62415 -0.50915,8.68619 -2.32349,23.34737 -4.15802,31.71058 -1.24581,5.67937 0.59482,5.42207 0.75002,11.3863 3.57915,15.92427 -0.67211,28.02941 0.008,42.44653 0.58513,3.2949 0.80119,7.4613 1.59945,11.88898 0.79827,4.42767 2.33033,9.03935 2.5002,13.45661 0.19183,4.98812 1.39865,7.81255 2.10886,10.84443 0.71022,3.03187 0.66458,4.71571 1.07361,5.21901 1.29004,1.58737 2.08866,4.31674 1.83219,5.58037 -4.72116,8.44841 -9.05829,1.36817 -8.33946,0.88896 0.13089,0.71989 -2.22594,4.54069 -4.36231,0.31051 -3.01931,2.36997 -4.78064,1.45471 -5.80277,-0.85142 -0.91244,-0.93915 -2.76399,4.50235 -5.31074,-0.54937 -1.60024,0.47044 -6.03302,0.60061 -5.5634,-3.79936 4.77651,-8.37807 7.38026,-17.37901 6.13184,-27.72077 -1.10612,-9.1629 -4.64196,-18.51453 -8.23336,-26.20132 -10.16965,-19.96658 -4.15274,-32.47695 -0.61758,-48.39197 -3.02236,-12.27263 -1.23241,-26.27352 -3.0701,-29.32274 -4.74206,-7.86835 -6.75156,-20.09324 -7.23761,-34.693 -0.88375,-10.32973 -5.56679,-52.07373 5.87008,-72.64774 3.19392,-17.20187 1.24551,-36.06884 -0.0196,-53.49133 -1.63658,5.31976 -6.43589,11.23582 -6.55008,16.62371 -0.33535,15.82328 -1.12147,14.74665 -2.95146,20.21131 -3.65999,10.92933 -10.744821,22.70677 -15.791879,32.07229 -4.366465,7.0725 -1.43276,16.67006 -2.472518,24.76677 -1.015304,7.9063 1.076377,15.85922 -1.036491,20.03933 -1.85833,3.67654 -2.445021,-9.38653 -5.022059,-16.02303 -0.637099,36.78249 -5.465606,12.76563 -5.131436,1.95961 -7.570005,32.20383 -7.442218,17.40586 -6.307928,-0.92714 -3.494835,4.99242 -7.882357,13.9702 -8.412727,14.2981 -0.53037,0.3279 -1.351575,-2.80909 -0.824766,-4.93574 0.526809,-2.12666 6.29037,-16.4647 5.967071,-18.83596 -0.323299,-2.37127 -5.437212,8.90937 -8.517905,8.50346 -4.376349,-0.57662 6.802098,-16.47989 13.167427,-26.45427 6.39307,-10.01784 6.887117,-26.00294 8.179102,-36.46561 1.291014,-10.45482 7.196706,-16.0629 9.337942,-25.96897 1.184771,-5.48114 3.960731,-23.69674 5.105445,-32.41218 0.585467,-19.2879 -4.267682,-37.29307 17.471502,-46.79717 l -1.8e-4,0 -2e-5,0 z"
         style="fill:none;stroke:#000000;stroke-width:3;stroke-linecap:butt;stroke-linejoin:miter;stroke-miterlimit:4;stroke-opacity:1;stroke-dasharray:none" />
      <path
         sodipodi:nodetypes="csssssssscccccsccssssccccscccsssssccsssssscssssssssssscscssccssssssccscccsscsscccssssssscccc"
         id="path2830-1"
         d="m 414.44467,135.18086 c -15.73846,-2.90712 -27.70636,-1.76989 -27.85553,-20.29042 -0.0154,-1.90777 0.94832,-10.40096 2.45734,-10.66221 3.42099,-0.59224 5.96393,-9.435621 4.4978,-13.621881 -0.71586,-2.04399 0.3891,-2.30131 0.70471,-4.41584 0.3156,-2.11452 0.51745,-4.21017 0.54066,-6.24688 0.0232,-2.03671 -0.13222,-4.014497 -0.53118,-5.893309 -0.39895,-1.878813 -1.04144,-3.658654 -1.99233,-5.299482 -0.9509,-1.640828 -2.21021,-3.142642 -3.84281,-4.465401 -1.63261,-1.322758 -3.63851,-2.466462 -6.08259,-3.391067 -7.83641,-4.106008 -16.6356,-3.209786 -23.19812,1.639833 -7.53174,0.804219 -11.97878,11.590587 -9.16061,26.562676 -3.5452,0.899 -0.6773,13.189391 2.94601,15.505581 1.80003,4.10435 1.85375,6.41761 4.46817,9.88192 1.25415,3.72985 0.20936,3.98913 -0.13214,7.3491 -1.07978,10.62381 -18.18689,11.90653 -30.14716,14.31786 -20.07542,7.49836 -15.61229,32.43074 -14.05934,47.11034 -0.38184,4.85837 -1.52114,10.00596 -2.58349,15.21354 -1.06235,5.20757 -1.40312,9.05694 -1.99287,14.67099 -0.35947,3.42187 -4.90639,12.30318 -7.67799,20.31303 -2.77159,8.00985 -2.453,27.04276 -5.92201,33.90763 -2.25647,4.46537 -2.07896,10.04685 -8.12866,14.30213 -5.43993,4.68175 -15.22926,23.76169 -8.31077,22.65216 17.13571,-22.28454 -3.05496,13.17401 2.1534,15.35235 3.60447,-0.40479 6.59367,-12.10883 8.04127,-13.3064 1.44759,-1.19756 -2.23867,19.29194 0.33872,18.78991 3.13037,-0.60974 3.45539,-11.97263 5.27264,-17.7989 1.48422,7.97786 0.52131,13.91253 3.92437,17.04568 3.11446,-6.23025 2.16132,-8.68372 2.6136,-16.24942 2.51406,4.62345 1.73901,10.61849 4.97309,12.3916 0.52019,0.2852 0.78172,-2.20052 0.82006,-5.46263 0.0383,-3.26211 -0.0819,-7.68532 -0.13117,-12.4292 -0.0493,-4.74389 0.72035,-4.48055 0.6809,-8.42261 -0.0719,-7.1861 0.63645,-14.93003 1.70914,-17.16549 4.97987,-10.37795 11.15695,-19.10775 15.4756,-31.3084 5.05242,-8.2189 0.97618,-31.28361 9.1527,-35.86102 2.3672,18.67693 4.65878,40.00136 -0.6025,52.9399 -8.12808,19.98857 -7.27793,44.43186 -5.55832,64.17276 1.51368,17.37682 4.66746,22.42213 8.06267,39.77872 0.74692,3.81832 0.88478,8.29758 0.69773,13.10599 -0.18705,4.80841 1.49275,9.94598 0.94,15.08092 -0.55275,5.13494 -3.33804,10.26726 -3.68821,15.06517 -0.35018,4.79791 -0.457,9.26141 -0.0363,13.05872 2.80429,19.48417 9.39914,25.98741 13.64905,43.66505 0.59697,2.48311 0.0787,7.13592 0.0678,11.59771 -0.0261,10.76009 -10.17592,16.78198 -0.33069,21.04269 4.00793,1.7345 12.9344,3.93249 19.80692,-0.37361 3.61209,-2.26322 1.84623,-6.65006 -0.34167,-9.521 -1.58233,-2.07632 -0.68682,-7.46638 -1.48037,-9.88345 -0.79355,-2.41708 -0.9016,-6.92862 -1.49307,-9.04185 -0.59146,-2.11322 -1.53741,-6.72737 -1.68606,-8.31822 -0.62344,-6.67228 -0.40132,-6.76916 -0.73792,-14.08288 -0.33659,-7.31373 2.22768,-22.80468 1.84062,-30.26976 -0.38707,-7.46508 -2.56513,-9.09605 -2.33005,-16.28028 0.23509,-7.18422 1.07833,-12.18606 2.60818,-18.65722 2.00633,-8.12021 1.40243,-16.68742 2.25479,-27.0338 1.00248,-12.1686 5.05705,-35.60958 7.0207,-45.10325 3.87944,24.02507 6.56746,39.58199 7.68363,58.62415 0.50915,8.68619 2.32349,23.34737 4.15802,31.71058 1.24581,5.67937 -0.59482,5.42207 -0.75002,11.3863 -3.57915,15.92427 0.67211,28.02941 -0.008,42.44653 -0.58513,3.2949 -0.80119,7.4613 -1.59945,11.88898 -0.79827,4.42767 -2.33033,9.03935 -2.5002,13.45661 -0.19183,4.98812 -1.39865,7.81255 -2.10886,10.84443 -0.71022,3.03187 -2.51614,5.22825 -0.41582,7.19238 5.50484,5.14789 25.66157,0.71873 26.8887,-3.68264 1.72473,-6.18612 -3.59795,-2.41424 -6.13184,-24.43181 -1.0552,-9.1689 4.64196,-18.51453 8.23336,-26.20132 10.16965,-19.96658 4.15274,-32.47695 0.61758,-48.39197 3.02236,-12.27263 1.23241,-26.27352 3.0701,-29.32274 4.74206,-7.86835 6.75156,-20.09324 7.23761,-34.693 0.88375,-10.32973 5.56679,-52.07373 -5.87008,-72.64774 -3.19392,-17.20187 -1.24551,-36.06884 0.0196,-53.49133 1.63658,5.31976 6.43589,11.23582 6.55008,16.62371 0.33535,15.82328 1.12147,14.74665 2.95146,20.21131 3.65999,10.92933 10.74482,22.70677 15.79188,32.07229 4.36646,7.0725 1.43276,16.67006 2.47252,24.76677 1.0153,7.9063 -1.07638,15.85922 1.03649,20.03933 1.85833,3.67654 2.44502,-9.38653 5.02206,-16.02303 0.6371,36.78249 5.4656,12.76563 5.13143,1.95961 7.57001,32.20383 7.44222,17.40586 6.30793,-0.92714 3.49484,4.99242 7.88236,13.9702 8.41273,14.2981 0.53037,0.3279 1.35157,-2.80909 0.82476,-4.93574 -0.52681,-2.12666 -6.29037,-16.4647 -5.96707,-18.83596 0.3233,-2.37127 5.43721,8.90937 8.51791,8.50346 4.37635,-0.57662 -6.8021,-16.47989 -13.16743,-26.45427 -6.39307,-10.01784 -6.88712,-26.00294 -8.1791,-36.46561 -1.29102,-10.45482 -7.19671,-16.0629 -9.33794,-25.96897 -1.18477,-5.48114 -3.96073,-23.69674 -5.10545,-32.41218 -0.58547,-19.2879 4.26768,-37.29307 -17.4715,-46.79717 l 1.8e-4,0 2e-5,0 z"
         style="fill:none;stroke:#000000;stroke-width:3;stroke-linecap:butt;stroke-linejoin:miter;stroke-miterlimit:4;stroke-opacity:1;stroke-dasharray:none" />
      <path
         sodipodi:nodetypes="cc"
         id="path3630"
         d="m 138.7002,112.65894 c 15.59908,22.92876 29.1308,2.25529 29.1308,2.25529"
         style="fill:none;stroke:#000000;stroke-width:3;stroke-linecap:butt;stroke-linejoin:miter;stroke-miterlimit:4;stroke-opacity:1;stroke-dasharray:none" />
    </g>
    <text
       xml:space="preserve"
       style="font-size:12px;font-style:normal;font-weight:normal;fill:#000000;fill-opacity:1;stroke:none;font-family:Bitstream Vera Sans"
       x="321.23474"
       y="1030.1129"
       id="text8455"><tspan
         sodipodi:role="line"
         id="tspan8457"
         x="321.23474"
         y="1030.1129">www.matameko.de</tspan></text>
  </g>
</svg>
