<?xml version="1.0" encoding="UTF-8" standalone="no"?>
<!-- Generator: Adobe Illustrator 15.1.0, SVG Export Plug-In . SVG Version: 6.00 Build 0)  -->

<svg
   xmlns:dc="http://purl.org/dc/elements/1.1/"
   xmlns:cc="http://creativecommons.org/ns#"
   xmlns:rdf="http://www.w3.org/1999/02/22-rdf-syntax-ns#"
   xmlns:svg="http://www.w3.org/2000/svg"
   xmlns="http://www.w3.org/2000/svg"
   xmlns:sodipodi="http://sodipodi.sourceforge.net/DTD/sodipodi-0.dtd"
   xmlns:inkscape="http://www.inkscape.org/namespaces/inkscape"
   id="Capa_1"
   enable-background="new 0 0 301 287"
   xml:space="preserve"
   viewBox="0 0 301 287"
   version="1.1"
   y="0px"
   x="0px"
   sodipodi:docname="MatchBox.svg"
   inkscape:version="0.92.2 (5c3e80d, 2017-08-06)"><defs
     id="defs8205" /><sodipodi:namedview
     pagecolor="#ffffff"
     bordercolor="#666666"
     borderopacity="1"
     objecttolerance="10"
     gridtolerance="10"
     guidetolerance="10"
     inkscape:pageopacity="0"
     inkscape:pageshadow="2"
     inkscape:window-width="1618"
     inkscape:window-height="1028"
     id="namedview8203"
     showgrid="false"
     inkscape:zoom="1.1629073"
     inkscape:cx="261.87401"
     inkscape:cy="82.307711"
     inkscape:window-x="1734"
     inkscape:window-y="-8"
     inkscape:window-maximized="1"
     inkscape:current-layer="Capa_1" /><title
     id="title8113">imagebot_2</title><metadata
     id="metadata8200"><rdf:RDF><cc:Work><dc:format>image/svg+xml</dc:format><dc:type
           rdf:resource="http://purl.org/dc/dcmitype/StillImage" /><cc:license
           rdf:resource="http://creativecommons.org/publicdomain/zero/1.0/" /><dc:publisher><cc:Agent
             rdf:about="http://openclipart.org/"><dc:title>Openclipart</dc:title></cc:Agent></dc:publisher><dc:title>imagebot_2</dc:title><dc:date>2013-02-25T09:11:06</dc:date><dc:description /><dc:source>https://openclipart.org/detail/175312/condimentero-by-andreadeaurre-175312</dc:source><dc:creator><cc:Agent><dc:title>andreadeaurre</dc:title></cc:Agent></dc:creator><dc:subject><rdf:Bag><rdf:li>condimentero</rdf:li><rdf:li>condimento</rdf:li><rdf:li>pepper</rdf:li><rdf:li>pimienta</rdf:li><rdf:li>sal</rdf:li><rdf:li>salt</rdf:li><rdf:li>saltcellar</rdf:li></rdf:Bag></dc:subject></cc:Work><cc:License
         rdf:about="http://creativecommons.org/publicdomain/zero/1.0/"><cc:permits
           rdf:resource="http://creativecommons.org/ns#Reproduction" /><cc:permits
           rdf:resource="http://creativecommons.org/ns#Distribution" /><cc:permits
           rdf:resource="http://creativecommons.org/ns#DerivativeWorks" /></cc:License></rdf:RDF></metadata><g
     id="g9334"
     transform="translate(-368.903,-47.295257)"
     inkscape:export-filename="D:\MatamekoWiki\mtameko.git\images\MatchBox.png"
     inkscape:export-xdpi="40"
     inkscape:export-ydpi="40"><g
       transform="matrix(0.77122985,0,0,0.77122985,313.09636,30.823084)"
       id="outlines"><path
         id="path8750"
         d="m 343.32,60.2 c 0.838,0.165 1.571,0.506 2.2,1.025 l 110.45,66.6 c 0.834,0.504 1.467,1.196 1.9,2.075 0.439,0.88 0.607,1.805 0.5,2.775 l -5.6,48.65 c -0.09,0.744 -0.34,1.435 -0.75,2.075 -0.41,0.646 -0.936,1.17 -1.575,1.575 l -48.425,30.4 -0.075,1.275 c -0.048,0.809 -0.281,1.566 -0.7,2.275 -0.414,0.699 -0.964,1.266 -1.65,1.699 l -187.89,118.14 c -0.861,0.734 -1.869,1.127 -3.025,1.175 -1.333,0.048 -2.5,-0.378 -3.5,-1.274 L 97.88,242.614 c -0.983,-0.885 -1.533,-1.984 -1.65,-3.3 l -4.6,-52.95 c -0.089,-1.013 0.111,-1.963 0.6,-2.85 0.495,-0.884 1.194,-1.559 2.1,-2.025 l 188.45,-96.45 c 0.795,-0.412 1.637,-0.595 2.525,-0.55 0.896,0.046 1.721,0.313 2.475,0.8 l 2.975,1.925 49.22,-26.545 c 1.06,-0.566 2.17,-0.732 3.34,-0.5 z"
         inkscape:connector-curvature="0"
         style="clip-rule:evenodd;fill:#333333;fill-rule:evenodd" /></g><polygon
       transform="matrix(0.77122985,0,0,0.77122985,313.09636,30.823084)"
       style="clip-rule:evenodd;fill:#e9dfd1;fill-opacity:1;fill-rule:evenodd"
       points="208.5,334.95 101.2,238.9 96.6,185.95 285.05,89.5 290.5,93.05 342.35,65.1 342.35,65.15 453.4,132.1 447.8,180.75 397.15,212.55 396.95,216.4 208.5,334.9 "
       id="polygon8753" /><path
       sodipodi:nodetypes="ccccccccccccccccccccccccccccccccccccc"
       style="clip-rule:evenodd;fill:none;fill-rule:evenodd;stroke:#333333;stroke-width:0.77100003;stroke-linecap:round;stroke-linejoin:round;stroke-miterlimit:3;stroke-dasharray:none"
       inkscape:connector-curvature="0"
       d="m 619.38953,194.74878 -0.15425,2.96923 -145.33826,91.39074 v 0.0386 l -82.75297,-74.07663 -3.54765,-40.83662 145.33826,-74.385116 4.20243,2.737866 m 0,3e-5 8.05935,5.24436 m 42.87885,27.95712 16.19813,10.52641 m -16.19967,-10.52641 -0.77123,-0.53986 -7.86732,-5.12868 -0.92547,-0.57842 -8.33006,-5.43717 -0.0378,-0.0386 -8.17503,-5.32149 -6.44054,-4.2032 -1.88875,-1.23397 -8.44496,-5.47573 m -157.59774,66.40289 30.50214,25.41203 54.1789,45.1555 148.69312,-87.61171 -4.12686,-2.66074 -6.78605,-4.43457 -5.78422,-3.77903 m 16.61923,12.72531 -1.50313,35.70872 m 1.58103,-37.5589 -0.0779,1.85096 m -229.74702,56.02988 26.95449,-15.42459 m 54.17889,45.1555 1.61959,44.30716"
       stroke-miterlimit="3"
       id="path8759" /><path
       inkscape:connector-curvature="0"
       id="path8842"
       d="m 662.77198,132.70254 -41.88087,26.33838"
       style="fill:none;stroke:#333333;stroke-width:0.77100003;stroke-linecap:butt;stroke-linejoin:miter;stroke-miterlimit:4;stroke-dasharray:none;stroke-opacity:1" /><path
       sodipodi:nodetypes="ccc"
       inkscape:connector-curvature="0"
       id="path8842-6"
       d="m 577.1269,81.030144 -0.12738,36.843756 -8.48904,4.93464"
       style="fill:none;stroke:#333333;stroke-width:0.68669498;stroke-linecap:butt;stroke-linejoin:miter;stroke-miterlimit:4;stroke-dasharray:none;stroke-opacity:1" /><path
       sodipodi:nodetypes="cc"
       inkscape:connector-curvature="0"
       id="path8859"
       d="m 576.99952,117.8739 55.4116,34.07854"
       style="fill:none;stroke:#333333;stroke-width:0.77100003;stroke-linecap:butt;stroke-linejoin:miter;stroke-miterlimit:4;stroke-dasharray:none;stroke-opacity:1" /><path
       sodipodi:nodetypes="ccccc"
       inkscape:connector-curvature="0"
       id="rect9071-5"
       d="M 387.59485,174.23413 532.93466,99.848984 620.32407,157.08325 472.27589,244.80166 Z"
       style="fill:#fffff5;fill-opacity:1;stroke:#333333;stroke-width:1;stroke-linecap:round;stroke-miterlimit:4;stroke-dasharray:none;stroke-opacity:1" /><path
       sodipodi:nodetypes="ccccc"
       inkscape:connector-curvature="0"
       id="rect9071"
       d="m 391.9715,174.39664 141.07065,-72.18289 83.87973,54.57098 -144.19257,85.45218 z"
       style="fill:#ffcc00;fill-opacity:1;stroke:#333333;stroke-width:1;stroke-linecap:round;stroke-miterlimit:4;stroke-dasharray:none;stroke-opacity:1" /><path
       sodipodi:nodetypes="ccccc"
       id="path8756-1"
       d="m 619.23605,197.71722 -145.33827,91.39074 -1.62031,-44.30547 148.20784,-87.12805 z"
       inkscape:connector-curvature="0"
       style="clip-rule:evenodd;fill:#fffffe;fill-opacity:1;fill-rule:evenodd;stroke:#333333;stroke-width:0.77100003;stroke-miterlimit:4;stroke-dasharray:none;stroke-opacity:1" /><g
       style="fill:#784421;fill-opacity:1;stroke:#333333;stroke-width:0.99970198;stroke-miterlimit:4;stroke-dasharray:none;stroke-opacity:1"
       transform="matrix(0.77122985,0,0,0.77122985,313.40313,30.68265)"
       id="grey_x5F_lines"><path
         sodipodi:nodetypes="ccccc"
         id="path8756"
         d="m 394.6,215.05 -184.47718,116.01812 -1.9,-51.91969 187.81968,-110.68937 z"
         inkscape:connector-curvature="0"
         style="clip-rule:evenodd;fill:#784421;fill-opacity:1;fill-rule:evenodd;stroke:#333333;stroke-width:0.99970198;stroke-miterlimit:4;stroke-dasharray:none;stroke-opacity:1" /></g><path
       inkscape:connector-curvature="0"
       id="path3478"
       inkscape:transform-center-x="-14"
       inkscape:transform-center-y="32"
       style="fill:#784421;stroke-width:0.41950259"
       d="m 449.41926,171.48714 c 9.57574,7.6893 14.203,19.37049 10.33582,26.08519 -3.88548,6.72159 -14.76368,5.91936 -24.35198,-1.77 -9.5867,-7.68516 -14.20299,-19.37051 -10.33947,-26.0838 3.86353,-6.71332 14.77832,-5.92491 24.35563,1.76861 z" /><path
       inkscape:connector-curvature="0"
       id="path3480"
       style="fill:#784421;stroke-width:0.41950259"
       d="m 533.82324,176.38956 c 3.47681,-4.04833 7.85475,-5.59408 9.80409,-3.45179 1.94933,2.14228 0.73544,7.1632 -2.74033,11.20715 -3.47683,4.04832 -7.85477,5.59408 -9.80409,3.4518 -1.94933,-2.14228 -0.73544,-7.16321 2.74033,-11.20716 z" /><path
       inkscape:connector-curvature="0"
       id="path3484"
       style="fill:#784421;stroke-width:0.41950259"
       d="m 557.10012,154.62654 c -0.0264,-7.54001 4.92694,-13.15918 11.06166,-12.55397 6.13632,0.60941 11.1257,7.21049 11.14848,14.75188 0.0228,7.54139 -4.93059,13.16055 -11.06691,12.55113 -6.13107,-0.60659 -11.12204,-7.21187 -11.14323,-14.74904 z" /><path
       inkscape:connector-curvature="0"
       id="path3488"
       style="fill:#784421;stroke-width:0.41950259"
       d="m 536.43619,125.72303 c -1.89749,-5.03096 -0.92364,-10.0629 2.17597,-11.23196 3.09961,-1.16906 7.15394,1.96644 9.05144,6.9974 1.89908,5.03517 0.92521,10.06711 -2.1744,11.23617 -3.09961,1.16906 -7.15392,-1.96643 -9.05301,-7.00161 z" /><path
       inkscape:connector-curvature="0"
       id="path3490"
       style="fill:#784421;stroke-width:0.41950259"
       d="m 496.05942,170.31788 c -2.03293,-4.97988 -0.36498,-10.32171 3.73133,-11.9292 4.09634,-1.60746 9.06635,1.12973 11.1029,6.10824 2.03452,4.9841 0.36657,10.32593 -3.72974,11.93342 -4.09634,1.60746 -9.06635,-1.12973 -11.10449,-6.11246 z" /><path
       inkscape:connector-curvature="0"
       id="path3494"
       style="fill:#784421;stroke-width:0.41950259"
       d="m 487.04185,193.49578 c 7.67205,-0.44847 14.17785,4.05677 14.52865,10.05796 0.35103,6.00511 -5.58577,11.23376 -13.25783,11.68223 -7.67655,0.44874 -14.18213,-4.0526 -14.53315,-10.05769 -0.3508,-6.0012 5.58578,-11.23377 13.26233,-11.6825 z" /><path
       inkscape:connector-curvature="0"
       id="path3496"
       style="fill:#784421;stroke-width:0.41950259"
       d="m 468.70382,155.48375 c -2.03293,-4.97988 -0.36498,-10.3217 3.73133,-11.92919 4.09632,-1.60746 9.06635,1.12973 11.1029,6.10824 2.03452,4.9841 0.36656,10.32591 -3.72976,11.93342 -4.09632,1.60746 -9.06633,-1.12973 -11.10447,-6.11247 z" /><path
       inkscape:connector-curvature="0"
       id="path3462"
       style="fill:#784421;stroke-width:0.41950259"
       d="m 521.73707,126.7643 c 8.70559,3.03214 14.68196,9.72515 13.35178,14.94282 -1.32979,5.21792 -9.46351,6.98572 -18.16911,3.95357 -8.70362,-3.03551 -14.68196,-9.72514 -13.3498,-14.9462 1.32979,-5.21791 9.4635,-6.98571 18.16713,-3.95019 z" /></g></svg>