<?xml version="1.0" encoding="UTF-8" standalone="no"?>
<!-- Created with Inkscape (http://www.inkscape.org/) -->

<svg
   xmlns:dc="http://purl.org/dc/elements/1.1/"
   xmlns:cc="http://creativecommons.org/ns#"
   xmlns:rdf="http://www.w3.org/1999/02/22-rdf-syntax-ns#"
   xmlns:svg="http://www.w3.org/2000/svg"
   xmlns="http://www.w3.org/2000/svg"
   xmlns:sodipodi="http://sodipodi.sourceforge.net/DTD/sodipodi-0.dtd"
   xmlns:inkscape="http://www.inkscape.org/namespaces/inkscape"
   width="210mm"
   height="297mm"
   viewBox="0 0 210 297"
   version="1.1"
   id="svg8"
   inkscape:version="0.92.2 (5c3e80d, 2017-08-06)"
   sodipodi:docname="Naehe-Distanz.svg">
  <defs
     id="defs2" />
  <sodipodi:namedview
     id="base"
     pagecolor="#ffffff"
     bordercolor="#666666"
     borderopacity="1.0"
     inkscape:pageopacity="0.0"
     inkscape:pageshadow="2"
     inkscape:zoom="1.979899"
     inkscape:cx="166.72763"
     inkscape:cy="935.92928"
     inkscape:document-units="mm"
     inkscape:current-layer="layer1"
     showgrid="false"
     inkscape:window-width="1618"
     inkscape:window-height="1028"
     inkscape:window-x="1734"
     inkscape:window-y="-8"
     inkscape:window-maximized="1" />
  <metadata
     id="metadata5">
    <rdf:RDF>
      <cc:Work
         rdf:about="">
        <dc:format>image/svg+xml</dc:format>
        <dc:type
           rdf:resource="http://purl.org/dc/dcmitype/StillImage" />
        <dc:title></dc:title>
      </cc:Work>
    </rdf:RDF>
  </metadata>
  <g
     inkscape:label="Layer 1"
     inkscape:groupmode="layer"
     id="layer1">
    <g
       id="g1579">
      <rect
         y="43.96843"
         x="55.927422"
         height="1.7634846"
         width="14.616048"
         id="rect1153-1-0"
         style="fill:#ffcc00;fill-opacity:1;stroke:#000000;stroke-width:0.40000001;stroke-linecap:round;stroke-miterlimit:4;stroke-dasharray:none;stroke-opacity:1" />
      <rect
         y="43.242634"
         x="45.908485"
         height="3.2150731"
         width="14.616048"
         id="rect1153-1"
         style="fill:#784421;fill-opacity:1;stroke:#000000;stroke-width:0.40000001;stroke-linecap:round;stroke-miterlimit:4;stroke-dasharray:none;stroke-opacity:1" />
      <rect
         y="42.289192"
         x="28.411907"
         height="5.1219592"
         width="19.885628"
         id="rect1153"
         style="fill:#ffcc00;fill-opacity:1;stroke:#000000;stroke-width:0.4;stroke-linecap:round;stroke-miterlimit:4;stroke-dasharray:none;stroke-opacity:1" />
      <path
         inkscape:connector-curvature="0"
         id="path3584"
         sodipodi:nodetypes="ccsccccczscc"
         style="fill:#ffcc00;stroke:#000000;stroke-width:0.39120811;stroke-linecap:round;stroke-linejoin:round"
         d="m 22.096486,34.529024 c 6.055765,0 10.966182,4.910693 10.964123,10.966183 0.0017,6.056176 -4.908358,10.966181 -10.964123,10.966181 -6.056176,0 -10.964123,-4.910005 -10.962064,-10.966181 0,-0.846931 0.0954,-1.66984 0.276592,-2.461864 -0.104323,-0.201783 -0.182564,0.06383 -0.604657,0.484546 -0.401503,1.475612 -1.0610666,2.996518 -1.7844585,7.96143 -0.9457627,1.437174 -0.33287,-0.205211 -0.2875722,-0.877131 -0.012353,-2.733652 1.6554277,-8.218114 2.2518487,-9.333401 0.612207,-1.144798 2.804345,-3.294384 4.22093,-4.30329 0.0034,-0.0021 0.0062,-0.0041 0.0089,-0.0062 1.881231,-1.518849 4.274464,-2.430296 6.880459,-2.430296 z" />
      <path
         inkscape:connector-curvature="0"
         id="path3586"
         style="fill:#784421;stroke:#000000;stroke-width:0.31838164;stroke-linecap:round;stroke-linejoin:round"
         d="m 17.430815,56.805241 c 0,0.740549 -1.194215,0.763885 -2.666393,0.763885 -1.471491,0 -2.666392,0.05628 -2.666392,-0.763885 0,-1.443352 1.194901,-2.614231 2.666392,-2.614231 1.472178,0 2.666393,1.170879 2.666393,2.614231 z" />
      <path
         inkscape:connector-curvature="0"
         id="path3588"
         style="fill:#784421;stroke:#000000;stroke-width:0.31838164;stroke-linecap:round;stroke-linejoin:round"
         d="m 26.849322,56.77367 c 0,0.740549 1.194489,0.763884 2.666323,0.763884 1.471835,0 2.666324,0.05628 2.666324,-0.763884 0,-1.443353 -1.194489,-2.614232 -2.666324,-2.614232 -1.471834,0 -2.666323,1.170879 -2.666323,2.614232 z" />
      <path
         inkscape:connector-curvature="0"
         id="path3590"
         sodipodi:nodetypes="cccc"
         style="fill:#ffcc00;fill-rule:evenodd;stroke:#000000;stroke-width:0.38566259;stroke-linecap:round;stroke-linejoin:round"
         d="M 31.630228,40.135657 C 29.579268,35.728045 29.89848,24.507235 29.89848,24.507235 l -4.873424,-1.515007 c 0,0 1.615622,8.152229 -0.476999,12.636023" />
      <path
         inkscape:connector-curvature="0"
         id="path3592"
         sodipodi:nodetypes="csscccccccz"
         style="fill:#784421;fill-rule:evenodd;stroke:#000000;stroke-width:0.13726601;stroke-linejoin:round"
         d="m 8.5826474,50.992025 c 0.3740498,-0.05971 0.5566137,-0.0158 0.7185874,0.229235 0.2292345,0.347282 -0.2203118,1.214118 -0.6382869,1.8476 -0.2319794,0.352086 -0.092654,0.85448 -0.092654,0.85448 l -0.161974,-0.692506 -0.2566876,0.31022 0.049416,-0.633482 -0.6183832,0.853796 0.341106,-0.969787 -0.4317015,0.220314 c 0.052161,-0.381601 0.7165286,-1.959474 1.0905778,-2.01987 z" />
      <path
         inkscape:connector-curvature="0"
         id="path3594"
         sodipodi:nodetypes="czzccccss"
         style="fill:#ffcc00;stroke:#000000;stroke-width:0.30935642;stroke-linecap:round;stroke-linejoin:round"
         d="m 24.994172,23.156537 c -1.257357,-1.500592 -1.308832,-3.179973 -1.459138,-4.071929 -0.14962,-0.891953 -0.04873,-1.391945 0.165406,-2.361593 0.214135,-0.969647 0.873698,-2.659665 2.288224,-3.541188 1.010964,-0.853863 2.153841,-0.99408 3.532129,-0.706988 0.494569,0.131981 1.802371,0.595254 2.184863,0.918241 0.757297,0.467665 1.542664,1.320636 2.182324,2.262557 1.999485,3.207768 2.677854,7.20921 1.432302,8.712959 -0.637834,0.770061 -4.329988,1.142054 -5.432577,0.93478" />
      <path
         inkscape:connector-curvature="0"
         id="path3596"
         style="fill:#ffcc00;fill-rule:evenodd;stroke:#000000;stroke-width:0.32665193;stroke-linecap:round"
         inkscape:transform-center-y="9.8994949"
         d="m 32.237905,14.066575 c -0.472744,-0.856814 0.502325,-1.890907 0.502325,-1.890907 l -1.447813,-0.354559 c 0,0 0.20686,1.299978 -0.56135,1.772722" />
      <path
         inkscape:connector-curvature="0"
         id="path3598"
         style="fill:#784421;stroke:#000000;stroke-width:0.32665193;stroke-linecap:round;stroke-linejoin:round"
         d="m 31.150072,11.062783 c 0,0.709803 0.575419,1.285222 1.285222,1.285222 0.709802,0 1.285221,-0.575419 1.285221,-1.285222 0,-0.709802 -0.575419,-1.28529 -1.285221,-1.28529 -0.709803,0 -1.285222,0.575488 -1.285222,1.28529 z" />
      <path
         inkscape:connector-curvature="0"
         id="path3602"
         style="fill:#ffffff;stroke:#000000;stroke-width:0.30673462;stroke-linecap:round;stroke-linejoin:round"
         d="m 30.809584,18.327107 c 0.519757,0.91426 1.587961,1.287622 2.385546,0.833822 0.797652,-0.453733 1.022494,-1.562705 0.502256,-2.47669 -0.519827,-0.914261 -1.588031,-1.287624 -2.385615,-0.833891 -0.797584,0.453758 -1.022494,1.562773 -0.502187,2.476759 z" />
      <path
         inkscape:connector-curvature="0"
         id="path3604"
         style="fill:#000000;stroke-width:0.06863301"
         d="m 32.259181,17.889022 c 0.173299,0.30473 0.529367,0.429162 0.795182,0.277963 0.265884,-0.151267 0.340832,-0.520923 0.167396,-0.825586 -0.17323,-0.304798 -0.529298,-0.42923 -0.795182,-0.277963 -0.265884,0.151267 -0.340831,0.520925 -0.167396,0.825586 z" />
      <path
         inkscape:connector-curvature="0"
         id="path3612"
         sodipodi:nodetypes="ccc"
         style="fill:none;stroke:#000000;stroke-width:0.39120811;stroke-linecap:round"
         d="m 29.8317,13.886483 c -1.286045,-1.358866 -1.455911,0.291209 -1.650074,1.213292 0.490383,1.566688 1.166418,2.433316 1.941284,0.339735" />
      <path
         inkscape:connector-curvature="0"
         id="path3614"
         sodipodi:nodetypes="ccc"
         style="fill:#d4aa00;fill-rule:evenodd;stroke:#000000;stroke-width:0.20589902;stroke-linecap:round"
         d="m 29.768833,14.511592 c -0.807399,-1.038967 -0.991885,0.101302 -1.091746,0.575831 0.486677,1.032857 0.777063,0.978157 1.096001,-0.01927" />
      <path
         inkscape:connector-curvature="0"
         id="path3620"
         sodipodi:nodetypes="cssscc"
         style="fill:#784421;stroke-width:0.06863301"
         d="m 11.336204,46.254976 c 0.0453,0.863403 0.155796,1.560713 0.241588,1.560713 0.20384,0 0.497589,-0.682213 0.497589,-1.560713 0,-0.879191 -0.423466,-1.67602 -0.627992,-1.67602 -0.20384,0 -0.111185,1.304714 -0.111185,1.67602 z" />
      <path
         inkscape:connector-curvature="0"
         id="path3687"
         style="fill:#784421;stroke-width:0.06863301"
         d="m 18.999765,40.778746 c -0.57034,1.024007 -1.78034,1.438549 -2.702768,0.925175 -0.921741,-0.513377 -1.206568,-1.760439 -0.636228,-2.784442 0.57034,-1.024691 1.78034,-1.438549 2.702082,-0.925172 0.922427,0.513374 1.207254,1.759748 0.636914,2.784439 z" />
      <path
         inkscape:connector-curvature="0"
         id="path3715"
         style="fill:#784421;stroke-width:0.06863301"
         d="m 20.452726,45.230969 c 0.02608,0.820165 -0.579263,1.492769 -1.351384,1.501692 -0.772122,0.0089 -1.418645,-0.649268 -1.444039,-1.469433 -0.02608,-0.820851 0.579263,-1.493456 1.351384,-1.502376 0.772122,-0.0089 1.418645,0.649268 1.444039,1.470117 z" />
      <path
         inkscape:connector-curvature="0"
         id="path3717"
         style="fill:#784421;stroke-width:0.06863301"
         d="m 14.983361,51.95426 c -0.568967,-0.590932 -0.643091,-1.443352 -0.164719,-1.904566 0.478372,-0.461214 1.328049,-0.355519 1.897703,0.235411 0.569654,0.590929 0.643091,1.444037 0.164719,1.905251 -0.478372,0.460529 -1.328049,0.355519 -1.897703,-0.236096 z" />
      <path
         inkscape:connector-curvature="0"
         id="path3719"
         style="fill:#784421;stroke-width:0.06863301"
         d="m 27.281023,28.300581 c 0,1.172251 -0.412484,2.122818 -0.921054,2.122818 -0.508571,0 -0.921055,-0.950567 -0.921055,-2.122818 0,-1.172938 0.412484,-2.123506 0.921055,-2.123506 0.50857,0 0.921054,0.950568 0.921054,2.123506 z" />
      <path
         inkscape:connector-curvature="0"
         id="path3748"
         style="fill:#784421;stroke-width:0.06863301"
         d="m 27.334557,40.852185 c -0.450919,-1.082343 -0.260805,-2.191453 0.424495,-2.476967 0.685507,-0.285512 1.606768,0.360325 2.057686,1.442668 0.450851,1.082343 0.260669,2.19145 -0.424838,2.476965 -0.685506,0.285514 -1.606767,-0.360323 -2.057343,-1.442666 z" />
      <path
         inkscape:connector-curvature="0"
         id="path3754"
         style="fill:#784421;stroke-width:0.06863301"
         d="m 27.210331,33.171466 c 0.0096,1.172251 0.604108,2.118014 1.327157,2.111838 0.723049,-0.0062 1.301144,-0.961551 1.291193,-2.133802 -0.0099,-1.172938 -0.604108,-2.118701 -1.327157,-2.112522 -0.723049,0.0062 -1.300801,0.961547 -1.291193,2.134486 z" />
      <path
         inkscape:connector-curvature="0"
         id="path3756"
         style="fill:#784421;stroke-width:0.06863301"
         d="m 25.252232,15.22414 c -0.201095,0.602164 -0.08442,1.183301 0.259433,1.297987 0.343851,0.11472 0.785847,-0.280456 0.986256,-0.88262 0.201095,-0.602187 0.0851,-1.183302 -0.259433,-1.298056 -0.343851,-0.114686 -0.785848,0.280503 -0.986256,0.882689 z" />
      <path
         inkscape:connector-curvature="0"
         id="path3758"
         style="fill:#784421;stroke-width:0.06863301"
         d="m 25.354495,20.662001 c 0,0.995934 0.654072,1.803333 1.459824,1.803333 0.806438,0 1.46003,-0.807399 1.46003,-1.803333 0,-0.995934 -0.653592,-1.803333 -1.46003,-1.803333 -0.805752,0 -1.459824,0.807399 -1.459824,1.803333 z" />
      <path
         inkscape:connector-curvature="0"
         id="path3760"
         style="fill:#784421;stroke-width:0.06863301"
         d="m 28.726091,51.756597 c -0.485715,0.685642 -1.202793,1.012336 -1.601551,0.730254 -0.398758,-0.282767 -0.328066,-1.067243 0.157856,-1.753572 0.485716,-0.685645 1.202656,-1.012336 1.601345,-0.730257 0.39869,0.28277 0.328066,1.067244 -0.15765,1.753575 z" />
      <path
         inkscape:connector-curvature="0"
         id="path3762"
         style="fill:#784421;stroke-width:0.06863301"
         d="m 24.750525,49.101186 c 0,1.172938 -0.855168,2.122818 -1.910743,2.122818 -1.05489,0 -1.910743,-0.94988 -1.910743,-2.122818 0,-1.172253 0.855853,-2.122818 1.910743,-2.122818 1.055575,0 1.910743,0.950565 1.910743,2.122818 z" />
      <path
         inkscape:connector-curvature="0"
         id="path3764"
         style="fill:#784421;stroke-width:0.06863301"
         d="m 23.946832,41.250943 c 0.02608,0.820849 -0.579262,1.493454 -1.351384,1.502377 -0.771435,0.0089 -1.418644,-0.649269 -1.444038,-1.469433 -0.0254,-0.820852 0.579262,-1.493456 1.351384,-1.502377 0.772121,-0.0089 1.418644,0.649269 1.444038,1.469433 z" />
      <path
         inkscape:connector-curvature="0"
         id="path3600"
         style="fill:#000000;stroke-width:0.06863301"
         d="m 35.16581,22.351608 c -0.191596,-0.332046 -0.543217,-0.487979 -0.785299,-0.348175 -0.242034,0.139736 -0.28283,0.52216 -0.09109,0.854138 0.191603,0.33191 0.543217,0.487706 0.785299,0.348382 0.242062,-0.139944 0.28283,-0.522435 0.09109,-0.854345 z" />
      <rect
         transform="scale(-1,1)"
         y="38.635792"
         x="-47.159138"
         height="1.788309"
         width="16.107367"
         id="rect1153-1-0-7"
         style="fill:#ffcc00;fill-opacity:1;stroke:#000000;stroke-width:0.40000001;stroke-linecap:round;stroke-miterlimit:4;stroke-dasharray:none;stroke-opacity:1" />
      <rect
         transform="scale(-1,1)"
         y="37.89978"
         x="-58.200336"
         height="3.2603312"
         width="16.107367"
         id="rect1153-1-7"
         style="fill:#784421;fill-opacity:1;stroke:#000000;stroke-width:0.40000001;stroke-linecap:round;stroke-miterlimit:4;stroke-dasharray:none;stroke-opacity:1" />
      <rect
         transform="scale(-1,1)"
         y="36.932915"
         x="-77.482147"
         height="5.1940608"
         width="21.914619"
         id="rect1153-6"
         style="fill:#ffcc00;fill-opacity:1;stroke:#000000;stroke-width:0.4;stroke-linecap:round;stroke-miterlimit:4;stroke-dasharray:none;stroke-opacity:1" />
      <g
         transform="matrix(0.06863301,0,0,0.06863301,21.828126,16.236273)"
         id="g3766">
        <path
           d="m 929.84,266.53 c -88.23,0 -159.77,71.55 -159.75,159.78 -0.02,88.24 71.52,159.78 159.75,159.78 88.26,0 159.76,-71.54 159.76,-159.78 0,-12.34 -1.4,-24.33 -4.1,-35.87 1.6,-2.94 2.7,0.93 8.8,7.06 5.9,21.5 15.5,43.66 26,116 13.8,20.94 4.9,-2.99 4.2,-12.78 0.2,-39.83 -24.1,-119.74 -32.8,-135.99 -8.9,-16.68 -40.8,-48 -61.5,-62.7 0,-0.03 -0.1,-0.06 -0.1,-0.09 -27.4,-22.13 -62.28,-35.41 -100.26,-35.41 z"
           style="fill:#ffcc00;stroke:#000000;stroke-width:5.69999981;stroke-linecap:round;stroke-linejoin:round"
           sodipodi:nodetypes="ccsccccczscc"
           id="path3396"
           inkscape:connector-curvature="0" />
        <path
           d="m 997.82,591.1 c 0,10.79 17.38,11.13 38.88,11.13 21.4,0 38.8,0.82 38.8,-11.13 0,-21.03 -17.4,-38.09 -38.8,-38.09 -21.5,0 -38.88,17.06 -38.88,38.09 z"
           style="fill:#784421;stroke:#000000;stroke-width:4.6388998;stroke-linecap:round;stroke-linejoin:round"
           id="path3398"
           inkscape:connector-curvature="0" />
        <path
           d="m 860.59,590.64 c 0,10.79 -17.4,11.13 -38.85,11.13 -21.44,0 -38.85,0.82 -38.85,-11.13 0,-21.03 17.41,-38.09 38.85,-38.09 21.45,0 38.85,17.06 38.85,38.09 z"
           style="fill:#784421;stroke:#000000;stroke-width:4.6388998;stroke-linecap:round;stroke-linejoin:round"
           id="path3400"
           inkscape:connector-curvature="0" />
        <path
           style="fill:#ffcc00;fill-rule:evenodd;stroke:#000000;stroke-width:5.61920023;stroke-linecap:round;stroke-linejoin:round"
           sodipodi:nodetypes="cccc"
           d="M 790.93,348.22 C 820.82,284 816.17,120.51 816.17,120.51 l 71,-22.074 c 0,0 -23.54,118.78 6.95,184.11"
           id="path3402"
           inkscape:connector-curvature="0" />
        <path
           d="m 1126.7,506.4 c -5.4,-0.87 -8.1,-0.23 -10.4,3.34 -3.4,5.06 3.2,17.69 9.3,26.92 3.4,5.13 1.3,12.45 1.3,12.45 l 2.4,-10.09 3.7,4.52 -0.7,-9.23 9,12.44 -5,-14.13 6.3,3.21 c -0.7,-5.56 -10.4,-28.55 -15.9,-29.43 z"
           style="fill:#784421;fill-rule:evenodd;stroke:#000000;stroke-width:2;stroke-linejoin:round"
           sodipodi:nodetypes="csscccccccz"
           id="path3440"
           inkscape:connector-curvature="0" />
        <path
           style="fill:#ffcc00;stroke:#000000;stroke-width:4.50740004;stroke-linecap:round;stroke-linejoin:round"
           sodipodi:nodetypes="czzccccss"
           d="m 887.62,100.83 c 18.33,-21.864 19.07,-46.333 21.26,-59.329 2.19,-12.996 0.71,-20.281 -2.41,-34.409 -3.12,-14.128 -12.73,-38.752 -33.33,-51.596 -14.73,-12.441 -31.39,-14.484 -51.47,-10.301 -7.21,1.923 -26.26,8.673 -31.84,13.379 -11.03,6.814 -22.47,19.242 -31.79,32.966 -29.14,46.738 -39.02,105.04 -20.87,126.95 9.29,11.22 63.09,16.64 79.15,13.62"
           id="path3446"
           inkscape:connector-curvature="0" />
        <path
           d="m 782.08,-31.613 c 6.89,-12.484 -7.32,-27.551 -7.32,-27.551 l 21.09,-5.166 c 0,0 -3.01,18.941 8.18,25.829"
           inkscape:transform-center-y="9.8994949"
           style="fill:#ffcc00;fill-rule:evenodd;stroke:#000000;stroke-width:4.75939989;stroke-linecap:round"
           id="path3450"
           inkscape:connector-curvature="0" />
        <path
           d="m 797.93,-75.379 c 0,10.342 -8.38,18.726 -18.73,18.726 -10.34,0 -18.72,-8.384 -18.72,-18.726 0,-10.343 8.38,-18.727 18.72,-18.727 10.35,0 18.73,8.384 18.73,18.727 z"
           style="fill:#784421;stroke:#000000;stroke-width:4.75939989;stroke-linecap:round;stroke-linejoin:round"
           id="path3448"
           inkscape:connector-curvature="0" />
        <path
           d="m 739.42,91.233 c 2.79,-4.838 7.91,-7.109 11.44,-5.073 3.53,2.036 4.12,7.609 1.33,12.445 -2.79,4.835 -7.92,7.105 -11.44,5.075 -3.53,-2.04 -4.12,-7.61 -1.33,-12.447 z"
           style="fill:#000000"
           id="path3452"
           inkscape:connector-curvature="0" />
        <path
           d="m 802.89,30.464 c -7.57,13.321 -23.14,18.761 -34.76,12.149 -11.62,-6.611 -14.9,-22.769 -7.32,-36.086 7.58,-13.321 23.14,-18.761 34.76,-12.15 11.62,6.6114 14.9,22.77 7.32,36.087 z"
           style="fill:#ffffff;stroke:#000000;stroke-width:4.46920013;stroke-linecap:round;stroke-linejoin:round"
           id="path3458"
           inkscape:connector-curvature="0" />
        <path
           d="m 781.77,24.081 c -2.53,4.44 -7.71,6.253 -11.59,4.05 -3.87,-2.204 -4.96,-7.59 -2.44,-12.029 2.53,-4.441 7.72,-6.254 11.59,-4.05 3.87,2.204 4.97,7.59 2.44,12.029 z"
           style="fill:#000000"
           id="path3460"
           inkscape:connector-curvature="0" />
        <path
           d="m 846.87,16.187 c -4.5,-20.111 2.6,-39.074 15.84,-42.354 13.24,-3.281 27.61,10.364 32.11,30.475 4.49,20.111 -2.6,39.074 -15.85,42.354 -13.24,3.281 -27.61,-10.364 -32.1,-30.475 z"
           style="fill:#784421"
           id="path3462"
           inkscape:connector-curvature="0" />
        <path
           d="m 851.5,130.85 c -0.67,-9.54 4.27,-17.65 11.03,-18.12 6.75,-0.47 12.77,6.87 13.43,16.41 0.67,9.53 -4.27,17.64 -11.02,18.12 -6.76,0.47 -12.77,-6.88 -13.44,-16.41 z"
           inkscape:transform-center-y="8.4852814"
           style="fill:#784421"
           id="path3464"
           inkscape:connector-curvature="0" />
        <path
           d="m 889.25,84.811 c -5.12,9.255 -13.32,14.519 -18.31,11.758 -4.98,-2.761 -4.88,-12.502 0.25,-21.756 5.12,-9.255 13.31,-14.519 18.3,-11.758 4.99,2.761 4.88,12.501 -0.24,21.756 z"
           style="fill:#784421"
           inkscape:transform-center-x="-12.945946"
           id="path3466"
           inkscape:connector-curvature="0" />
        <path
           d="m 817.14,-34.237 c 18.74,-19.799 21.21,4.243 24.04,17.678 -7.14,22.827 -16.99,35.454 -28.28,4.95"
           style="fill:none;stroke:#000000;stroke-width:5.69999981;stroke-linecap:round"
           sodipodi:nodetypes="ccc"
           id="path3474"
           inkscape:connector-curvature="0" />
        <path
           d="m 818.05,-25.129 c 11.77,-15.138 14.46,1.476 15.91,8.39 -7.09,15.049 -11.32,14.252 -15.97,-0.281"
           style="fill:#d4aa00;fill-rule:evenodd;stroke:#000000;stroke-width:3;stroke-linecap:round"
           sodipodi:nodetypes="ccc"
           id="path3476"
           inkscape:connector-curvature="0" />
        <path
           d="m 987.43,369.1 c -15.97,-23.5 -16.5,-51.42 -1.19,-62.35 15.36,-10.93 40.66,-0.73 56.66,22.78 16,23.5 16.5,51.42 1.2,62.35 -15.3,10.93 -40.7,0.73 -56.67,-22.78 z"
           style="fill:#784421"
           inkscape:transform-center-y="32"
           inkscape:transform-center-x="-14"
           id="path3478"
           inkscape:connector-curvature="0" />
        <path
           d="m 1021.9,497.06 c 6.3,-10.52 16.3,-16.08 22.4,-12.43 6.1,3.65 6,15.13 -0.3,25.64 -6.3,10.52 -16.3,16.08 -22.4,12.43 -6.1,-3.65 -6,-15.13 0.3,-25.64 z"
           style="fill:#784421"
           id="path3480"
           inkscape:connector-curvature="0" />
        <path
           d="m 1086.1,439.31 c -1.7,20.43 -6,36.93 -9.4,36.93 -7.9,0 -19.2,-16.14 -19.2,-36.93 0,-20.78 16.4,-39.63 24.3,-39.63 7.9,0 4.3,30.85 4.3,39.63 z"
           style="fill:#784421"
           sodipodi:nodetypes="cssscc"
           id="path3482"
           inkscape:connector-curvature="0" />
        <path
           d="m 862.74,366.08 c -6.74,15.7 -23.66,23.5 -37.79,17.43 -14.13,-6.08 -20.11,-23.72 -13.36,-39.42 6.75,-15.7 23.67,-23.5 37.8,-17.42 14.12,6.07 20.1,23.72 13.35,39.41 z"
           style="fill:#784421"
           id="path3484"
           inkscape:connector-curvature="0" />
        <path
           d="m 839.75,177.22 c 0,11.96 -5.52,21.65 -12.34,21.65 -6.81,0 -12.34,-9.69 -12.34,-21.65 0,-11.96 5.53,-21.66 12.34,-21.66 6.82,0 12.34,9.7 12.34,21.66 z"
           style="fill:#784421"
           id="path3486"
           inkscape:connector-curvature="0" />
        <path
           d="m 877.83,255.09 c 0,11.95 -6.87,21.65 -15.34,21.65 -8.47,0 -15.34,-9.7 -15.34,-21.65 0,-11.96 6.87,-21.66 15.34,-21.66 8.47,0 15.34,9.7 15.34,21.66 z"
           style="fill:#784421"
           id="path3488"
           inkscape:connector-curvature="0" />
        <path
           d="m 909.78,416.32 c 0.37,11.95 -8.44,21.75 -19.69,21.88 -11.25,0.13 -20.67,-9.46 -21.05,-21.41 -0.37,-11.96 8.44,-21.76 19.69,-21.89 11.25,-0.13 20.67,9.46 21.05,21.42 z"
           style="fill:#784421"
           id="path3490"
           inkscape:connector-curvature="0" />
        <path
           d="m 860.45,482.11 c 0,11.96 -7.85,21.66 -17.53,21.66 -9.68,0 -17.53,-9.7 -17.53,-21.66 0,-11.96 7.85,-21.65 17.53,-21.65 9.68,0 17.53,9.69 17.53,21.65 z"
           style="fill:#784421"
           id="path3492"
           inkscape:connector-curvature="0" />
        <path
           d="m 977.01,479.09 c 0,17.08 -12.47,30.93 -27.84,30.93 -15.38,0 -27.84,-13.85 -27.84,-30.93 0,-17.09 12.46,-30.94 27.84,-30.94 15.37,0 27.84,13.85 27.84,30.94 z"
           style="fill:#784421"
           id="path3494"
           inkscape:connector-curvature="0" />
        <path
           d="m 947.78,340.32 c 0.37,11.95 -8.44,21.75 -19.69,21.88 -11.25,0.13 -20.67,-9.46 -21.05,-21.41 -0.37,-11.96 8.44,-21.76 19.69,-21.89 11.25,-0.13 20.67,9.46 21.05,21.42 z"
           style="fill:#784421"
           id="path3496"
           inkscape:connector-curvature="0" />
      </g>
      <path
         sodipodi:nodetypes="csc"
         inkscape:connector-curvature="0"
         id="path1232"
         d="m 31.191158,51.557557 c 1.178606,-0.06933 1.347488,0.753991 1.733245,1.317266 0.812392,1.186243 2.351092,-1.211444 0.838925,-1.868422"
         style="fill:none;stroke:#000000;stroke-width:0.51880068;stroke-linecap:butt;stroke-linejoin:miter;stroke-miterlimit:4;stroke-dasharray:none;stroke-opacity:1" />
      <path
         sodipodi:nodetypes="csc"
         inkscape:connector-curvature="0"
         id="path1232-6"
         d="m 74.825333,47.656739 c -1.178606,-0.06933 -1.347488,0.753991 -1.733245,1.317266 -0.812393,1.186243 -2.351093,-1.211444 -0.838927,-1.868422"
         style="fill:none;stroke:#000000;stroke-width:0.51880068;stroke-linecap:butt;stroke-linejoin:miter;stroke-miterlimit:4;stroke-dasharray:none;stroke-opacity:1" />
      <path
         sodipodi:nodetypes="cc"
         inkscape:connector-curvature="0"
         id="path1251"
         d="M 71.978627,48.203718 27.230725,49.112633"
         style="fill:#784421;fill-opacity:1;stroke:#784421;stroke-width:1.29700172;stroke-linecap:round;stroke-linejoin:miter;stroke-miterlimit:4;stroke-dasharray:none;stroke-opacity:1" />
      <path
         inkscape:connector-curvature="0"
         id="path3598-5"
         style="fill:#784421;stroke:#000000;stroke-width:0.547746;stroke-linecap:round;stroke-linejoin:round"
         d="m 24.959166,47.434409 c 0,1.190235 0.964891,2.155124 2.155123,2.155124 1.190231,0 2.155123,-0.964889 2.155123,-2.155124 0,-1.190232 -0.964892,-2.155238 -2.155123,-2.155238 -1.190232,0 -2.155123,0.965006 -2.155123,2.155238 z" />
      <path
         sodipodi:nodetypes="czzc"
         inkscape:connector-curvature="0"
         id="path1251-3"
         d="m 80.883395,49.324932 c -5.32449,6.990473 -14.76983,8.072375 -18.139152,7.827581 C 59.37492,56.90772 49.938672,52.926233 44.438624,55.703124 38.938576,58.480015 33.658665,57.406285 33.682636,52.734005"
         style="fill:none;fill-opacity:1;stroke:#784421;stroke-width:1.29700172;stroke-linecap:round;stroke-linejoin:miter;stroke-miterlimit:4;stroke-dasharray:none;stroke-opacity:1" />
      <path
         inkscape:connector-curvature="0"
         id="path3598-5-1"
         style="fill:#784421;stroke:#000000;stroke-width:0.547746;stroke-linecap:round;stroke-linejoin:round"
         d="m 77.020984,48.651863 c 0,1.190235 0.964888,2.155124 2.155121,2.155124 1.190232,0 2.155124,-0.964889 2.155124,-2.155124 0,-1.190232 -0.964892,-2.155238 -2.155124,-2.155238 -1.190233,0 -2.155121,0.965006 -2.155121,2.155238 z" />
      <path
         inkscape:connector-curvature="0"
         id="path3764-1"
         style="fill:#784421;stroke:#000000;stroke-width:0.40000001;stroke-miterlimit:4;stroke-dasharray:none;stroke-opacity:1"
         d="m 33.53148,39.513473 c 0.02608,0.820849 -0.579263,1.493454 -1.351385,1.502377 -0.771434,0.0089 -1.418644,-0.649269 -1.444038,-1.469433 -0.0254,-0.820852 0.579263,-1.493456 1.351384,-1.502377 0.772121,-0.0089 1.418644,0.649269 1.444039,1.469433 z" />
      <path
         inkscape:connector-curvature="0"
         id="path3764-1-2"
         style="fill:#784421;stroke:#000000;stroke-width:0.40000001;stroke-miterlimit:4;stroke-dasharray:none;stroke-opacity:1"
         d="m 72.224117,44.8337 c 0.02608,0.820849 -0.579263,1.493454 -1.351385,1.502377 -0.771434,0.0089 -1.418644,-0.649269 -1.444038,-1.469433 -0.0254,-0.820852 0.579263,-1.493456 1.351384,-1.502377 0.772121,-0.0089 1.418644,0.649269 1.444039,1.469433 z" />
    </g>
  </g>
</svg>
