<?xml version="1.0" encoding="UTF-8" standalone="no"?>
<!-- Generator: Adobe Illustrator 15.1.0, SVG Export Plug-In . SVG Version: 6.00 Build 0)  -->

<svg
   xmlns:dc="http://purl.org/dc/elements/1.1/"
   xmlns:cc="http://creativecommons.org/ns#"
   xmlns:rdf="http://www.w3.org/1999/02/22-rdf-syntax-ns#"
   xmlns:svg="http://www.w3.org/2000/svg"
   xmlns="http://www.w3.org/2000/svg"
   xmlns:sodipodi="http://sodipodi.sourceforge.net/DTD/sodipodi-0.dtd"
   xmlns:inkscape="http://www.inkscape.org/namespaces/inkscape"
   id="Capa_1"
   enable-background="new 0 0 301 287"
   xml:space="preserve"
   viewBox="0 0 301 287"
   version="1.1"
   y="0px"
   x="0px"
   sodipodi:docname="SaltAndPepper.svg"
   inkscape:version="0.92.2 (5c3e80d, 2017-08-06)"><defs
     id="defs8205" /><sodipodi:namedview
     pagecolor="#ffffff"
     bordercolor="#666666"
     borderopacity="1"
     objecttolerance="10"
     gridtolerance="10"
     guidetolerance="10"
     inkscape:pageopacity="0"
     inkscape:pageshadow="2"
     inkscape:window-width="1618"
     inkscape:window-height="1028"
     id="namedview8203"
     showgrid="false"
     inkscape:zoom="0.82229964"
     inkscape:cx="114.25079"
     inkscape:cy="163.60764"
     inkscape:window-x="1734"
     inkscape:window-y="-8"
     inkscape:window-maximized="1"
     inkscape:current-layer="Capa_1" /><title
     id="title8113">imagebot_2</title><ellipse
     style="fill:#ffffff;stroke-width:1.86909997"
     id="ellipse8132"
     ry="1.3195845"
     rx="3.4634423"
     cx="240.66016"
     cy="-0.96841633"
     inkscape:export-filename="D:\MatamekoWiki\mtameko.git\images\SaltAndPepper.png"
     inkscape:export-xdpi="40"
     inkscape:export-ydpi="40" /><metadata
     id="metadata8200"><rdf:RDF><cc:Work><dc:format>image/svg+xml</dc:format><dc:type
           rdf:resource="http://purl.org/dc/dcmitype/StillImage" /><cc:license
           rdf:resource="http://creativecommons.org/publicdomain/zero/1.0/" /><dc:publisher><cc:Agent
             rdf:about="http://openclipart.org/"><dc:title>Openclipart</dc:title></cc:Agent></dc:publisher><dc:title>Condimentero</dc:title><dc:date>2013-02-25T09:11:06</dc:date><dc:description /><dc:source>https://openclipart.org/detail/175312/condimentero-by-andreadeaurre-175312</dc:source><dc:creator><cc:Agent><dc:title>andreadeaurre</dc:title></cc:Agent></dc:creator><dc:subject><rdf:Bag><rdf:li>condimentero</rdf:li><rdf:li>condimento</rdf:li><rdf:li>pepper</rdf:li><rdf:li>pimienta</rdf:li><rdf:li>sal</rdf:li><rdf:li>salt</rdf:li><rdf:li>saltcellar</rdf:li></rdf:Bag></dc:subject></cc:Work><cc:License
         rdf:about="http://creativecommons.org/publicdomain/zero/1.0/"><cc:permits
           rdf:resource="http://creativecommons.org/ns#Reproduction" /><cc:permits
           rdf:resource="http://creativecommons.org/ns#Distribution" /><cc:permits
           rdf:resource="http://creativecommons.org/ns#DerivativeWorks" /></cc:License></rdf:RDF></metadata><g
     id="g1574"
     transform="translate(-196)"
     inkscape:export-filename="D:\MatamekoWiki\mtameko.git\images\SaltAndPepper.png"
     inkscape:export-xdpi="40"
     inkscape:export-ydpi="40"><path
       inkscape:export-ydpi="40"
       inkscape:export-xdpi="40"
       inkscape:export-filename="D:\MatamekoWiki\mtameko.git\images\SaltAndPepper.png"
       stroke-miterlimit="10"
       d="m 344.34915,282.96 c 0,-0.176 -0.041,-0.34 -0.11,-0.496 0.045,-0.276 0.066,-0.562 0.056,-0.854 l -9.17,-245.71 c -0.094,-2.449 -2.193,-4.446 -4.67,-4.446 h -116.11 c -2.472,0 -4.567,1.997 -4.644,4.446 l -7.694,245.71 c -0.011,0.361 0.035,0.708 0.109,1.045 -0.026,0.1 -0.061,0.197 -0.061,0.305 0,0.553 0.37,1.093 1.042,1.619 0.669,0.754 1.596,1.266 2.655,1.414 9.456,3.779 36.071,6.504 67.449,6.504 31.405,0 58.039,-2.729 67.475,-6.514 0.954,-0.154 1.801,-0.599 2.432,-1.255 0.79,-0.56 1.23,-1.15 1.23,-1.76 z"
       id="path8115"
       inkscape:connector-curvature="0"
       style="fill:#231f20;stroke:#231f20;stroke-miterlimit:10" /><ellipse
       inkscape:export-ydpi="40"
       inkscape:export-xdpi="40"
       inkscape:export-filename="D:\MatamekoWiki\mtameko.git\images\SaltAndPepper.png"
       rx="61.618999"
       cy="27.188"
       ry="9.5369997"
       cx="271.99918"
       stroke-miterlimit="10"
       id="ellipse8117"
       style="fill:#ffffff;stroke:#ffffff;stroke-miterlimit:10" /><path
       inkscape:export-ydpi="40"
       inkscape:export-xdpi="40"
       inkscape:export-filename="D:\MatamekoWiki\mtameko.git\images\SaltAndPepper.png"
       stroke-miterlimit="10"
       d="m 334.63915,18.443 -2.66,-15.471 c -0.33,-1.909 -2.44,-3.472 -4.69,-3.472 h -108.66 c -2.248,0 -4.349,1.563 -4.67,3.472 l -2.596,15.471 c -0.087,0.52 -0.023,1.009 0.145,1.453 -0.128,0.251 -0.213,0.504 -0.213,0.76 0,5.267 27.588,9.537 61.619,9.537 34.031,0 61.619,-4.271 61.619,-9.537 0,-0.191 -0.047,-0.38 -0.118,-0.568 0.22,-0.493 0.32,-1.048 0.22,-1.645 z"
       id="path8119"
       inkscape:connector-curvature="0"
       style="fill:#231f20;stroke:#231f20;stroke-miterlimit:10" /><path
       inkscape:export-ydpi="40"
       inkscape:export-xdpi="40"
       inkscape:export-filename="D:\MatamekoWiki\mtameko.git\images\SaltAndPepper.png"
       id="imagebot_10"
       d="m 333.79915,265.84 -3.756,0.137 3.75,-0.151 -9.188,-214.45 c -0.223,-4.087 -3.554,-7.709 -7.668,-7.271 -47.149,5.023 -89.077,0 -89.077,0 -4.146,0.043 -7.461,3.206 -7.652,7.298 l -7.7,214.42 c -0.007,0.151 -0.007,0.25 -0.007,0.282 -0.004,1.992 0.816,3.849 2.156,5.16 1.322,1.322 3.205,2.14 5.229,2.14 0,0 53.313,7.687 106.56,0 1.994,-0.288 3.881,-0.816 5.203,-2.13 1.332,-1.311 2.146,-3.161 2.146,-5.143 0.01,-0.1 0.01,-0.2 0.01,-0.3 z"
       inkscape:connector-curvature="0"
       style="fill:#ffffff" /><ellipse
       inkscape:export-ydpi="40"
       inkscape:export-xdpi="40"
       inkscape:export-filename="D:\MatamekoWiki\mtameko.git\images\SaltAndPepper.png"
       rx="58.837002"
       cy="2.1659999"
       ry="9.5369997"
       cx="273.15915"
       stroke-miterlimit="10"
       id="ellipse8164"
       style="fill:#ffffff;stroke:#231f20;stroke-miterlimit:10" /><ellipse
       inkscape:export-ydpi="40"
       inkscape:export-xdpi="40"
       inkscape:export-filename="D:\MatamekoWiki\mtameko.git\images\SaltAndPepper.png"
       transform="scale(-1,1)"
       cy="1.7658206"
       cx="-234.88199"
       rx="3.4634423"
       ry="1.3195845"
       id="ellipse8134-6"
       style="fill:#000000;fill-opacity:1;stroke-width:1.86909997" /><ellipse
       inkscape:export-ydpi="40"
       inkscape:export-xdpi="40"
       inkscape:export-filename="D:\MatamekoWiki\mtameko.git\images\SaltAndPepper.png"
       transform="scale(-1,1)"
       cy="-1.2438769"
       cx="-258.85394"
       rx="3.4634423"
       ry="1.3195845"
       id="ellipse8136-7"
       style="fill:#000000;fill-opacity:1;stroke-width:1.86909997" /><ellipse
       inkscape:export-ydpi="40"
       inkscape:export-xdpi="40"
       inkscape:export-filename="D:\MatamekoWiki\mtameko.git\images\SaltAndPepper.png"
       transform="scale(-1,1)"
       cy="-1.6738338"
       cx="-297.88181"
       rx="3.4634423"
       ry="1.3195845"
       id="ellipse8140-4"
       style="fill:#000000;fill-opacity:1;stroke-width:1.86909997" /><ellipse
       inkscape:export-ydpi="40"
       inkscape:export-xdpi="40"
       inkscape:export-filename="D:\MatamekoWiki\mtameko.git\images\SaltAndPepper.png"
       transform="scale(-1,1)"
       cy="6.3389978"
       cx="-282.02438"
       rx="3.4634423"
       ry="1.3195845"
       id="ellipse8150-3"
       style="fill:#000000;fill-opacity:1;stroke-width:1.86909997" /><ellipse
       inkscape:export-ydpi="40"
       inkscape:export-xdpi="40"
       inkscape:export-filename="D:\MatamekoWiki\mtameko.git\images\SaltAndPepper.png"
       transform="scale(-1,1)"
       cy="3.3292992"
       cx="-312.02316"
       rx="3.4634423"
       ry="1.3195845"
       id="ellipse8152-8"
       style="fill:#000000;fill-opacity:1;stroke-width:1.86909997" /><ellipse
       inkscape:export-ydpi="40"
       inkscape:export-xdpi="40"
       inkscape:export-filename="D:\MatamekoWiki\mtameko.git\images\SaltAndPepper.png"
       transform="scale(-1,1)"
       cy="-1.171957"
       cx="-274.80948"
       rx="3.4634423"
       ry="1.3195845"
       id="ellipse8160-1"
       style="fill:#000000;fill-opacity:1;stroke-width:1.86909997" /><ellipse
       inkscape:export-ydpi="40"
       inkscape:export-xdpi="40"
       inkscape:export-filename="D:\MatamekoWiki\mtameko.git\images\SaltAndPepper.png"
       transform="scale(-1,1)"
       cy="4.2736425"
       cx="-250.7319"
       rx="3.4634423"
       ry="1.3195845"
       id="ellipse8162-6"
       style="fill:#000000;fill-opacity:1;stroke-width:1.86909997" /><flowRoot
       inkscape:export-ydpi="40"
       inkscape:export-xdpi="40"
       inkscape:export-filename="D:\MatamekoWiki\mtameko.git\images\SaltAndPepper.png"
       transform="translate(561.31994,148.47283)"
       style="font-style:normal;font-weight:normal;font-size:96px;line-height:1.25;font-family:sans-serif;letter-spacing:0px;word-spacing:0px;fill:#000000;fill-opacity:1;stroke:none"
       id="flowRoot1546"
       xml:space="preserve"><flowRegion
         id="flowRegion1548"><rect
           y="-42.563564"
           x="-322.26697"
           height="176.33475"
           width="141.06779"
           id="rect1550" /></flowRegion><flowPara
         style="font-style:normal;font-variant:normal;font-weight:normal;font-stretch:normal;font-family:'Comic Sans MS';-inkscape-font-specification:'Comic Sans MS'"
         id="flowPara1552">S</flowPara></flowRoot></g><g
     id="g1591"
     transform="translate(260)"
     inkscape:export-filename="D:\MatamekoWiki\mtameko.git\images\SaltAndPepper.png"
     inkscape:export-xdpi="40"
     inkscape:export-ydpi="40"><path
       inkscape:export-ydpi="40"
       inkscape:export-xdpi="40"
       inkscape:export-filename="D:\MatamekoWiki\mtameko.git\images\SaltAndPepper.png"
       d="m 64.04,282.69 c 0.17,-0.488 0.267,-1.011 0.247,-1.562 L 55.11,35.408 c -0.092,-2.444 -2.187,-4.444 -4.669,-4.444 h -116.1 c -2.482,0 -4.567,2 -4.643,4.449 l -7.695,245.72 c -0.017,0.548 0.082,1.067 0.252,1.554 -0.153,0.25 -0.254,0.51 -0.254,0.77 0,5.27 31.854,9.54 71.147,9.54 39.293,0 71.147,-4.271 71.147,-9.537 0,-0.26 -0.09,-0.51 -0.25,-0.77 z"
       id="path8121"
       inkscape:connector-curvature="0"
       style="fill:#231f20" /><ellipse
       inkscape:export-ydpi="40"
       inkscape:export-xdpi="40"
       inkscape:export-filename="D:\MatamekoWiki\mtameko.git\images\SaltAndPepper.png"
       rx="61.618999"
       cy="31.955"
       ry="9.5369997"
       cx="-7.8209991"
       stroke-miterlimit="10"
       id="ellipse8123"
       style="fill:#ffffff;stroke:#ffffff;stroke-miterlimit:10" /><path
       inkscape:export-ydpi="40"
       inkscape:export-xdpi="40"
       inkscape:export-filename="D:\MatamekoWiki\mtameko.git\images\SaltAndPepper.png"
       id="imagebot_6"
       d="m 53.79,265.36 -0.005,-0.021 -9.18,-214.45 c -0.218,-4.087 -3.532,-7.244 -7.668,-7.266 -24.127,-0.128 -23.671,4.434 -89.078,0 -4.142,0.038 -7.456,3.2 -7.646,7.293 l -7.706,214.42 c -0.011,0.156 -0.006,0.256 -0.011,0.287 0,1.992 0.822,3.848 2.161,5.16 1.328,1.322 3.211,2.139 5.236,2.139 0,0 48.943,8.3 106.56,0 1.987,-0.286 3.88,-0.816 5.203,-2.127 1.328,-1.318 2.145,-3.162 2.145,-5.145 0,-0.1 -0.01,-0.2 -0.01,-0.3 z"
       inkscape:connector-curvature="0"
       style="fill:#ffffff" /><path
       inkscape:export-ydpi="40"
       inkscape:export-xdpi="40"
       inkscape:export-filename="D:\MatamekoWiki\mtameko.git\images\SaltAndPepper.png"
       id="imagebot_5"
       d="M 46.99,260.09 38.723,56.18 c -0.202,-3.679 -3.185,-6.748 -6.907,-6.542 -64.685,3.575 -62.833,0.155 -78.328,0 -3.729,0.033 -6.711,2.882 -6.879,6.566 l -6.939,203.89 c -0.005,0.142 -0.005,0.229 -0.005,0.261 0,1.791 0.735,3.463 1.943,4.643 1.192,1.188 2.885,1.928 4.708,1.928 0,0 50.238,7.32 94.074,0 1.782,-0.298 4.223,-0.371 5.415,-1.557 1.197,-1.182 1.23,-1.855 1.225,-3.641 0.01,-0.09 -0.03,-1.63 -0.03,-1.63 z"
       inkscape:connector-curvature="0"
       style="fill:#231f20" /><path
       inkscape:export-ydpi="40"
       inkscape:export-xdpi="40"
       inkscape:export-filename="D:\MatamekoWiki\mtameko.git\images\SaltAndPepper.png"
       d="M 54.79,21.773 52.128,3.995 C 51.788,1.802 49.688,0 47.438,0 h -108.66 c -2.247,0 -4.348,1.802 -4.669,3.995 l -2.601,17.778 c -0.06,0.416 -0.032,0.81 0.035,1.188 -0.047,0.153 -0.075,0.306 -0.075,0.461 0,5.267 27.588,9.537 61.619,9.537 34.031,0 61.619,-4.271 61.619,-9.537 0,-0.028 -0.012,-0.055 -0.014,-0.083 0.13,-0.482 0.17,-1.011 0.09,-1.566 z"
       id="path8128"
       inkscape:connector-curvature="0"
       style="fill:#231f20" /><ellipse
       inkscape:export-ydpi="40"
       inkscape:export-xdpi="40"
       inkscape:export-filename="D:\MatamekoWiki\mtameko.git\images\SaltAndPepper.png"
       rx="58.837002"
       cy="2.6659999"
       ry="9.5369997"
       cx="-6.7109985"
       stroke-miterlimit="10"
       id="ellipse8130"
       style="fill:#231f20;stroke:#ffffff;stroke-miterlimit:10" /><ellipse
       inkscape:export-ydpi="40"
       inkscape:export-xdpi="40"
       inkscape:export-filename="D:\MatamekoWiki\mtameko.git\images\SaltAndPepper.png"
       cy="2.4712389"
       cx="34.819599"
       rx="3.4634423"
       ry="1.3195845"
       id="ellipse8134"
       style="fill:#ffffff;stroke-width:1.86909997" /><ellipse
       inkscape:export-ydpi="40"
       inkscape:export-xdpi="40"
       inkscape:export-filename="D:\MatamekoWiki\mtameko.git\images\SaltAndPepper.png"
       cy="-0.96841633"
       cx="3.5384011"
       rx="3.4634423"
       ry="1.3195845"
       id="ellipse8136"
       style="fill:#ffffff;stroke-width:1.86909997" /><ellipse
       inkscape:export-ydpi="40"
       inkscape:export-xdpi="40"
       inkscape:export-filename="D:\MatamekoWiki\mtameko.git\images\SaltAndPepper.png"
       cy="-0.96841633"
       cx="-28.180214"
       rx="3.4634423"
       ry="1.3195845"
       id="ellipse8140"
       style="fill:#ffffff;stroke-width:1.86909997" /><ellipse
       inkscape:export-ydpi="40"
       inkscape:export-xdpi="40"
       inkscape:export-filename="D:\MatamekoWiki\mtameko.git\images\SaltAndPepper.png"
       cy="7.0444155"
       cx="-12.322782"
       rx="3.4634423"
       ry="1.3195845"
       id="ellipse8150"
       style="fill:#ffffff;stroke-width:1.86909997" /><ellipse
       inkscape:export-ydpi="40"
       inkscape:export-xdpi="40"
       inkscape:export-filename="D:\MatamekoWiki\mtameko.git\images\SaltAndPepper.png"
       cy="4.0347171"
       cx="-42.321571"
       rx="3.4634423"
       ry="1.3195845"
       id="ellipse8152"
       style="fill:#ffffff;stroke-width:1.86909997" /><ellipse
       inkscape:export-ydpi="40"
       inkscape:export-xdpi="40"
       inkscape:export-filename="D:\MatamekoWiki\mtameko.git\images\SaltAndPepper.png"
       cy="-6.9158926"
       cx="18.969698"
       rx="3.4634423"
       ry="1.3195845"
       id="ellipse8160"
       style="fill:#ffffff;stroke-width:1.86909997" /><ellipse
       inkscape:export-ydpi="40"
       inkscape:export-xdpi="40"
       inkscape:export-filename="D:\MatamekoWiki\mtameko.git\images\SaltAndPepper.png"
       cy="4.9790597"
       cx="18.969698"
       rx="3.4634423"
       ry="1.3195845"
       id="ellipse8162"
       style="fill:#ffffff;stroke-width:1.86909997" /><text
       inkscape:export-ydpi="40"
       inkscape:export-xdpi="40"
       inkscape:export-filename="D:\MatamekoWiki\mtameko.git\images\SaltAndPepper.png"
       id="text1556"
       y="196.16158"
       x="-32.550137"
       style="font-style:normal;font-weight:normal;font-size:96px;line-height:1.25;font-family:sans-serif;letter-spacing:0px;word-spacing:0px;fill:#ffffff;fill-opacity:1;stroke:none"
       xml:space="preserve"><tspan
         style="font-style:normal;font-variant:normal;font-weight:normal;font-stretch:normal;font-family:'Comic Sans MS';-inkscape-font-specification:'Comic Sans MS';fill:#ffffff;fill-opacity:1"
         y="196.16158"
         x="-32.550137"
         id="tspan1554"
         sodipodi:role="line">P</tspan></text>
</g></svg>