<?xml version="1.0" encoding="UTF-8" standalone="no"?>
<!-- Generator: Adobe Illustrator 19.0.0, SVG Export Plug-In . SVG Version: 6.00 Build 0)  -->

<svg
   xmlns:dc="http://purl.org/dc/elements/1.1/"
   xmlns:cc="http://creativecommons.org/ns#"
   xmlns:rdf="http://www.w3.org/1999/02/22-rdf-syntax-ns#"
   xmlns:svg="http://www.w3.org/2000/svg"
   xmlns="http://www.w3.org/2000/svg"
   xmlns:sodipodi="http://sodipodi.sourceforge.net/DTD/sodipodi-0.dtd"
   xmlns:inkscape="http://www.inkscape.org/namespaces/inkscape"
   version="1.1"
   id="Layer_1"
   x="0px"
   y="0px"
   viewBox="0 0 454 454"
   style="enable-background:new 0 0 454 454;"
   xml:space="preserve"
   sodipodi:docname="SechsStuehle.svg"
   inkscape:version="0.92.4 (5da689c313, 2019-01-14)"><metadata
   id="metadata59"><rdf:RDF><cc:Work
       rdf:about=""><dc:format>image/svg+xml</dc:format><dc:type
         rdf:resource="http://purl.org/dc/dcmitype/StillImage" /><dc:title></dc:title></cc:Work></rdf:RDF></metadata><defs
   id="defs57">
	
	
	
	
	
	
	
	
	
	
</defs><sodipodi:namedview
   pagecolor="#ffffff"
   bordercolor="#666666"
   borderopacity="1"
   objecttolerance="10"
   gridtolerance="10"
   guidetolerance="10"
   inkscape:pageopacity="0"
   inkscape:pageshadow="2"
   inkscape:window-width="1920"
   inkscape:window-height="1137"
   id="namedview55"
   showgrid="false"
   inkscape:zoom="0.73514185"
   inkscape:cx="229.32487"
   inkscape:cy="31.448586"
   inkscape:window-x="3832"
   inkscape:window-y="-8"
   inkscape:window-maximized="1"
   inkscape:current-layer="Layer_1" />

<g
   id="g24">
</g>
<g
   id="g26">
</g>
<g
   id="g28">
</g>
<g
   id="g30">
</g>
<g
   id="g32">
</g>
<g
   id="g34">
</g>
<g
   id="g36">
</g>
<g
   id="g38">
</g>
<g
   id="g40">
</g>
<g
   id="g42">
</g>
<g
   id="g44">
</g>
<g
   id="g46">
</g>
<g
   id="g48">
</g>
<g
   id="g50">
</g>
<g
   id="g52">
</g>
<g
   id="g1287"
   transform="matrix(0.25085609,0,0,0.25085609,82.211814,33.849908)"><path
     style="fill:#ff0000;fill-opacity:1"
     d="m 352.785,234.43324 v 14.77 c 0,6.94 -5.63,12.56 -12.56,12.56 h -11.14 -203.07 v -39.9 h 214.21 c 6.93,0 12.56,5.63 12.56,12.57 z"
     id="path2"
     inkscape:connector-curvature="0" /><polyline
     transform="translate(0,-5.6567593)"
     style="fill:#f7b239"
     points="329.085,267.42 329.085,448 298.195,448 298.195,267.42 329.085,267.42  "
     id="polyline4" /><rect
     x="156.905"
     y="296.95322"
     style="fill:#f7b239"
     width="141.28999"
     height="24.65"
     id="rect6" /><polyline
     transform="translate(0,-5.6567593)"
     style="fill:#f7b239"
     points="156.905,267.42 156.905,448 126.015,448 126.015,267.42 156.905,267.42  "
     id="polyline8" /><polygon
     transform="translate(0,-5.6567593)"
     style="fill:#f7b239"
     points="120.165,6 162.865,227.52 126.015,227.52 100.215,6 "
     id="polygon10" /><path
     style="fill:#333333"
     d="M 340.225,215.86324 H 167.819 L 126.057,-0.7927593 c -0.334,-1.73 -1.41,-3.226 -2.945,-4.091 -1.536,-0.866 -3.375,-1.012 -5.026,-0.401 l -18.95,7 c -2.596,0.959 -4.2,3.568 -3.881,6.317 l 24.76,214.1739993 v 220.137 c 0,3.313 2.686,6 6,6 h 30.889 c 3.313,0 6,-2.686 6,-6 v -114.74 h 129.29 v 114.74 c 0,3.313 2.686,6 6,6 h 30.891 c 3.313,0 6,-2.686 6,-6 v -174.58 h 5.14 c 10.234,0 18.561,-8.326 18.561,-18.56 v -14.77 c -10e-4,-10.24 -8.327,-18.57 -18.561,-18.57 M 107.717,11.338241 115.611,8.4222407 155.598,215.86424 H 131.361 L 107.717,11.338241 m 43.187,425.004999 h -18.89 v -168.58 h 18.89 v 168.58 m 141.29,-120.74 h -129.29 v -12.65 h 129.29 v 12.65 m -129.29,-24.65 v -23.19 h 129.29 v 23.19 h -129.29 m 160.181,145.39 h -18.891 v -168.58 h 18.891 v 168.58 m 23.7,-187.14 c 0,3.618 -2.944,6.56 -6.561,6.56 h -208.21 v -27.9 h 208.21 c 3.617,0 6.561,2.947 6.561,6.57 v 14.77"
     id="path12"
     inkscape:connector-curvature="0" /><polyline
     transform="translate(0,-5.6567593)"
     style="fill:#a17a36"
     points="150.904,273.42 132.015,273.42 132.015,291.42 150.904,291.42 150.904,273.42  "
     id="polyline14" /><polyline
     transform="translate(0,-5.6567593)"
     style="fill:#333333"
     points="156.905,267.42 126.015,267.42 126.015,291.42 132.015,291.42 132.015,273.42    150.904,273.42 150.904,291.42 156.905,291.42 156.905,267.42  "
     id="polyline16" /><polyline
     transform="translate(0,-5.6567593)"
     style="fill:#a17a36"
     points="323.085,273.42 304.194,273.42 304.194,291.42 323.085,291.42 323.085,273.42  "
     id="polyline18" /><polyline
     transform="translate(0,-5.6567593)"
     style="fill:#333333"
     points="329.085,267.42 298.195,267.42 298.195,291.42 304.194,291.42 304.194,273.42    323.085,273.42 323.085,291.42 329.085,291.42 329.085,267.42  "
     id="polyline20" /><path
     inkscape:connector-curvature="0"
     style="fill:#008725;fill-opacity:1"
     d="m 352.785,755.53504 v 14.77 c 0,6.94 -5.63,12.56 -12.56,12.56 h -11.14 -203.07 v -39.9 h 214.21 c 6.93,0 12.56,5.63 12.56,12.57 z"
     id="path2-0" /><polyline
     transform="translate(0,515.44504)"
     style="fill:#f7b239"
     points="329.085,267.42 329.085,448 298.195,448 298.195,267.42 329.085,267.42  "
     id="polyline4-0" /><rect
     x="156.905"
     y="818.05505"
     style="fill:#f7b239"
     width="141.28999"
     height="24.65"
     id="rect6-9" /><polyline
     transform="translate(0,515.44504)"
     style="fill:#f7b239"
     points="156.905,267.42 156.905,448 126.015,448 126.015,267.42 156.905,267.42  "
     id="polyline8-8" /><polygon
     transform="translate(0,515.44504)"
     style="fill:#f7b239"
     points="126.015,227.52 100.215,6 120.165,6 162.865,227.52 "
     id="polygon10-4" /><path
     inkscape:connector-curvature="0"
     style="fill:#333333"
     d="M 340.225,736.96504 H 167.819 l -41.762,-216.656 c -0.334,-1.73 -1.41,-3.226 -2.945,-4.091 -1.536,-0.866 -3.375,-1.012 -5.026,-0.401 l -18.95,7 c -2.596,0.959 -4.2,3.568 -3.881,6.317 l 24.76,214.174 v 220.137 c 0,3.313 2.686,6 6,6 h 30.889 c 3.313,0 6,-2.686 6,-6 v -114.74 h 129.29 v 114.74 c 0,3.313 2.686,6 6,6 h 30.891 c 3.313,0 6,-2.686 6,-6 v -174.58 h 5.14 c 10.234,0 18.561,-8.326 18.561,-18.56 v -14.77 c -10e-4,-10.24 -8.327,-18.57 -18.561,-18.57 m -232.508,-204.525 7.894,-2.916 39.987,207.442 h -24.237 l -23.644,-204.526 m 43.187,425.005 h -18.89 v -168.58 h 18.89 v 168.58 m 141.29,-120.74 h -129.29 v -12.65 h 129.29 v 12.65 m -129.29,-24.65 v -23.19 h 129.29 v 23.19 h -129.29 m 160.181,145.39 h -18.891 v -168.58 h 18.891 v 168.58 m 23.7,-187.14 c 0,3.618 -2.944,6.56 -6.561,6.56 h -208.21 v -27.9 h 208.21 c 3.617,0 6.561,2.947 6.561,6.57 v 14.77"
     id="path12-6" /><polyline
     transform="translate(0,515.44504)"
     style="fill:#a17a36"
     points="150.904,273.42 132.015,273.42 132.015,291.42 150.904,291.42 150.904,273.42  "
     id="polyline14-0" /><polyline
     transform="translate(0,515.44504)"
     style="fill:#333333"
     points="156.905,267.42 126.015,267.42 126.015,291.42 132.015,291.42 132.015,273.42    150.904,273.42 150.904,291.42 156.905,291.42 156.905,267.42  "
     id="polyline16-8" /><polyline
     transform="translate(0,515.44504)"
     style="fill:#a17a36"
     points="323.085,273.42 304.194,273.42 304.194,291.42 323.085,291.42 323.085,273.42  "
     id="polyline18-9" /><polyline
     transform="translate(0,515.44504)"
     style="fill:#333333"
     points="329.085,267.42 298.195,267.42 298.195,291.42 304.194,291.42 304.194,273.42    323.085,273.42 323.085,291.42 329.085,291.42 329.085,267.42  "
     id="polyline20-8" /><path
     inkscape:connector-curvature="0"
     style="fill:#f25e00;fill-opacity:1"
     d="m 352.785,1276.6369 v 14.77 c 0,6.94 -5.63,12.56 -12.56,12.56 h -11.14 -203.07 v -39.9 h 214.21 c 6.93,0 12.56,5.63 12.56,12.57 z"
     id="path2-1" /><polyline
     transform="translate(0,1036.5469)"
     style="fill:#f7b239"
     points="329.085,267.42 329.085,448 298.195,448 298.195,267.42 329.085,267.42  "
     id="polyline4-04" /><rect
     x="156.905"
     y="1339.1569"
     style="fill:#f7b239"
     width="141.28999"
     height="24.65"
     id="rect6-96" /><polyline
     transform="translate(0,1036.5469)"
     style="fill:#f7b239"
     points="156.905,267.42 156.905,448 126.015,448 126.015,267.42 156.905,267.42  "
     id="polyline8-0" /><polygon
     transform="translate(0,1036.5469)"
     style="fill:#f7b239"
     points="126.015,227.52 100.215,6 120.165,6 162.865,227.52 "
     id="polygon10-8" /><path
     inkscape:connector-curvature="0"
     style="fill:#333333"
     d="M 340.225,1258.0669 H 167.819 l -41.762,-216.656 c -0.334,-1.73 -1.41,-3.226 -2.945,-4.091 -1.536,-0.866 -3.375,-1.012 -5.026,-0.401 l -18.95,7 c -2.596,0.959 -4.2,3.568 -3.881,6.317 l 24.76,214.174 v 220.137 c 0,3.313 2.686,6 6,6 h 30.889 c 3.313,0 6,-2.686 6,-6 v -114.74 h 129.29 v 114.74 c 0,3.313 2.686,6 6,6 h 30.891 c 3.313,0 6,-2.686 6,-6 v -174.58 h 5.14 c 10.234,0 18.561,-8.326 18.561,-18.56 v -14.77 c -10e-4,-10.24 -8.327,-18.57 -18.561,-18.57 m -232.508,-204.525 7.894,-2.916 39.987,207.442 h -24.237 l -23.644,-204.526 m 43.187,425.005 h -18.89 v -168.58 h 18.89 v 168.58 m 141.29,-120.74 h -129.29 v -12.65 h 129.29 v 12.65 m -129.29,-24.65 v -23.19 h 129.29 v 23.19 h -129.29 m 160.181,145.39 h -18.891 v -168.58 h 18.891 v 168.58 m 23.7,-187.14 c 0,3.618 -2.944,6.56 -6.561,6.56 h -208.21 v -27.9 h 208.21 c 3.617,0 6.561,2.947 6.561,6.57 v 14.77"
     id="path12-8" /><polyline
     transform="translate(0,1036.5469)"
     style="fill:#a17a36"
     points="150.904,273.42 132.015,273.42 132.015,291.42 150.904,291.42 150.904,273.42  "
     id="polyline14-8" /><polyline
     transform="translate(0,1036.5469)"
     style="fill:#333333"
     points="156.905,267.42 126.015,267.42 126.015,291.42 132.015,291.42 132.015,273.42    150.904,273.42 150.904,291.42 156.905,291.42 156.905,267.42  "
     id="polyline16-5" /><polyline
     transform="translate(0,1036.5469)"
     style="fill:#a17a36"
     points="323.085,273.42 304.194,273.42 304.194,291.42 323.085,291.42 323.085,273.42  "
     id="polyline18-1" /><polyline
     transform="translate(0,1036.5469)"
     style="fill:#333333"
     points="329.085,267.42 298.195,267.42 298.195,291.42 304.194,291.42 304.194,273.42    323.085,273.42 323.085,291.42 329.085,291.42 329.085,267.42  "
     id="polyline20-82" /><path
     style="fill:#ff0000;fill-opacity:1"
     d="m 637.93569,234.43324 v 14.77 c 0,6.94 5.63,12.56 12.56,12.56 h 11.14 203.07 v -39.9 h -214.21 c -6.93,0 -12.56,5.63 -12.56,12.57 z"
     id="path2-04"
     inkscape:connector-curvature="0" /><polyline
     transform="matrix(-1,0,0,1,990.72069,-5.6567593)"
     style="fill:#f7b239"
     points="329.085,267.42 329.085,448 298.195,448 298.195,267.42 329.085,267.42  "
     id="polyline4-6" /><rect
     transform="scale(-1,1)"
     x="-833.81567"
     y="296.95322"
     style="fill:#f7b239"
     width="141.28999"
     height="24.65"
     id="rect6-1" /><polyline
     transform="matrix(-1,0,0,1,990.72069,-5.6567593)"
     style="fill:#f7b239"
     points="156.905,267.42 156.905,448 126.015,448 126.015,267.42 156.905,267.42  "
     id="polyline8-2" /><polygon
     transform="matrix(-1,0,0,1,990.72069,-5.6567593)"
     style="fill:#f7b239"
     points="126.015,227.52 100.215,6 120.165,6 162.865,227.52 "
     id="polygon10-9" /><path
     style="fill:#333333"
     d="m 650.49569,215.86324 h 172.406 l 41.762,-216.6559993 c 0.334,-1.73 1.41,-3.226 2.945,-4.091 1.536,-0.866 3.375,-1.012 5.026,-0.401 l 18.95,7 c 2.596,0.959 4.2,3.568 3.881,6.317 l -24.76,214.1739993 v 220.137 c 0,3.313 -2.686,6 -6,6 h -30.889 c -3.313,0 -6,-2.686 -6,-6 v -114.74 h -129.29 v 114.74 c 0,3.313 -2.686,6 -6,6 h -30.891 c -3.313,0 -6,-2.686 -6,-6 v -174.58 h -5.14 c -10.234,0 -18.561,-8.326 -18.561,-18.56 v -14.77 c 10e-4,-10.24 8.327,-18.57 18.561,-18.57 m 232.508,-204.524999 -7.894,-2.9160003 -39.987,207.4419993 h 24.237 l 23.644,-204.525999 m -43.187,425.004999 h 18.89 v -168.58 h -18.89 v 168.58 m -141.29,-120.74 h 129.29 v -12.65 h -129.29 v 12.65 m 129.29,-24.65 v -23.19 h -129.29 v 23.19 h 129.29 m -160.181,145.39 h 18.891 v -168.58 h -18.891 v 168.58 m -23.7,-187.14 c 0,3.618 2.944,6.56 6.561,6.56 h 208.21 v -27.9 h -208.21 c -3.617,0 -6.561,2.947 -6.561,6.57 v 14.77"
     id="path12-2"
     inkscape:connector-curvature="0" /><polyline
     transform="matrix(-1,0,0,1,990.72069,-5.6567593)"
     style="fill:#a17a36"
     points="150.904,273.42 132.015,273.42 132.015,291.42 150.904,291.42 150.904,273.42  "
     id="polyline14-6" /><polyline
     transform="matrix(-1,0,0,1,990.72069,-5.6567593)"
     style="fill:#333333"
     points="156.905,267.42 126.015,267.42 126.015,291.42 132.015,291.42 132.015,273.42    150.904,273.42 150.904,291.42 156.905,291.42 156.905,267.42  "
     id="polyline16-4" /><polyline
     transform="matrix(-1,0,0,1,990.72069,-5.6567593)"
     style="fill:#a17a36"
     points="323.085,273.42 304.194,273.42 304.194,291.42 323.085,291.42 323.085,273.42  "
     id="polyline18-7" /><polyline
     transform="matrix(-1,0,0,1,990.72069,-5.6567593)"
     style="fill:#333333"
     points="329.085,267.42 298.195,267.42 298.195,291.42 304.194,291.42 304.194,273.42    323.085,273.42 323.085,291.42 329.085,291.42 329.085,267.42  "
     id="polyline20-9" /><path
     inkscape:connector-curvature="0"
     style="fill:#008725;fill-opacity:1"
     d="m 637.93569,755.53504 v 14.77 c 0,6.94 5.63,12.56 12.56,12.56 h 11.14 203.07 v -39.9 h -214.21 c -6.93,0 -12.56,5.63 -12.56,12.57 z"
     id="path2-0-5" /><polyline
     transform="matrix(-1,0,0,1,990.72069,515.44504)"
     style="fill:#f7b239"
     points="329.085,267.42 329.085,448 298.195,448 298.195,267.42 329.085,267.42  "
     id="polyline4-0-1" /><rect
     transform="scale(-1,1)"
     x="-833.81567"
     y="818.05505"
     style="fill:#f7b239"
     width="141.28999"
     height="24.65"
     id="rect6-9-8" /><polyline
     transform="matrix(-1,0,0,1,990.72069,515.44504)"
     style="fill:#f7b239"
     points="156.905,267.42 156.905,448 126.015,448 126.015,267.42 156.905,267.42  "
     id="polyline8-8-8" /><polygon
     transform="matrix(-1,0,0,1,990.72069,515.44504)"
     style="fill:#f7b239"
     points="120.165,6 162.865,227.52 126.015,227.52 100.215,6 "
     id="polygon10-4-9" /><path
     inkscape:connector-curvature="0"
     style="fill:#333333"
     d="m 650.49569,736.96504 h 172.406 l 41.762,-216.656 c 0.334,-1.73 1.41,-3.226 2.945,-4.091 1.536,-0.866 3.375,-1.012 5.026,-0.401 l 18.95,7 c 2.596,0.959 4.2,3.568 3.881,6.317 l -24.76,214.174 v 220.137 c 0,3.313 -2.686,6 -6,6 h -30.889 c -3.313,0 -6,-2.686 -6,-6 v -114.74 h -129.29 v 114.74 c 0,3.313 -2.686,6 -6,6 h -30.891 c -3.313,0 -6,-2.686 -6,-6 v -174.58 h -5.14 c -10.234,0 -18.561,-8.326 -18.561,-18.56 v -14.77 c 10e-4,-10.24 8.327,-18.57 18.561,-18.57 m 232.508,-204.525 -7.894,-2.916 -39.987,207.442 h 24.237 l 23.644,-204.526 m -43.187,425.005 h 18.89 v -168.58 h -18.89 v 168.58 m -141.29,-120.74 h 129.29 v -12.65 h -129.29 v 12.65 m 129.29,-24.65 v -23.19 h -129.29 v 23.19 h 129.29 m -160.181,145.39 h 18.891 v -168.58 h -18.891 v 168.58 m -23.7,-187.14 c 0,3.618 2.944,6.56 6.561,6.56 h 208.21 v -27.9 h -208.21 c -3.617,0 -6.561,2.947 -6.561,6.57 v 14.77"
     id="path12-6-6" /><polyline
     transform="matrix(-1,0,0,1,990.72069,515.44504)"
     style="fill:#a17a36"
     points="150.904,273.42 132.015,273.42 132.015,291.42 150.904,291.42 150.904,273.42  "
     id="polyline14-0-5" /><polyline
     transform="matrix(-1,0,0,1,990.72069,515.44504)"
     style="fill:#333333"
     points="156.905,267.42 126.015,267.42 126.015,291.42 132.015,291.42 132.015,273.42    150.904,273.42 150.904,291.42 156.905,291.42 156.905,267.42  "
     id="polyline16-8-2" /><polyline
     transform="matrix(-1,0,0,1,990.72069,515.44504)"
     style="fill:#a17a36"
     points="323.085,273.42 304.194,273.42 304.194,291.42 323.085,291.42 323.085,273.42  "
     id="polyline18-9-2" /><polyline
     transform="matrix(-1,0,0,1,990.72069,515.44504)"
     style="fill:#333333"
     points="329.085,267.42 298.195,267.42 298.195,291.42 304.194,291.42 304.194,273.42    323.085,273.42 323.085,291.42 329.085,291.42 329.085,267.42  "
     id="polyline20-8-2" /><path
     inkscape:connector-curvature="0"
     style="fill:#f25e00;fill-opacity:1"
     d="m 637.93569,1276.6369 v 14.77 c 0,6.94 5.63,12.56 12.56,12.56 h 11.14 203.07 v -39.9 h -214.21 c -6.93,0 -12.56,5.63 -12.56,12.57 z"
     id="path2-1-7" /><polyline
     transform="matrix(-1,0,0,1,990.72069,1036.5469)"
     style="fill:#f7b239"
     points="329.085,267.42 329.085,448 298.195,448 298.195,267.42 329.085,267.42  "
     id="polyline4-04-0" /><rect
     transform="scale(-1,1)"
     x="-833.81567"
     y="1339.1569"
     style="fill:#f7b239"
     width="141.28999"
     height="24.65"
     id="rect6-96-1" /><polyline
     transform="matrix(-1,0,0,1,990.72069,1036.5469)"
     style="fill:#f7b239"
     points="156.905,267.42 156.905,448 126.015,448 126.015,267.42 156.905,267.42  "
     id="polyline8-0-7" /><polygon
     transform="matrix(-1,0,0,1,990.72069,1036.5469)"
     style="fill:#f7b239"
     points="120.165,6 162.865,227.52 126.015,227.52 100.215,6 "
     id="polygon10-8-8" /><path
     inkscape:connector-curvature="0"
     style="fill:#333333"
     d="m 650.49569,1258.0669 h 172.406 l 41.762,-216.656 c 0.334,-1.73 1.41,-3.226 2.945,-4.091 1.536,-0.866 3.375,-1.012 5.026,-0.401 l 18.95,7 c 2.596,0.959 4.2,3.568 3.881,6.317 l -24.76,214.174 v 220.137 c 0,3.313 -2.686,6 -6,6 h -30.889 c -3.313,0 -6,-2.686 -6,-6 v -114.74 h -129.29 v 114.74 c 0,3.313 -2.686,6 -6,6 h -30.891 c -3.313,0 -6,-2.686 -6,-6 v -174.58 h -5.14 c -10.234,0 -18.561,-8.326 -18.561,-18.56 v -14.77 c 10e-4,-10.24 8.327,-18.57 18.561,-18.57 m 232.508,-204.525 -7.894,-2.916 -39.987,207.442 h 24.237 l 23.644,-204.526 m -43.187,425.005 h 18.89 v -168.58 h -18.89 v 168.58 m -141.29,-120.74 h 129.29 v -12.65 h -129.29 v 12.65 m 129.29,-24.65 v -23.19 h -129.29 v 23.19 h 129.29 m -160.181,145.39 h 18.891 v -168.58 h -18.891 v 168.58 m -23.7,-187.14 c 0,3.618 2.944,6.56 6.561,6.56 h 208.21 v -27.9 h -208.21 c -3.617,0 -6.561,2.947 -6.561,6.57 v 14.77"
     id="path12-8-4" /><polyline
     transform="matrix(-1,0,0,1,990.72069,1036.5469)"
     style="fill:#a17a36"
     points="150.904,273.42 132.015,273.42 132.015,291.42 150.904,291.42 150.904,273.42  "
     id="polyline14-8-4" /><polyline
     transform="matrix(-1,0,0,1,990.72069,1036.5469)"
     style="fill:#333333"
     points="156.905,267.42 126.015,267.42 126.015,291.42 132.015,291.42 132.015,273.42    150.904,273.42 150.904,291.42 156.905,291.42 156.905,267.42  "
     id="polyline16-5-9" /><polyline
     transform="matrix(-1,0,0,1,990.72069,1036.5469)"
     style="fill:#a17a36"
     points="323.085,273.42 304.194,273.42 304.194,291.42 323.085,291.42 323.085,273.42  "
     id="polyline18-1-7" /><polyline
     transform="matrix(-1,0,0,1,990.72069,1036.5469)"
     style="fill:#333333"
     points="329.085,267.42 298.195,267.42 298.195,291.42 304.194,291.42 304.194,273.42    323.085,273.42 323.085,291.42 329.085,291.42 329.085,267.42  "
     id="polyline20-82-5" /></g></svg>