<?xml version="1.0" encoding="UTF-8" standalone="no"?>
<!-- Created with Inkscape (http://www.inkscape.org/) -->

<svg
   xmlns:dc="http://purl.org/dc/elements/1.1/"
   xmlns:cc="http://creativecommons.org/ns#"
   xmlns:rdf="http://www.w3.org/1999/02/22-rdf-syntax-ns#"
   xmlns:svg="http://www.w3.org/2000/svg"
   xmlns="http://www.w3.org/2000/svg"
   xmlns:sodipodi="http://sodipodi.sourceforge.net/DTD/sodipodi-0.dtd"
   xmlns:inkscape="http://www.inkscape.org/namespaces/inkscape"
   width="210mm"
   height="297mm"
   viewBox="0 0 210 297"
   version="1.1"
   id="svg8"
   inkscape:version="0.92.4 (5da689c313, 2019-01-14)"
   sodipodi:docname="Spielfiguren.svg">
  <defs
     id="defs2" />
  <sodipodi:namedview
     id="base"
     pagecolor="#ffffff"
     bordercolor="#666666"
     borderopacity="1.0"
     inkscape:pageopacity="0.0"
     inkscape:pageshadow="2"
     inkscape:zoom="0.75304688"
     inkscape:cx="406.64283"
     inkscape:cy="631.64732"
     inkscape:document-units="mm"
     inkscape:current-layer="layer1"
     showgrid="false"
     inkscape:window-width="1920"
     inkscape:window-height="1137"
     inkscape:window-x="-8"
     inkscape:window-y="-8"
     inkscape:window-maximized="1" />
  <metadata
     id="metadata5">
    <rdf:RDF>
      <cc:Work
         rdf:about="">
        <dc:format>image/svg+xml</dc:format>
        <dc:type
           rdf:resource="http://purl.org/dc/dcmitype/StillImage" />
        <dc:title></dc:title>
      </cc:Work>
    </rdf:RDF>
  </metadata>
  <g
     inkscape:label="Layer 1"
     inkscape:groupmode="layer"
     id="layer1">
    <g
       id="g4942">
      <path
         sodipodi:nodetypes="ccscscccccccccssc"
         style="fill:#fef5a8;fill-opacity:1;stroke-width:0.34823611"
         d="m 42.017557,91.255043 c 3.370936,-1.415047 3.920652,-3.181699 2.524648,-8.113781 -1.218003,-4.303231 -1.349154,-8.444786 -0.599488,-18.931105 1.011122,-14.143536 1.005322,-12.853418 0.05974,-13.270395 -1.027554,-0.453118 -1.931365,-0.212718 -1.931365,0.513724 0,0.748378 -3.966926,14.751201 -5.802289,20.481446 -0.831792,2.597007 -2.435565,6.653978 -3.563905,9.015498 -2.085135,4.363923 -3.566284,8.877151 -3.112066,9.482724 0.389579,0.519364 2.399491,1.290598 4.163413,1.597531 2.46529,0.428985 6.234743,0.07503 8.261343,-0.775642 z M 44.173724,49.40436 c 0.394138,-0.324746 0.550446,-0.818165 0.425572,-1.343426 -0.870551,-3.662107 -0.333479,-6.780165 1.511047,-8.772733 1.772519,-1.914771 0.821116,-2.996085 -2.219521,-2.522608 -4.541638,0.707207 -6.355454,4.506714 -4.506317,9.439584 1.156095,3.084056 3.239707,4.475904 4.789219,3.199183 z"
         id="path839-7-1-6"
         inkscape:connector-curvature="0" />
      <path
         style="fill:#fbed00;fill-opacity:1;stroke-width:0.26458335"
         d="m 35.090106,100.33682 c -3.58744,-0.28661 -6.38619,-0.907504 -7.10366,-1.575934 -0.51813,-0.48271 -0.56926,-0.80046 -0.56926,-3.53781 v -3.00747 l 3.94506,-10.80671 c 2.16979,-5.94369 5.26541,-14.41815 6.87917,-18.832144 1.61376,-4.413994 2.93411,-8.21259 2.93411,-8.441325 0,-0.228732 -0.71616,-1.063961 -1.59146,-1.856063 -1.81826,-1.645433 -2.75331,-3.099512 -3.46632,-5.390425 -1.23895,-3.980754 -0.006,-8.446513 3.14584,-11.394737 4.42406,-4.138194 11.04148,-4.138194 15.46554,0 3.79788,3.552468 4.692,9.137918 2.24662,14.034321 -0.62095,1.243327 -2.15225,2.95638 -3.60259,4.0302 l -0.89924,0.665789 0.6809,2.103425 c 0.37449,1.156882 2.2286,6.865924 4.12023,12.686757 1.89163,5.820832 3.87479,12.012082 4.40703,13.758332 0.53223,1.74625 1.43427,4.62845 2.00453,6.40488 0.93441,2.91081 1.03683,3.50357 1.03683,6.00037 0,2.8602 -0.12322,3.23049 -1.2774,3.8386 -0.84823,0.44691 -4.43381,1.082874 -7.58614,1.345534 -3.72325,0.31022 -16.7677,0.29415 -20.76979,-0.0256 z m 6.84227,-9.610944 c 2.32483,-1.18443 2.70395,-2.66316 1.74117,-6.79143 -0.84002,-3.60191 -0.93047,-7.06849 -0.41345,-15.845793 0.69734,-11.838475 0.69334,-10.758612 0.0412,-11.107637 -0.70867,-0.379267 -1.332,-0.178044 -1.332,0.429998 0,0.626409 -2.73586,12.347109 -4.00165,17.143462 -0.57366,2.17376 -1.67973,5.56954 -2.45791,7.54619 -1.43805,3.65271 -2.45955,7.43039 -2.14629,7.93727 0.26868,0.43472 1.65485,1.08026 2.87137,1.33717 1.70023,0.35907 4.2999,0.0628 5.69758,-0.64923 z m 1.48704,-42.11683 c 0.27182,-0.27182 0.37962,-0.684824 0.2935,-1.12448 -0.60039,-3.065272 -0.22999,-5.675161 1.04212,-7.342989 1.22245,-1.602708 0.5663,-2.507795 -1.53073,-2.111483 -3.13222,0.591949 -4.38315,3.772228 -3.10786,7.901159 0.79732,2.581429 2.23432,3.746439 3.30297,2.677793 z"
         id="path839"
         inkscape:connector-curvature="0" />
    </g>
    <g
       id="g4946">
      <path
         sodipodi:nodetypes="ccscscccccccccssc"
         style="fill:#fcbd72;fill-opacity:1;stroke-width:0.34472007"
         d="m 101.26255,91.78421 c 3.3032,-1.415049 3.84188,-3.1817 2.47392,-8.113781 -1.19353,-4.303233 -1.32205,-8.444787 -0.58745,-18.931105 0.99081,-14.143536 0.98514,-12.853418 0.0585,-13.270395 -1.00691,-0.453118 -1.89256,-0.212718 -1.89256,0.513724 0,0.748378 -3.887216,14.751202 -5.685704,20.481445 -0.81508,2.597008 -2.386631,6.653977 -3.492302,9.015498 -2.043242,4.363925 -3.494633,8.877152 -3.04954,9.482726 0.381751,0.519364 2.351281,1.290596 4.079765,1.597529 2.415758,0.428984 6.109477,0.07503 8.095341,-0.775641 z m 2.11284,-41.850683 c 0.38622,-0.324746 0.53939,-0.818165 0.41702,-1.343426 -0.85305,-3.662107 -0.32678,-6.780165 1.48069,-8.772733 1.73691,-1.914771 0.80462,-2.996085 -2.17492,-2.522608 -4.45038,0.707207 -6.227755,4.506714 -4.415769,9.439584 1.132862,3.084056 3.174589,4.475904 4.692979,3.199183 z"
         id="path839-7-1"
         inkscape:connector-curvature="0" />
      <path
         style="fill:#ff7d01;fill-opacity:1;stroke-width:0.26458338"
         d="m 94.01979,100.33682 c -3.58744,-0.28661 -6.38619,-0.907504 -7.10366,-1.575934 -0.51813,-0.48271 -0.56926,-0.80046 -0.56926,-3.53781 v -3.00747 l 3.94506,-10.80671 c 2.16979,-5.943689 5.26541,-14.41815 6.87917,-18.832144 1.61376,-4.413994 2.93411,-8.21259 2.93411,-8.441325 0,-0.228732 -0.71616,-1.063961 -1.59146,-1.856063 -1.81826,-1.645433 -2.75331,-3.099512 -3.46632,-5.390425 -1.23895,-3.980754 -0.006,-8.446513 3.14584,-11.394737 4.42406,-4.138194 11.04148,-4.138194 15.46554,0 3.79788,3.552468 4.692,9.137918 2.24662,14.034321 -0.62095,1.243327 -2.15225,2.95638 -3.60259,4.0302 l -0.89924,0.665789 0.6809,2.103425 c 0.37449,1.156882 2.2286,6.865924 4.12023,12.686757 1.89163,5.820831 3.87479,12.012082 4.40703,13.758332 0.53223,1.74625 1.43427,4.62845 2.00453,6.40488 0.93441,2.91081 1.03683,3.50357 1.03683,6.00037 0,2.8602 -0.12322,3.23049 -1.2774,3.8386 -0.84823,0.44691 -4.43381,1.082874 -7.58614,1.345534 -3.72325,0.31022 -16.7677,0.29415 -20.76979,-0.0256 z m 6.84227,-9.610944 c 2.32483,-1.18443 2.70395,-2.66316 1.74117,-6.79143 -0.84002,-3.60191 -0.93047,-7.06849 -0.41345,-15.845793 0.69734,-11.838475 0.69334,-10.758612 0.0412,-11.107637 -0.70867,-0.379267 -1.332,-0.178044 -1.332,0.429998 0,0.626409 -2.73586,12.347109 -4.00165,17.143463 -0.57366,2.173758 -1.67973,5.569539 -2.45791,7.546189 -1.43805,3.65271 -2.45955,7.43039 -2.14629,7.93727 0.26868,0.43472 1.65485,1.08026 2.87137,1.33717 1.70023,0.35907 4.2999,0.0628 5.69758,-0.64923 z m 1.48704,-42.11683 c 0.27182,-0.27182 0.37962,-0.684824 0.2935,-1.12448 -0.60039,-3.065272 -0.22999,-5.675161 1.04212,-7.342989 1.22245,-1.602708 0.5663,-2.507796 -1.53073,-2.111483 -3.13222,0.591949 -4.38315,3.772228 -3.10786,7.901159 0.79732,2.581429 2.23432,3.746439 3.30297,2.677793 z"
         id="path839-0"
         inkscape:connector-curvature="0" />
    </g>
    <g
       id="g4938">
      <path
         sodipodi:nodetypes="ccscscccccccccssc"
         style="fill:#f3957d;fill-opacity:1;stroke-width:0.34906563"
         d="m 160.46575,91.784209 c 3.38701,-1.415047 3.93935,-3.181699 2.53669,-8.113781 -1.22382,-4.303231 -1.35559,-8.444786 -0.60235,-18.931105 1.01595,-14.143536 1.01011,-12.853418 0.06,-13.270395 -1.03246,-0.453118 -1.94058,-0.212718 -1.94058,0.513724 0,0.748378 -3.98585,14.751201 -5.82996,20.481446 -0.83577,2.597007 -2.44719,6.653978 -3.58091,9.015498 -2.09508,4.363923 -3.58329,8.877151 -3.12691,9.482724 0.39143,0.519364 2.41093,1.290598 4.18327,1.597531 2.47705,0.428985 6.26448,0.07503 8.30075,-0.775642 z m 2.16645,-41.850683 c 0.39602,-0.324746 0.55307,-0.818165 0.4276,-1.343426 -0.8747,-3.662107 -0.33506,-6.780165 1.51826,-8.772733 1.78097,-1.914771 0.82503,-2.996085 -2.23011,-2.522608 -4.5633,0.707207 -6.38577,4.506714 -4.52781,9.439584 1.16161,3.084056 3.25515,4.475904 4.81206,3.199183 z"
         id="path839-7-1-6-3"
         inkscape:connector-curvature="0" />
      <path
         style="fill:#ff0e00;fill-opacity:1;stroke-width:0.26458338"
         d="m 152.94948,100.33681 c -3.58744,-0.2866 -6.38619,-0.907495 -7.10366,-1.575925 -0.51813,-0.482709 -0.56926,-0.80046 -0.56926,-3.53781 v -3.007469 l 3.94506,-10.80671 c 2.16979,-5.94369 5.26541,-14.418151 6.87917,-18.832145 1.61376,-4.413994 2.93411,-8.21259 2.93411,-8.441325 0,-0.228732 -0.71616,-1.063961 -1.59146,-1.856063 -1.81826,-1.645433 -2.75331,-3.099512 -3.46632,-5.390425 -1.23895,-3.980754 -0.006,-8.446513 3.14584,-11.394737 4.42406,-4.138194 11.04148,-4.138194 15.46554,0 3.79788,3.552468 4.692,9.137918 2.24662,14.034321 -0.62095,1.243327 -2.15224,2.95638 -3.60259,4.0302 l -0.89924,0.665789 0.6809,2.103425 c 0.37449,1.156882 2.2286,6.865924 4.12023,12.686757 1.89163,5.820831 3.87479,12.012081 4.40703,13.758331 0.53224,1.74625 1.43427,4.628451 2.00453,6.40488 0.93441,2.910811 1.03683,3.50357 1.03683,6.000371 0,2.860199 -0.12322,3.230489 -1.2774,3.838599 -0.84823,0.446911 -4.43381,1.082876 -7.58614,1.345536 -3.72325,0.31022 -16.7677,0.29415 -20.76979,-0.0256 z m 6.84227,-9.610935 c 2.32483,-1.184431 2.70395,-2.663161 1.74117,-6.791431 -0.84002,-3.60191 -0.93047,-7.068489 -0.41345,-15.845792 0.69734,-11.838475 0.69334,-10.758612 0.0412,-11.107637 -0.70867,-0.379267 -1.332,-0.178044 -1.332,0.429998 0,0.626409 -2.73586,12.347109 -4.00165,17.143463 -0.57366,2.173758 -1.67973,5.56954 -2.45791,7.546189 -1.43805,3.65271 -2.45955,7.430389 -2.14629,7.93727 0.26868,0.434721 1.65485,1.080259 2.87137,1.337169 1.70023,0.359072 4.2999,0.0628 5.69758,-0.649229 z m 1.48704,-42.11683 c 0.27182,-0.27182 0.37962,-0.684824 0.2935,-1.12448 -0.60039,-3.065272 -0.22999,-5.675161 1.04212,-7.342989 1.22245,-1.602708 0.5663,-2.507795 -1.53073,-2.111483 -3.13222,0.591949 -4.38315,3.772228 -3.10786,7.901159 0.79732,2.581429 2.23432,3.746439 3.30297,2.677793 z"
         id="path839-6"
         inkscape:connector-curvature="0" />
    </g>
    <g
       id="g4958">
      <path
         sodipodi:nodetypes="ccscscccccccccssc"
         style="fill:#af649f;fill-opacity:1;stroke-width:0.31902549"
         d="m 42.124014,173.26672 c 2.829136,-1.41505 3.290498,-3.1817 2.11887,-8.11378 -1.022241,-4.30323 -1.13231,-8.44479 -0.503135,-18.93111 0.848612,-14.14353 0.843732,-12.85341 0.05011,-13.27039 -0.862403,-0.45312 -1.62094,-0.21272 -1.62094,0.51372 0,0.74838 -3.329337,14.7512 -4.869706,20.48145 -0.698104,2.59701 -2.044105,6.65398 -2.991092,9.0155 -1.749997,4.36392 -2.993079,8.87715 -2.61187,9.48272 0.326959,0.51936 2.013822,1.2906 3.494237,1.59753 2.06905,0.42899 5.232652,0.075 6.933521,-0.77564 z m 1.809614,-41.85068 c 0.330789,-0.32475 0.461974,-0.81817 0.357171,-1.34343 -0.730628,-3.66211 -0.27988,-6.78016 1.26818,-8.77273 1.487627,-1.91477 0.68914,-2.99609 -1.862785,-2.52261 -3.811672,0.70721 -5.333961,4.50671 -3.782031,9.43958 0.970283,3.08406 2.718995,4.47591 4.019465,3.19919 z"
         id="path839-7-1-6-3-5"
         inkscape:connector-curvature="0" />
      <path
         style="fill:#6a085b;fill-opacity:1;stroke-width:0.26458338"
         d="m 35.090106,182.34849 c -3.58744,-0.28661 -6.38619,-0.9075 -7.10366,-1.57593 -0.51813,-0.48271 -0.56926,-0.80046 -0.56926,-3.53781 v -3.00747 l 3.94506,-10.80671 c 2.16979,-5.94369 5.26541,-14.41815 6.87917,-18.83215 1.61376,-4.41399 2.93411,-8.21259 2.93411,-8.44132 0,-0.22873 -0.71616,-1.06396 -1.59146,-1.85606 -1.81826,-1.64544 -2.75331,-3.09952 -3.46632,-5.39043 -1.23895,-3.98075 -0.006,-8.44651 3.14584,-11.39474 4.42406,-4.1382 11.04148,-4.1382 15.46554,0 3.79788,3.55247 4.692,9.13792 2.24662,14.03432 -0.62095,1.24333 -2.15225,2.95638 -3.60259,4.0302 l -0.89924,0.66579 0.6809,2.10343 c 0.37449,1.15688 2.2286,6.86592 4.12023,12.68676 1.89163,5.82083 3.87479,12.01208 4.40703,13.75833 0.53223,1.74625 1.43427,4.62845 2.00453,6.40488 0.93441,2.91081 1.03683,3.50357 1.03683,6.00037 0,2.8602 -0.12322,3.23049 -1.2774,3.8386 -0.84823,0.44691 -4.43381,1.08287 -7.58614,1.34553 -3.72325,0.31022 -16.7677,0.29415 -20.76979,-0.0256 z m 6.84227,-9.61094 c 2.32483,-1.18443 2.70395,-2.66316 1.74117,-6.79143 -0.84002,-3.60191 -0.93047,-7.06849 -0.41345,-15.8458 0.69734,-11.83847 0.69334,-10.75861 0.0412,-11.10763 -0.70867,-0.37927 -1.332,-0.17805 -1.332,0.43 0,0.6264 -2.73586,12.3471 -4.00165,17.14346 -0.57366,2.17376 -1.67973,5.56954 -2.45791,7.54619 -1.43805,3.65271 -2.45955,7.43039 -2.14629,7.93727 0.26868,0.43472 1.65485,1.08026 2.87137,1.33717 1.70023,0.35907 4.2999,0.0628 5.69758,-0.64923 z m 1.48704,-42.11683 c 0.27182,-0.27182 0.37962,-0.68483 0.2935,-1.12448 -0.60039,-3.06527 -0.22999,-5.67516 1.04212,-7.34299 1.22245,-1.60271 0.5663,-2.5078 -1.53073,-2.11148 -3.13222,0.59194 -4.38315,3.77222 -3.10786,7.90115 0.79732,2.58143 2.23432,3.74644 3.30297,2.6778 z"
         id="path839-5"
         inkscape:connector-curvature="0" />
    </g>
    <g
       id="g4954">
      <path
         sodipodi:nodetypes="ccscscccccccccssc"
         style="fill:#4f85f6;fill-opacity:1;stroke-width:0.31902549"
         d="m 101.09112,173.26671 c 2.82913,-1.41505 3.2905,-3.1817 2.11887,-8.11378 -1.02224,-4.30323 -1.13231,-8.44479 -0.50314,-18.93111 0.84861,-14.14353 0.84374,-12.85341 0.0501,-13.27039 -0.8624,-0.45312 -1.62094,-0.21272 -1.62094,0.51372 0,0.74838 -3.329331,14.7512 -4.8697,20.48145 -0.698104,2.59701 -2.044105,6.65398 -2.991092,9.0155 -1.749996,4.36392 -2.993078,8.87715 -2.61187,9.48272 0.326959,0.51936 2.013823,1.2906 3.494238,1.59753 2.06905,0.42899 5.23265,0.075 6.933514,-0.77564 z m 1.80961,-41.85068 c 0.33079,-0.32475 0.46198,-0.81817 0.35717,-1.34343 -0.73062,-3.66211 -0.27988,-6.78016 1.26818,-8.77273 1.48763,-1.91479 0.68914,-2.9961 -1.86278,-2.52262 -3.811665,0.7072 -5.333955,4.50672 -3.782024,9.43959 0.970277,3.08406 2.718984,4.47591 4.019454,3.19919 z"
         id="path839-7-1-6-3-2"
         inkscape:connector-curvature="0" />
      <path
         style="fill:#06276c;fill-opacity:1;stroke-width:0.26458338"
         d="m 94.019792,182.34848 c -3.58744,-0.28661 -6.38619,-0.9075 -7.10366,-1.57593 -0.51813,-0.4827 -0.56926,-0.80046 -0.56926,-3.53781 v -3.00746 l 3.94506,-10.80671 c 2.16979,-5.94369 5.26541,-14.41816 6.87917,-18.83215 1.61376,-4.41399 2.934108,-8.21259 2.934108,-8.44132 0,-0.22874 -0.716158,-1.06397 -1.591458,-1.85607 -1.81826,-1.64543 -2.75331,-3.09951 -3.46632,-5.39042 -1.23895,-3.98076 -0.006,-8.44653 3.14584,-11.39474 4.424058,-4.13819 11.041478,-4.13819 15.465538,0 3.79788,3.55246 4.692,9.13792 2.24662,14.03432 -0.62095,1.24333 -2.15225,2.95638 -3.60259,4.0302 l -0.89924,0.66579 0.6809,2.10343 c 0.37449,1.15688 2.2286,6.86592 4.12023,12.68675 1.89163,5.82083 3.87479,12.01208 4.40703,13.75833 0.53223,1.74625 1.43427,4.62845 2.00453,6.40488 0.93441,2.91081 1.03683,3.50357 1.03683,6.00037 0,2.8602 -0.12322,3.23049 -1.2774,3.8386 -0.84823,0.44691 -4.43381,1.08287 -7.58614,1.34553 -3.72325,0.31023 -16.767698,0.29415 -20.769788,-0.0256 z m 6.842268,-9.61094 c 2.32483,-1.18443 2.70395,-2.66316 1.74117,-6.79143 -0.84002,-3.60191 -0.93047,-7.06849 -0.41345,-15.84579 0.69734,-11.83847 0.69334,-10.75861 0.0412,-11.10764 -0.70867,-0.37926 -1.332,-0.17804 -1.332,0.43 0,0.62641 -2.735858,12.34711 -4.001648,17.14347 -0.57366,2.17375 -1.67973,5.56954 -2.45791,7.54618 -1.43805,3.65271 -2.45955,7.43039 -2.14629,7.93727 0.26868,0.43473 1.65485,1.08026 2.87137,1.33717 1.70023,0.35908 4.2999,0.0628 5.697578,-0.64923 z m 1.48704,-42.11683 c 0.27182,-0.27182 0.37962,-0.68482 0.2935,-1.12448 -0.60039,-3.06527 -0.22999,-5.67516 1.04212,-7.34298 1.22245,-1.60271 0.5663,-2.5078 -1.53073,-2.11149 -3.132218,0.59195 -4.383148,3.77223 -3.107858,7.90116 0.79732,2.58143 2.234318,3.74644 3.302968,2.67779 z"
         id="path839-66"
         inkscape:connector-curvature="0" />
    </g>
    <g
       id="g4950">
      <path
         sodipodi:nodetypes="ccscscccccccccssc"
         style="fill:#94c3f9;fill-opacity:1;stroke-width:0.31902549"
         d="m 160.05822,173.79588 c 2.82913,-1.41505 3.2905,-3.1817 2.11887,-8.11378 -1.02224,-4.30323 -1.13231,-8.44479 -0.50314,-18.93109 0.84862,-14.14354 0.84374,-12.85342 0.0501,-13.2704 -0.8624,-0.45312 -1.62094,-0.21273 -1.62094,0.51372 0,0.74838 -3.32934,14.75121 -4.86971,20.48145 -0.6981,2.59701 -2.0441,6.65398 -2.99109,9.0155 -1.75,4.36392 -2.99308,8.87715 -2.61187,9.48272 0.32696,0.51937 2.01382,1.2906 3.49424,1.59753 2.06905,0.42899 5.23265,0.075 6.93352,-0.77565 z m 1.80961,-41.85068 c 0.33079,-0.32475 0.46198,-0.81817 0.35717,-1.34343 -0.73062,-3.6621 -0.27988,-6.78016 1.26818,-8.77273 1.48763,-1.91477 0.68914,-2.99609 -1.86278,-2.52261 -3.81167,0.70721 -5.33396,4.50672 -3.78203,9.43959 0.97028,3.08405 2.71899,4.4759 4.01946,3.19918 z"
         id="path839-7-1-6-3-56"
         inkscape:connector-curvature="0" />
      <path
         style="fill:#0f23da;fill-opacity:1;stroke-width:0.26458338"
         d="m 152.94947,182.34848 c -3.58744,-0.2866 -6.38619,-0.9075 -7.10366,-1.57593 -0.51813,-0.4827 -0.56926,-0.80045 -0.56926,-3.53781 v -3.00747 l 3.94506,-10.80671 c 2.16979,-5.94369 5.26541,-14.41815 6.87917,-18.83215 1.61376,-4.41399 2.93411,-8.21259 2.93411,-8.44132 0,-0.22873 -0.71616,-1.06396 -1.59146,-1.85606 -1.81826,-1.64544 -2.75331,-3.09952 -3.46632,-5.39043 -1.23895,-3.98075 -0.006,-8.44651 3.14584,-11.39474 4.42406,-4.13819 11.04149,-4.13819 15.46555,0 3.79788,3.55247 4.692,9.13792 2.24662,14.03432 -0.62095,1.24333 -2.15225,2.95638 -3.60259,4.0302 l -0.89924,0.66579 0.6809,2.10343 c 0.37449,1.15688 2.2286,6.86592 4.12023,12.68676 1.89163,5.82083 3.87479,12.01208 4.40703,13.75833 0.53223,1.74625 1.43427,4.62845 2.00453,6.40488 0.93441,2.91081 1.03683,3.50357 1.03683,6.00037 0,2.8602 -0.12322,3.23049 -1.2774,3.8386 -0.84823,0.44691 -4.43381,1.08287 -7.58614,1.34553 -3.72325,0.31022 -16.76771,0.29415 -20.7698,-0.0256 z m 6.84227,-9.61094 c 2.32483,-1.18442 2.70395,-2.66316 1.74117,-6.79142 -0.84002,-3.60191 -0.93047,-7.06849 -0.41345,-15.8458 0.69734,-11.83847 0.69334,-10.75861 0.0412,-11.10763 -0.70867,-0.37928 -1.332,-0.17806 -1.332,0.43 0,0.6264 -2.73586,12.3471 -4.00165,17.14346 -0.57366,2.17376 -1.67973,5.56954 -2.45791,7.54619 -1.43805,3.65271 -2.45955,7.43039 -2.14629,7.93727 0.26868,0.43472 1.65485,1.08026 2.87137,1.33717 1.70023,0.35907 4.2999,0.0628 5.69758,-0.64923 z m 1.48704,-42.11682 c 0.27182,-0.27183 0.37962,-0.68483 0.2935,-1.12448 -0.60039,-3.06527 -0.22999,-5.67517 1.04213,-7.343 1.22245,-1.60271 0.5663,-2.5078 -1.53074,-2.11149 -3.13222,0.59195 -4.38315,3.77223 -3.10786,7.90117 0.79732,2.58142 2.23432,3.74643 3.30297,2.6778 z"
         id="path839-9"
         inkscape:connector-curvature="0" />
    </g>
    <g
       id="g4970">
      <path
         sodipodi:nodetypes="ccscscccccccccssc"
         style="fill:#8dd0f2;fill-opacity:1;stroke-width:0.31902549"
         d="m 42.124014,255.27839 c 2.829136,-1.41504 3.290498,-3.1817 2.11887,-8.11378 -1.022241,-4.30323 -1.13231,-8.44478 -0.503135,-18.9311 0.848612,-14.14354 0.843732,-12.85342 0.05011,-13.2704 -0.862403,-0.45312 -1.62094,-0.21272 -1.62094,0.51373 0,0.74837 -3.329337,14.7512 -4.869707,20.48144 -0.698104,2.59701 -2.044104,6.65398 -2.991091,9.0155 -1.749997,4.36392 -2.993079,8.87715 -2.61187,9.48272 0.326959,0.51937 2.013822,1.2906 3.494237,1.59753 2.06905,0.42899 5.232652,0.075 6.933521,-0.77564 z m 1.809614,-41.85068 c 0.330789,-0.32475 0.461974,-0.81817 0.357171,-1.34343 -0.730628,-3.6621 -0.27988,-6.78016 1.26818,-8.77273 1.487627,-1.91477 0.68914,-2.99608 -1.862785,-2.52261 -3.811672,0.70721 -5.333961,4.50672 -3.782031,9.43959 0.970283,3.08405 2.718995,4.4759 4.019465,3.19918 z"
         id="path839-7-1-6-3-1"
         inkscape:connector-curvature="0" />
      <path
         style="fill:#008cc4;fill-opacity:1;stroke-width:0.26458338"
         d="m 35.090107,264.36016 c -3.587441,-0.28661 -6.386191,-0.9075 -7.103661,-1.57593 -0.51813,-0.48271 -0.56926,-0.80046 -0.56926,-3.53781 v -3.00747 l 3.94506,-10.80671 c 2.16979,-5.94369 5.265411,-14.41815 6.87917,-18.83214 1.61376,-4.414 2.93411,-8.21259 2.93411,-8.44133 0,-0.22873 -0.71616,-1.06396 -1.59146,-1.85606 -1.81826,-1.64543 -2.753309,-3.09951 -3.466319,-5.39042 -1.23895,-3.98076 -0.006,-8.44652 3.145839,-11.39474 4.42406,-4.1382 11.04148,-4.1382 15.465541,0 3.79788,3.55247 4.692,9.13792 2.24662,14.03432 -0.62095,1.24333 -2.15225,2.95638 -3.602591,4.0302 l -0.89924,0.66579 0.6809,2.10342 c 0.37449,1.15689 2.228601,6.86593 4.120231,12.68676 1.89163,5.82083 3.87479,12.01208 4.40703,13.75833 0.53223,1.74625 1.43427,4.62845 2.00453,6.40488 0.93441,2.91081 1.03683,3.50357 1.03683,6.00037 0,2.8602 -0.12322,3.23049 -1.2774,3.8386 -0.84823,0.44691 -4.43381,1.08287 -7.58614,1.34553 -3.723251,0.31022 -16.767701,0.29415 -20.76979,-0.0256 z m 6.842269,-9.61094 c 2.32483,-1.18443 2.70395,-2.66316 1.74117,-6.79143 -0.84002,-3.60191 -0.93047,-7.06849 -0.41345,-15.84579 0.69734,-11.83848 0.69334,-10.75861 0.0412,-11.10764 -0.70867,-0.37926 -1.332,-0.17804 -1.332,0.43 0,0.62641 -2.73586,12.34711 -4.00165,17.14346 -0.573659,2.17376 -1.679729,5.56954 -2.457909,7.54619 -1.438051,3.65271 -2.45955,7.43039 -2.14629,7.93727 0.268679,0.43472 1.65485,1.08026 2.87137,1.33717 1.700229,0.35907 4.299899,0.0628 5.697579,-0.64923 z m 1.48704,-42.11683 c 0.27182,-0.27182 0.37962,-0.68482 0.2935,-1.12448 -0.60039,-3.06527 -0.22999,-5.67516 1.04212,-7.34299 1.22245,-1.6027 0.5663,-2.50779 -1.53073,-2.11148 -3.13222,0.59195 -4.38315,3.77223 -3.10786,7.90116 0.79732,2.58143 2.23432,3.74644 3.30297,2.67779 z"
         id="path839-94"
         inkscape:connector-curvature="0" />
    </g>
    <g
       id="g4966">
      <path
         sodipodi:nodetypes="ccscscccccccccssc"
         style="fill:#a2d1c7;fill-opacity:1;stroke-width:0.31902549"
         d="m 101.0911,255.27839 c 2.82913,-1.41505 3.2905,-3.1817 2.11887,-8.11378 -1.02224,-4.30323 -1.13231,-8.44479 -0.50314,-18.93111 0.84861,-14.14353 0.84374,-12.85342 0.0501,-13.27039 -0.86241,-0.45312 -1.62094,-0.21272 -1.62094,0.51372 0,0.74838 -3.32933,14.7512 -4.8697,20.48145 -0.698104,2.597 -2.044104,6.65398 -2.991091,9.0155 -1.749996,4.36392 -2.993079,8.87715 -2.61187,9.48272 0.326959,0.51936 2.013822,1.2906 3.494237,1.59753 2.069051,0.42899 5.23265,0.075 6.933514,-0.77564 z m 1.80961,-41.85068 c 0.33079,-0.32475 0.46198,-0.81817 0.35717,-1.34343 -0.73062,-3.66211 -0.27988,-6.78017 1.26818,-8.77273 1.48763,-1.91477 0.68914,-2.99609 -1.86278,-2.52261 -3.811665,0.70721 -5.333954,4.50671 -3.782024,9.43958 0.970277,3.08406 2.718984,4.47591 4.019454,3.19919 z"
         id="path839-7-1-6-3-6"
         inkscape:connector-curvature="0" />
      <path
         style="fill:#02857d;fill-opacity:1;stroke-width:0.26458338"
         d="m 94.019793,264.36016 c -3.58744,-0.28661 -6.38619,-0.9075 -7.10366,-1.57593 -0.51813,-0.48271 -0.56926,-0.80046 -0.56926,-3.53781 v -3.00747 l 3.94506,-10.80671 c 2.16979,-5.94369 5.26541,-14.41815 6.87917,-18.83215 1.61376,-4.41399 2.934107,-8.21259 2.934107,-8.44132 0,-0.22873 -0.716157,-1.06396 -1.591457,-1.85606 -1.81826,-1.64544 -2.75331,-3.09952 -3.46632,-5.39043 -1.23895,-3.98075 -0.006,-8.44651 3.14584,-11.39474 4.424057,-4.13819 11.041477,-4.13819 15.465537,0 3.79788,3.55247 4.692,9.13792 2.24662,14.03432 -0.62094,1.24333 -2.15224,2.95638 -3.60259,4.0302 l -0.89924,0.66579 0.6809,2.10343 c 0.37449,1.15688 2.22861,6.86592 4.12024,12.68676 1.89162,5.82083 3.87478,12.01208 4.40703,13.75833 0.53223,1.74625 1.43426,4.62845 2.00452,6.40488 0.93441,2.91081 1.03683,3.50357 1.03683,6.00037 0,2.8602 -0.12321,3.23049 -1.2774,3.8386 -0.84823,0.44691 -4.4338,1.08287 -7.58613,1.34553 -3.72326,0.31022 -16.767707,0.29415 -20.769797,-0.0256 z m 6.842267,-9.61094 c 2.32483,-1.18443 2.70395,-2.66316 1.74117,-6.79143 -0.84002,-3.60191 -0.93047,-7.06849 -0.41345,-15.8458 0.69734,-11.83847 0.69334,-10.75861 0.0412,-11.10763 -0.70867,-0.37927 -1.332,-0.17805 -1.332,0.43 0,0.6264 -2.735857,12.3471 -4.001647,17.14346 -0.57366,2.17376 -1.67973,5.56954 -2.45791,7.54619 -1.43805,3.65271 -2.45955,7.43039 -2.14629,7.93727 0.26868,0.43472 1.65485,1.08026 2.87137,1.33717 1.70023,0.35907 4.2999,0.0628 5.697577,-0.64923 z m 1.48704,-42.11683 c 0.27182,-0.27182 0.37962,-0.68483 0.2935,-1.12448 -0.60039,-3.06527 -0.22999,-5.67516 1.04212,-7.34299 1.22245,-1.60271 0.5663,-2.5078 -1.53073,-2.11148 -3.132217,0.59194 -4.383147,3.77222 -3.107857,7.90115 0.79732,2.58143 2.234317,3.74644 3.302967,2.6778 z"
         id="path839-949"
         inkscape:connector-curvature="0" />
    </g>
    <g
       id="g4962">
      <path
         sodipodi:nodetypes="ccscscccccccccssc"
         style="fill:#869f81;fill-opacity:1;stroke-width:0.31902549"
         d="m 160.05821,255.27839 c 2.82913,-1.41505 3.2905,-3.1817 2.11887,-8.11378 -1.02224,-4.30323 -1.13231,-8.44479 -0.50314,-18.93111 0.84862,-14.14353 0.84374,-12.85341 0.0501,-13.27039 -0.8624,-0.45312 -1.62094,-0.21272 -1.62094,0.51372 0,0.74838 -3.32934,14.7512 -4.86971,20.48145 -0.6981,2.59701 -2.0441,6.65398 -2.99109,9.0155 -1.75,4.36392 -2.99308,8.87715 -2.61187,9.48272 0.32696,0.51936 2.01382,1.2906 3.49424,1.59753 2.06905,0.42899 5.23265,0.075 6.93352,-0.77564 z m 1.80961,-41.85068 c 0.33079,-0.32475 0.46198,-0.81817 0.35717,-1.34343 -0.73062,-3.66211 -0.27988,-6.78016 1.26818,-8.77273 1.48763,-1.91477 0.68914,-2.99609 -1.86278,-2.52261 -3.81167,0.70721 -5.33396,4.50671 -3.78203,9.43958 0.97028,3.08406 2.71899,4.47591 4.01946,3.19919 z"
         id="path839-7-1-6-3-8"
         inkscape:connector-curvature="0" />
      <path
         style="fill:#005729;fill-opacity:1;stroke-width:0.26458338"
         d="m 152.94948,264.36016 c -3.58745,-0.28661 -6.3862,-0.9075 -7.10367,-1.57593 -0.51813,-0.48271 -0.56926,-0.80046 -0.56926,-3.53781 v -3.00747 l 3.94506,-10.80671 c 2.1698,-5.94369 5.26542,-14.41815 6.87918,-18.83214 1.61376,-4.414 2.93411,-8.21259 2.93411,-8.44133 0,-0.22873 -0.71616,-1.06396 -1.59146,-1.85606 -1.81826,-1.64543 -2.75331,-3.09951 -3.46632,-5.39042 -1.23895,-3.98076 -0.006,-8.44652 3.14584,-11.39474 4.42406,-4.1382 11.04148,-4.1382 15.46554,0 3.79788,3.55247 4.692,9.13792 2.24662,14.03432 -0.62095,1.24333 -2.15225,2.95638 -3.60259,4.0302 l -0.89924,0.66579 0.6809,2.10342 c 0.37449,1.15689 2.2286,6.86593 4.12023,12.68676 1.89163,5.82083 3.87479,12.01208 4.40703,13.75833 0.53223,1.74625 1.43427,4.62845 2.00453,6.40488 0.93441,2.91081 1.03683,3.50357 1.03683,6.00037 0,2.8602 -0.12322,3.23049 -1.2774,3.8386 -0.84823,0.44691 -4.43381,1.08287 -7.58614,1.34553 -3.72325,0.31022 -16.7677,0.29415 -20.76979,-0.0256 z m 6.84227,-9.61094 c 2.32483,-1.18443 2.70395,-2.66316 1.74117,-6.79143 -0.84002,-3.60191 -0.93047,-7.06849 -0.41345,-15.84579 0.69734,-11.83848 0.69334,-10.75861 0.0412,-11.10764 -0.70867,-0.37926 -1.332,-0.17804 -1.332,0.43 0,0.62641 -2.73586,12.34711 -4.00165,17.14346 -0.57366,2.17376 -1.67973,5.56954 -2.45791,7.54619 -1.43805,3.65271 -2.45955,7.43039 -2.14629,7.93727 0.26868,0.43472 1.65485,1.08026 2.87137,1.33717 1.70023,0.35907 4.2999,0.0628 5.69758,-0.64923 z m 1.48704,-42.11683 c 0.27182,-0.27182 0.37962,-0.68482 0.2935,-1.12448 -0.60039,-3.06527 -0.22999,-5.67516 1.04212,-7.34299 1.22245,-1.60271 0.5663,-2.50779 -1.53073,-2.11148 -3.13222,0.59195 -4.38315,3.77223 -3.10786,7.90116 0.79732,2.58143 2.23432,3.74644 3.30297,2.67779 z"
         id="path839-02"
         inkscape:connector-curvature="0" />
    </g>
  </g>
</svg>
