<?xml version="1.0" encoding="UTF-8" standalone="no"?>
<!-- Created with Inkscape (http://www.inkscape.org/) -->

<svg
   xmlns:dc="http://purl.org/dc/elements/1.1/"
   xmlns:cc="http://creativecommons.org/ns#"
   xmlns:rdf="http://www.w3.org/1999/02/22-rdf-syntax-ns#"
   xmlns:svg="http://www.w3.org/2000/svg"
   xmlns="http://www.w3.org/2000/svg"
   xmlns:xlink="http://www.w3.org/1999/xlink"
   xmlns:sodipodi="http://sodipodi.sourceforge.net/DTD/sodipodi-0.dtd"
   xmlns:inkscape="http://www.inkscape.org/namespaces/inkscape"
   id="svg2"
   sodipodi:docname="TreasureMap.svg"
   viewBox="0 0 322.19 251.36"
   version="1.1"
   inkscape:version="0.92.2 (5c3e80d, 2017-08-06)">
  <defs
     id="defs2896">
    <marker
       inkscape:stockid="Arrow2Send"
       orient="auto"
       refY="0.0"
       refX="0.0"
       id="Arrow2Send"
       style="overflow:visible;"
       inkscape:isstock="true">
      <path
         id="path3536"
         style="fill-rule:evenodd;stroke-width:0.625;stroke-linejoin:round;stroke:#000000;stroke-opacity:1;fill:#000000;fill-opacity:1"
         d="M 8.7185878,4.0337352 L -2.2072895,0.016013256 L 8.7185884,-4.0017078 C 6.9730900,-1.6296469 6.9831476,1.6157441 8.7185878,4.0337352 z "
         transform="scale(0.3) rotate(180) translate(-2.3,0)" />
    </marker>
    <marker
       inkscape:stockid="Arrow2Mend"
       orient="auto"
       refY="0.0"
       refX="0.0"
       id="Arrow2Mend"
       style="overflow:visible;"
       inkscape:isstock="true">
      <path
         id="path3530"
         style="fill-rule:evenodd;stroke-width:0.625;stroke-linejoin:round;stroke:#000000;stroke-opacity:1;fill:#000000;fill-opacity:1"
         d="M 8.7185878,4.0337352 L -2.2072895,0.016013256 L 8.7185884,-4.0017078 C 6.9730900,-1.6296469 6.9831476,1.6157441 8.7185878,4.0337352 z "
         transform="scale(0.6) rotate(180) translate(0,0)" />
    </marker>
    <marker
       inkscape:stockid="DotS"
       orient="auto"
       refY="0.0"
       refX="0.0"
       id="DotS"
       style="overflow:visible"
       inkscape:isstock="true">
      <path
         id="path3570"
         d="M -2.5,-1.0 C -2.5,1.7600000 -4.7400000,4.0 -7.5,4.0 C -10.260000,4.0 -12.5,1.7600000 -12.5,-1.0 C -12.5,-3.7600000 -10.260000,-6.0 -7.5,-6.0 C -4.7400000,-6.0 -2.5,-3.7600000 -2.5,-1.0 z "
         style="fill-rule:evenodd;stroke:#000000;stroke-width:1pt;stroke-opacity:1;fill:#000000;fill-opacity:1"
         transform="scale(0.2) translate(7.4, 1)" />
    </marker>
  </defs>
  <title
     id="title4103">treasure map</title>
  <sodipodi:namedview
     id="base"
     bordercolor="#666666"
     inkscape:pageshadow="2"
     inkscape:window-y="-8"
     pagecolor="#ffffff"
     inkscape:window-height="1028"
     inkscape:window-maximized="1"
     inkscape:zoom="2.8284271"
     inkscape:window-x="1734"
     showgrid="false"
     borderopacity="1.0"
     inkscape:current-layer="layer1"
     inkscape:cx="145.89565"
     inkscape:cy="120.20256"
     showguides="true"
     inkscape:guide-bbox="true"
     inkscape:window-width="1618"
     inkscape:pageopacity="0.0"
     inkscape:document-units="px" />
  <g
     id="layer1"
     inkscape:label="1. réteg"
     inkscape:groupmode="layer"
     transform="translate(-190.23 -423.27)">
    <g
       id="g3922"
       inkscape:export-filename="D:\MatamekoWiki\mtameko.git\images\TreashureMap.png"
       inkscape:export-xdpi="100"
       inkscape:export-ydpi="100">
      <path
         d="m368.56 423.81c-13.446 0.45632-26.909 0.86431-40.301 2.23-7.5008 0.80759-14.983 1.8595-22.348 3.5131-8.1517 1.7146-16.224 3.8188-24.18 6.286-3.4014 1.2262-7.277 2.0717-9.6553 5.033-2.6358 3.1298-3.6452 7.1889-5.2444 10.871-3.5742 9.26-6.4829 15.645-7.856 25.524-0.32828 0.60831 3.7303 2.6927 3.7474 4.0617 0.0172 1.3821-4.7273 2.0132-4.8124 2.6203-1.1452 8.1699-2.0465 16.373-3.1982 24.542-2.6874 20.288-5.2057 40.599-8.1326 60.855-1.2581 8.5744-2.1117 18.377-3.3779 26.944-0.13808 0.93416 4.3229 0.72903 8.3933 2.5028 1.5716 0.68488-4.3318-1.4396-2.2228 2.3401-1.8315 1.6475-6.954 0.26299-7.0425 0.7275-0.64278 3.3722-2.3752 5.4908-3.0509 8.8562-1.5563 7.2533-3.0421 14.558-5.5399 21.559-0.99386 2.51-2.1068 5.0792-3.9796 7.063-1.0915 0.9712-2.5805 1.14-3.9805 1.0342-3.5931-0.17468-7.1606-0.73296-10.713-1.2833-7.0875-1.1585-14.028-3.0279-21.037-4.5605-1.3542-0.28412-2.714 0.58689-3.0938 1.9062-0.65318 1.9739 0.43817 3.896 0.76848 5.819 1.38 5.4935 2.9791 10.973 5.4503 16.087 2.3303 3.3251 6.4645 4.7743 10.368 5.091 7.9861 1.3278 16.056 2.0392 24.089 3.011 14.125 1.5636 28.291 2.7815 42.484 3.5276 10.544 0.54758 21.096 0.94846 31.642 1.4598 21.504 0.94983 43.014 1.7942 64.53 2.4135 14.404 0.36459 28.822 0.44379 43.22-0.17073 4.5467-0.20903 9.1077-0.56458 13.59-1.3568 4.6201-1.3615 8.295-4.7773 11.27-8.4364 4.8921-5.959 8.663-17.931 10.882-25.228 0.54382-1.8349-4.1872-2.1947-5.1502-2.8392-2.7539-1.8431 6.2134-1.7168 6.3978-2.3974 2.5385-9.3697 4.6175-16.515 6.7126-25.995 0.21036-0.9519-3.6672-4.5436-2.7637-4.9096 1.9223-0.7789 3.5734 0.40603 4.1562-2.247 3.0576-14.182 7.1243-32.029 9.3997-46.362 1.2854-8.1238 2.3035-16.295 2.9226-24.498-2.504-2.2536-2.8946-0.68825-6.1205-1.4375 2.2495-4.9664-6.9818-3.0666-6.8614-4.8168 0.0842-1.2227 7.3413-2.1331 7.8569-2.2636 1.072-0.29024 7.1546-1.3167 7.2202-2.537 1.5733-8.1957 4.1956-16.146 6.1583-24.252 1.0999-4.7546 1.6907-9.6061 2.0487-14.468 0.47884-4.2497 0.92318-8.6061 2.729-12.537 1.4219-1.9789 4.1994-2.3216 6.375-1.5625 5.0938 1.25 10.188 2.5 15.281 3.75 2.446-0.10885 4.106-2.3762 4.7812-4.5312 2.0352-7.2484 2.2476-15.192-0.46862-22.296-1.3281-3.9458-4.5192-7.1489-8.4064-8.6098-4.2183-1.6591-8.8239-1.6306-13.243-2.3637-13.07-1.7628-26.175-3.3036-39.324-4.3268-14.931-1.0692-29.864-2.177-44.828-2.6679-11.05-0.45975-22.11-0.69181-33.169-0.71557-0.7907 0.0143-1.5814 0.0285-2.3721 0.0427v0.00004zm81.375 98.844c0.0239 0.33178-0.16885-0.33257 0 0z"
         style="stroke-linejoin:round;stroke:#000000;fill:#000000"
         sodipodi:nodetypes="cccccccssccsscsccccccccccccccccccssssccccscccccccccccccccccc"
         id="path3982" />
      <path
         d="m483.94 435.22-26.44 22.84l48.562 8.2188c2.9962-5.2928 4.1568-15.607 1.0312-22.906l-11.625-1.6562 9.9375-1.3125c-2.0494-2.8864-5.0767-4.8911-9.3438-5.1875h-12.125z"
         style="stroke-linejoin:round;stroke:#000000;fill:#ac9d93"
         id="path3661" />
      <path
         d="m369.72 426.22c-17.893 0.75981-35.857 1.3993-53.552 4.3611-10.684 1.6825-21.258 4.013-31.738 6.6755-2.8568 0.87197-5.848 1.4374-8.5162 2.8188-3.2136 2.0624-4.655 5.8162-5.8275 9.2772-1.724 5.0859-2.7835 10.365-4.3038 15.512-1.1356 4.2956-2.2712 8.5912-3.4069 12.887 1.8134 2.5061 6.1912 2.8527 9.1562 3.7188-0.96549 2.1129-4.4566 1.4765-6.5938 1.6562 0.0659 1.1741 2.6921 2.6022 3.5752 2.9802-3.4944 1.0548-4.9994-0.14545-7.0752-0.35517-1.0979 0.19043-0.94154 1.5667-1 2.4062-1.3951 11.146-2.6749 22.305-3.8592 33.475-0.83375 8.1288-1.9148 16.242-3.6494 24.232-1.7149 8.7934-3.7421 17.573-4.3039 26.538 0.32216 2.7422 3.4908 1.9126 4.9375 3.6609-0.8578 2.1318-3.4378 0.88149-5.0625 2.1875-0.49446 1.4512-0.38458 3.0316-0.57891 4.5413-0.29687 4.253-0.83057 8.4836-1.3898 12.709 4.5566 0.85699 9.0421 2.0469 13.5 3.3125-0.96113 2.179-4.6511 1.6106-6.9688 1.9062 1.0217 0.86491 0.20793 1.647 2.9879 4.0524-2.2208 0.52844-8.6807-0.8359-10.925-0.48988-1.0256 0.36186-0.61827 1.6995-1.0448 2.4897-1.2561 12.357-10.364 15.614 0.95104 18.26-1.9272 0.83338-4.1707 0.45393-6 1.5312-0.43724 1.0902-0.55914 2.278-0.98987 3.3724-1.354 4.9558-2.6312 10.218-6.1588 14.143-4.7535 5.6964-11.104 10.34-18.438 11.966-0.78456 0.35708-2.4835 0.16404-2.726 0.76898 0.89271 0.33827 1.8983-0.007 2.8286 0.22241 69.547 4.4363 139.09 8.8726 208.64 13.309 5.3761-0.15899 10.254-3.391 13.417-7.5972 5.1109-6.1089 8.1174-13.662 10.177-21.278 0.22999-0.87794 0.89981-2.0918-0.0763-2.744-1.3145-0.91817-3.0308-0.64828-4.516-1.0858-1.7625 0.14717-4.3601-1.2685-4.3828-1.285 1.2016-0.1673 3.0081-1.4883 4.1314-1.9476-2.0902-1.14-3.3186-0.3507-4.5938-2.0625 3.1727-0.38652 6.3495 0.23401 9.5256 0.23789 0.98658 0.3177 2.1783-0.0575 1.9898-1.3047 1.2946-8.6604 3.6827-17.1 5.8909-25.558-1.6351-3.0378-5.6451-4.7224-8.5625-6.6562 3.6267-0.53784 7.2328 0.12255 9.5938 0.90625 2.9346-13.816 6.2701-27.549 8.7981-41.449 1.7539-9.23 3.5324-18.456 5.1706-27.707-3.6206-0.79056-7.3809-0.32402-10.969-1.375-0.62723-0.80036 7.4331-3.0062 5.926-3.2573-3.2533-1.1485-12.996-1.9394-16.395-2.6177 2.4956-1.4141 7.2017-0.99419 10.5-1.375-1.4861-1.3639-2.1335-1.729-4.8438-3.1562 3.6152-0.11859 5.0998 0.12582 7.0906-0.0105 3.9635-0.30055 6.8166-1.7662 10.784-1.3332 2.8769-15.233 6.0844-30.4 9.2365-45.577 0.91915-4.5212 1.4522-9.111 1.7431-13.713 0.34568-4.3303 0.46971-8.7223 1.3147-12.98 0.60968-2.5669 1.7262-5.0454 3.4776-7.079 1.3319-1.4663 2.9521-2.761 4.9468-3.1499-0.87476-0.18093-1.8321-0.16384-2.7374-0.32957-6.1749-0.81338-12.311-1.899-18.502-2.5964-8.3981-0.93499-16.805-1.8024-25.216-2.6182-15.907-1.5085-31.859-2.5379-47.828-3.091-8.3931-0.28823-16.793-0.35121-25.19-0.34621-0.79016 0.004-1.5803 0.008-2.3705 0.0127z"
         style="stroke-linejoin:round;stroke:#000000;fill:#f3f0ed"
         sodipodi:nodetypes="ccccsccccccccccccccccccccccccccccccccccccccccccccccccccccccccccc"
         id="path3659" />
      <path
         d="m241.71 618.9c63.165-0.66832 133.79 3.997 207.59 0.50507m-199.59-40.51c63.165-0.66832 133.79 3.997 207.59 0.50507m-199.59-40.51c63.827-5.3068 134.47-0.79216 207.59 0.50507m-201.59-40.51c63.827-5.3068 135.99-4.3277 209.1-3.0305m-203.1-36.97c68.855-13.687 138.92-9.2153 209.1-3.0305m-193.54-18.69c-12.627 24.244-32.498 179.11-35.355 188.39-8.0812 26.264-26.264 37.376-26.264 37.376m222.63-230.82c-12.627 24.244-36.539 183.65-39.396 192.94-8.0812 26.264-23.234 37.881-23.234 37.881m23.135-234.36c-12.627 24.244-37.044 187.19-39.901 196.47-8.0812 26.264-23.234 37.881-23.234 37.881m24.15-235.36c-12.627 24.244-38.054 188.2-40.911 197.48-8.0812 26.264-23.234 37.881-23.234 37.881m-75.939-4.0508c63.165-0.66832 133.79 3.997 207.59 0.50507m-107.5-230.3c-12.627 24.244-38.054 186.68-40.911 195.97-8.0812 26.264-23.234 37.881-23.234 37.881"
         style="opacity:.3;stroke-linejoin:round;stroke:#000000;stroke-dasharray:9.6, 9.6;stroke-width:0.4;fill:none"
         sodipodi:nodetypes="cccccccccccsccsccsccsccccsc"
         id="path4003" />
      <path
         d="m193.94 637.56c-0.81151 0.86018-0.24712 2.1871-0.3125 3.25 0.23331 1.2634-0.1361 2.989 1.2188 3.7188 1.1304 0.68394 2.4879 0.72941 3.75 1 0.81744-0.46668 1.8486 1.1343 0.65625 1.2812-1.4819 0.23914-3.0295 0.41204-4.4062 1.0625-0.91655 1.1897 0.31626 2.5446 0.20405 3.8383-0.0183 1.1608 1.4578 1.5715 1.4975 2.6565 0.0471 1.008 0.0537 2.1302 0.86515 2.8575 1.8304 2.48 5.0614 3.1583 7.9601 3.4013 11.512 1.3734 23.041 2.613 34.575 3.785 12.983 1.2069 25.992 2.0959 39.001 2.9655 21.414 1.4502 42.869 2.1426 64.315 2.889 25.865 0.68559 51.74 0.85441 77.613 0.73189-3.6047-2.4393-5.7773-6.441-7.0167-10.52-0.68951-2.1133-1.1515-4.2895-1.6708-6.4484-1.837-0.93543-3.9667-0.41976-5.9271-0.80903-8.6506-0.72261-17.368-0.7655-26.01 0.0903-8.5865 0.60642-17.197 0.58332-25.8 0.61772-4.1393-0.003-8.2792 0.23766-12.414-0.0598-3.8242-0.0482-7.6194-0.6075-11.418-1.0091-5.9018-0.69514-11.821-1.2428-17.761-1.478-8.6109-0.47843-17.22-0.99235-25.824-1.5791-9.7002-0.50839-19.42-0.67375-29.106-1.4322-8.3396-0.65073-16.579-2.1338-24.86-3.2637-7.626-1.1338-15.3-1.9875-22.854-3.557-5.2463-1.05-10.481-2.2461-15.568-3.9083-0.209-0.1272-0.47625-0.14379-0.70858-0.0806z"
         style="stroke-linejoin:round;stroke:#000000;fill:#ac9d93"
         id="path3663" />
      <path
         inkscape:radius="0.96810067"
         transform="translate(190.23 423.27)"
         inkscape:original="M 127.5625 12.75 L 122.75 24.53125 C 117.12092 25.684357 111.57112 28.825038 106.84375 33.25 L 103.53125 31.1875 L 104.75 35.375 C 100.2877 40.169414 96.770543 46.103322 94.90625 52.46875 L 84.25 56.1875 L 93.75 57.875 C 92.918601 64.136954 93.993748 69.606726 96.5625 73.6875 L 93.5 78.3125 L 97.84375 75.46875 C 97.948379 75.595402 98.079479 75.689491 98.1875 75.8125 C 98.783785 76.491358 99.398127 77.124659 100.09375 77.6875 C 100.10495 77.6966 100.1138 77.7097 100.125 77.71875 C 100.39033 77.932233 100.68967 78.147975 100.96875 78.34375 C 101.55014 78.750445 102.14255 79.1108 102.78125 79.4375 C 103.10066 79.601374 103.41683 79.763231 103.75 79.90625 C 103.759 79.90995 103.77275 79.90255 103.78125 79.90625 C 105.10662 80.472371 106.53511 80.878786 108.0625 81.09375 C 108.0726 81.09515 108.08365 81.09235 108.09375 81.09375 C 108.91224 81.207558 109.78523 81.275784 110.65625 81.28125 L 110.53125 92.5625 L 115.34375 80.78125 C 120.97273 79.627973 126.52194 76.487327 131.25 72.0625 L 134.5625 74.125 L 133.375 69.9375 C 137.82516 65.147445 141.35874 59.196655 143.21875 52.84375 L 153.84375 49.125 L 144.375 47.46875 C 144.4465 46.930018 144.488 46.370522 144.53125 45.84375 C 144.53209 45.83345 144.53042 45.82279 144.53125 45.8125 C 144.68153 43.960284 144.65136 42.181988 144.46875 40.5 C 144.46775 40.4896 144.46975 40.47914 144.46875 40.46875 C 144.42345 40.056443 144.37685 39.650766 144.3125 39.25 C 144.3105 39.23981 144.3145 39.22893 144.3125 39.21875 C 144.246 38.808175 144.17988 38.429141 144.09375 38.03125 C 143.83619 36.83842 143.48966 35.694169 143.0625 34.625 C 142.92326 34.277216 142.75021 33.927395 142.59375 33.59375 C 142.58975 33.58525 142.59775 33.57103 142.59375 33.5625 C 142.43693 33.229349 142.2674 32.912254 142.09375 32.59375 C 142.08975 32.58585 142.09775 32.57036 142.09375 32.5625 C 141.91959 32.244218 141.72187 31.95935 141.53125 31.65625 L 144.625 27.03125 L 140.25 29.875 C 137.23622 26.228095 132.82922 24.088068 127.4375 24.0625 L 127.5625 12.75 z M 127.40625 28.96875 C 127.98616 29.02149 128.54533 29.10524 129.09375 29.21875 C 129.40269 29.28256 129.70149 29.355046 130 29.4375 C 130.009 29.4401 130.02185 29.4349 130.03125 29.4375 C 130.31977 29.51786 130.59655 29.621362 130.875 29.71875 C 131.74919 30.022972 132.57468 30.380174 133.34375 30.84375 C 133.5973 30.996259 133.82101 31.174857 134.0625 31.34375 C 134.31136 31.517443 134.54552 31.684405 134.78125 31.875 C 135.01035 32.059824 135.22111 32.237196 135.4375 32.4375 C 135.448 32.4472 135.45825 32.45901 135.46875 32.46875 C 135.57662 32.569283 135.67662 32.676938 135.78125 32.78125 L 127.3125 38.3125 L 127.40625 28.96875 z M 120.65625 29.65625 L 116.6875 39.375 L 110.25 35.375 C 113.44064 32.684636 117.00841 30.675159 120.65625 29.65625 z M 138.375 36.375 C 139.83101 39.226669 140.49728 42.756896 140.21875 46.71875 L 132.40625 45.34375 L 138.375 36.375 z M 105.96875 39.6875 L 108.3125 47.8125 L 99.53125 50.84375 C 100.96561 46.775199 103.21377 42.961281 105.96875 39.6875 z M 138.5625 54.46875 C 137.12561 58.548883 134.88946 62.375544 132.125 65.65625 L 129.78125 57.53125 L 138.5625 54.46875 z M 97.875 58.59375 L 105.71875 59.96875 L 99.71875 68.96875 C 99.638241 68.811241 99.575729 68.661618 99.5 68.5 C 99.370807 68.224945 99.240093 67.942895 99.125 67.65625 C 99.1214 67.64735 99.1286 67.63394 99.125 67.625 C 99.010347 67.337993 98.881495 67.048174 98.78125 66.75 C 98.77805 66.7406 98.78435 66.72818 98.78125 66.71875 C 98.6815 66.42037 98.585045 66.121613 98.5 65.8125 C 98.4974 65.8031 98.5026 65.79066 98.5 65.78125 C 98.41276 65.462044 98.32127 65.142668 98.25 64.8125 C 97.836176 62.900376 97.715925 60.822022 97.875 58.59375 z M 121.40625 65.9375 L 127.84375 69.9375 C 124.6522 72.629373 121.08669 74.668215 117.4375 75.6875 L 121.40625 65.9375 z M 110.78125 67 L 110.6875 76.34375 C 107.31596 76.038076 104.47221 74.684169 102.3125 72.53125 L 110.78125 67 z "
         d="m127.44 11.781a0.9682 0.9682 0 0 0 -0.78 0.594l-4.66 11.375c-5.4284 1.2358-10.692 4.1911-15.25 8.3125l-2.7188-1.6875a0.9682 0.9682 0 0 0 -1.4375 1.0938l1.0625 3.6875c-4.2668 4.7034-7.6444 10.404-9.5312 16.562l-10.188 3.5625a0.9682 0.9682 0 0 0 0.15625 1.875l8.625 1.5312c-0.5983 5.7636 0.39582 10.895 2.7188 14.906l-2.75 4.1875a0.9682 0.9682 0 0 0 1.35 1.345l3.719-2.437c0.53503 0.59223 1.0777 1.1962 1.7188 1.7188v0.03125c0.0059 0.0048 0.02535-0.0048 0.03125 0-0.01288-0.0086-0.07226-0.05239 0.03125 0.03125 0.29421 0.23672 0.58862 0.45535 0.875 0.65625 0.6144 0.42979 1.2579 0.83989 1.9375 1.1875 0.31991 0.16413 0.6588 0.30887 1.0312 0.46875a0.9682 0.9682 0 0 0 0 0.03125c0.14626 0.06013 0.13435 0.02625 0.21875 0.03125 1.3525 0.56032 2.7997 1.0014 4.3438 1.2188 0.27911 0.03869 0.29016 0.03589 0.0312 0 0.54961 0.07642 1.138 0.09249 1.7188 0.125l-0.125 10.375a0.9682 0.9682 0 0 0 1.875 0.375l4.6562-11.375c5.4282-1.2359 10.691-4.1913 15.25-8.3125l2.7188 1.6875a0.9682 0.9682 0 0 0 1.43 -1.063l-1.0625-3.7188c4.2627-4.7029 7.6765-10.407 9.5625-16.562l10.156-3.5625a0.9682 0.9682 0 0 0 -0.16 -1.876l-8.5625-1.5c0.0212-0.24202 0.0439-0.49264 0.0625-0.71875 0.007-0.08392 0.00021-0.02585 0-0.03125 0.00088-0.01087-0.00087-0.02039 0-0.03125 0.15218-1.9007 0.1257-3.7352-0.0625-5.4688 0.0167 0.17357 0.0187 0.16334 0-0.03125-0.0456-0.41543-0.0873-0.85175-0.15625-1.2812a0.9682 0.9682 0 0 0 0 -0.03125c-0.0677-0.41772-0.15865-0.82799-0.25-1.25-0.26841-1.2431-0.61397-2.4086-1.0625-3.5312a0.9682 0.9682 0 0 0 0 -0.03125c-0.15503-0.38722-0.35178-0.71618-0.5-1.0312 0.0113 0.03211 0.0841 0.18166 0.0937 0.25 0.0107 0.07593 0.002 0.11328 0 0.15625-0.004 0.08593-0.00051 0.12788 0 0.125 0.00091-0.0052 0.0278-0.20204-0.0937-0.53125-0.004-0.0078 0.004-0.02353 0-0.03125-0.008-0.02009 0.01-0.0099 0-0.03125-0.1397-0.29678-0.29257-0.57522-0.4375-0.84375-0.003-0.0086 0.004-0.01983 0-0.03125-0.0126-0.0424-0.05-0.09656-0.0625-0.125-0.003-0.0059 0.00004-0.03117 0-0.03125a0.9682 0.9682 0 0 0 -0.0312 0 0.9682 0.9682 0 0 0 0 -0.03125c-0.0883-0.16142-0.16285-0.26793-0.25-0.40625l2.75-4.125a0.9682 0.9682 0 0 0 -1.3438 -1.3438l-3.72 2.405c-2.9692-3.2353-7.0927-5.1799-11.969-5.4375l0.125-10.438a0.9682 0.9682 0 0 0 -1.0938 -0.96875zm0.9375 18.312c0.17304 0.0291 0.36068 0.02719 0.53125 0.0625 0.27782 0.05738 0.54322 0.145 0.8125 0.21875 0.01 0.0027 0.0216-0.0027 0.0312 0 0.0199 0.0049 0.0134-0.0035 0.0312 0 0.0179 0.0035 0.0153-0.0024 0.0312 0 0.22863 0.06528 0.46907 0.15174 0.75 0.25 0.8307 0.28909 1.5862 0.64353 2.2812 1.0625 0.18301 0.11008 0.3822 0.24583 0.65625 0.4375 0.24381 0.17017 0.48056 0.33268 0.6875 0.5 0.0121 0.0098 0.0193 0.02154 0.0312 0.03125l-5.91 3.844 0.07-6.406zm-9.5 1.3438-2.6562 6.5312l-4.22-2.624c2.1855-1.6878 4.4939-2.9831 6.875-3.9062zm19.219 7.125c0.75315 2.0488 1.1483 4.3692 1.0938 6.9688l-5.1562-0.90625 4.0625-6.0625zm-32.5 3.3438 1.5312 5.3125-5.7812 1.9688c1.1154-2.5961 2.5527-5.0311 4.25-7.2812zm31.15 14.219c-1.1154 2.6082-2.5491 5.0551-4.25 7.3125l-1.5312-5.3125 5.7812-2zm-37.844 3.6562 5.1875 0.90625-4.1875 6.25c-0.06904-0.16854-0.17038-0.35612-0.21875-0.5-0.0053-0.01884 0.0067-0.01099 0-0.03125-0.09764-0.29207-0.1723-0.56132-0.25-0.84375-0.0046-0.02021 0.0062-0.0089 0-0.03125-0.08933-0.32684-0.18762-0.6485-0.25-0.9375-0.31721-1.4657-0.32233-3.1201-0.28125-4.8125zm22.969 7.5625 4.2188 2.625c-2.1884 1.695-4.4942 3.008-6.875 3.9375l2.6562-6.5625zm-12.094 1.4688-0.0625 6.2812c-2.2037-0.37823-4.0982-1.2446-5.6875-2.5312l5.75-3.75z"
         sodipodi:type="inkscape:offset"
         style="fill:#483e37"
         id="path4101" />
      <g
         transform="matrix(.48566 -.049355 -.11889 .55703 321.86 119.12)"
         id="g4086">
        <g
           transform="matrix(.30126 0 0 .30126 86.264 576.82)"
           id="g5159">
          <path
             d="m157.84 81.094c-93.796 0-169.81 76.048-169.81 169.84 0 93.796 76.016 169.84 169.81 169.84 93.796 0 169.84-76.048 169.84-169.84 0-93.796-76.048-169.84-169.84-169.84zm0 28.781c77.896 0 141.06 63.166 141.06 141.06 0 77.896-63.166 141.03-141.06 141.03-77.896 0-141.03-63.135-141.03-141.03 0-77.896 63.135-141.06 141.03-141.06z"
             style="fill:#f3f0ed"
             id="path5127" />
          <path
             d="m277.84 130.75-9.6562 9.6562c28.33 28.275 45.875 67.343 45.875 110.53 0 86.265-69.954 156.19-156.22 156.19-43.18 0-82.258-17.523-110.53-45.844l-9.625 9.625c30.742 30.798 73.203 49.875 120.16 49.875 93.796 0 169.84-76.048 169.84-169.84 0-46.946-19.055-89.446-49.844-120.19z"
             style="fill:#917c6f"
             id="path5140" />
          <path
             d="m47.527 361.46 10.688-10.688c-25.58-25.53-41.407-60.84-41.407-99.84 0-77.896 63.166-141.03 141.06-141.03 38.996 0 74.281 15.827 99.812 41.406l10.719-10.719c-28.27-28.32-67.35-45.848-110.53-45.848-86.265 0-156.22 69.923-156.22 156.19 0 43.188 17.545 82.257 45.875 110.53z"
             inkscape:transform-center-y="-22.83201"
             style="fill:#917c6f"
             inkscape:transform-center-x="22.83036"
             id="path5153" />
        </g>
        <g
           transform="matrix(.42605 .42605 -.17535 .17535 111.15 540.57)"
           inkscape:transform-center-y="-17.337051"
           inkscape:transform-center-x="-17.335456"
           id="g5172">
          <path
             sodipodi:sides="3"
             sodipodi:r2="73.907005"
             inkscape:rounded="0"
             sodipodi:cx="162.85715"
             sodipodi:cy="170.93361"
             inkscape:randomized="0"
             sodipodi:arg1="0.52359878"
             sodipodi:arg2="1.5707963"
             transform="matrix(.20208 0 0 1 124.96 -9.9905)"
             inkscape:transform-center-y="-126.944"
             inkscape:flatsided="true"
             sodipodi:r1="147.814"
             d="m 290.86782,244.84061 -256.021348,0 L 162.85715,23.119614 Z"
             sodipodi:type="star"
             style="fill:#f3f0ed"
             id="path5174" />
          <path
             d="m157.86 13.143v221.72h25.875l-25.875-221.72z"
             style="fill:#917c6f"
             inkscape:transform-center-y="-126.93081"
             inkscape:transform-center-x="-12.924105"
             id="path5176" />
        </g>
        <g
           inkscape:transform-center-y="17.335459"
           transform="matrix(.42605 .42605 .17535 -.17535 21.976 629.74)"
           inkscape:transform-center-x="17.337057"
           id="g5178">
          <path
             d="m 290.86782,244.84061 -256.021348,0 L 162.85715,23.119614 Z"
             inkscape:flatsided="true"
             inkscape:rounded="0"
             sodipodi:cx="162.85715"
             sodipodi:cy="170.93361"
             inkscape:randomized="0"
             transform="matrix(.20208 0 0 1 124.96 -9.9905)"
             sodipodi:arg2="1.5707963"
             sodipodi:arg1="0.52359878"
             inkscape:transform-center-y="-126.944"
             sodipodi:r2="73.907005"
             sodipodi:r1="147.814"
             sodipodi:sides="3"
             sodipodi:type="star"
             style="fill:#f3f0ed"
             id="path5180" />
          <path
             d="m157.86 13.143v221.72h25.875l-25.875-221.72z"
             inkscape:transform-center-y="-126.93081"
             style="fill:#917c6f"
             inkscape:transform-center-x="-12.924105"
             id="path5182" />
        </g>
        <g
           transform="matrix(.42605 -.42605 -.17535 -.17535 111.15 764.26)"
           inkscape:transform-center-y="17.337047"
           inkscape:transform-center-x="-17.335451"
           id="g5184">
          <path
             sodipodi:sides="3"
             sodipodi:r2="73.907005"
             inkscape:rounded="0"
             sodipodi:cx="162.85715"
             sodipodi:cy="170.93361"
             inkscape:randomized="0"
             sodipodi:arg1="0.52359878"
             sodipodi:arg2="1.5707963"
             transform="matrix(.20208 0 0 1 124.96 -9.9905)"
             inkscape:transform-center-y="-126.944"
             inkscape:flatsided="true"
             sodipodi:r1="147.814"
             d="m 290.86782,244.84061 -256.021348,0 L 162.85715,23.119614 Z"
             sodipodi:type="star"
             style="fill:#f3f0ed"
             id="path5186" />
          <path
             d="m157.86 13.143v221.72h25.875l-25.875-221.72z"
             style="fill:#917c6f"
             inkscape:transform-center-y="-126.93081"
             inkscape:transform-center-x="-12.924105"
             id="path5188" />
        </g>
        <g
           transform="matrix(1 0 0 2 0 -652.41)"
           id="g4078">
          <path
             sodipodi:sides="3"
             sodipodi:r2="73.907005"
             inkscape:rounded="0"
             sodipodi:cx="162.85715"
             sodipodi:cy="170.93361"
             inkscape:randomized="0"
             sodipodi:arg1="0.52359878"
             sodipodi:arg2="1.5707963"
             transform="matrix(0 .060878 -.30126 0 212.43 642.5)"
             inkscape:flatsided="true"
             sodipodi:r1="147.814"
             inkscape:transform-center-x="-38.243706"
             d="m 290.86782,244.84061 -256.021348,0 L 162.85715,23.119614 Z"
             sodipodi:type="star"
             style="fill:#f3f0ed"
             id="path5060" />
          <path
             d="m205.46 652.41h-66.796v7.7952l66.796-7.7952z"
             style="fill:#917c6f"
             inkscape:transform-center-y="3.893573"
             inkscape:transform-center-x="-38.239735"
             id="path5062" />
        </g>
        <g
           transform="matrix(2 0 0 1 -133.82 0)"
           id="g4074">
          <path
             sodipodi:sides="3"
             sodipodi:r2="73.907005"
             inkscape:rounded="0"
             sodipodi:cx="162.85715"
             sodipodi:cy="170.93361"
             inkscape:randomized="0"
             sodipodi:arg1="0.52359878"
             sodipodi:arg2="1.5707963"
             transform="matrix(.060878 0 0 -.30126 123.91 731.02)"
             inkscape:transform-center-y="38.243708"
             inkscape:flatsided="true"
             sodipodi:r1="147.814"
             d="m 290.86782,244.84061 -256.021348,0 L 162.85715,23.119614 Z"
             sodipodi:type="star"
             style="fill:#f3f0ed"
             id="path5068" />
          <path
             d="m133.82 724.05v-66.796h7.7952l-7.7952 66.796z"
             style="fill:#917c6f"
             inkscape:transform-center-y="38.239735"
             inkscape:transform-center-x="-3.8935732"
             id="path5070" />
        </g>
        <g
           transform="matrix(.42605 -.42605 .17535 .17535 21.976 675.09)"
           inkscape:transform-center-y="-17.335459"
           inkscape:transform-center-x="17.337053"
           id="g5190">
          <path
             d="m 290.86782,244.84061 -256.021348,0 L 162.85715,23.119614 Z"
             inkscape:flatsided="true"
             inkscape:rounded="0"
             sodipodi:cx="162.85715"
             sodipodi:cy="170.93361"
             inkscape:randomized="0"
             transform="matrix(.20208 0 0 1 124.96 -9.9905)"
             sodipodi:arg2="1.5707963"
             sodipodi:arg1="0.52359878"
             inkscape:transform-center-y="-126.944"
             sodipodi:r2="73.907005"
             sodipodi:r1="147.814"
             sodipodi:sides="3"
             sodipodi:type="star"
             style="fill:#f3f0ed"
             id="path5192" />
          <path
             d="m157.86 13.143v221.72h25.875l-25.875-221.72z"
             inkscape:transform-center-y="-126.93081"
             style="fill:#917c6f"
             inkscape:transform-center-x="-12.924105"
             id="path5194" />
        </g>
        <g
           transform="matrix(.60253 0 0 .30126 38.703 576.82)"
           id="g5168">
          <path
             d="m 290.86782,244.84061 -256.021348,0 L 162.85715,23.119614 Z"
             inkscape:flatsided="true"
             inkscape:rounded="0"
             sodipodi:cx="162.85715"
             sodipodi:cy="170.93361"
             inkscape:randomized="0"
             transform="matrix(.20208 0 0 1 124.96 -9.9905)"
             sodipodi:arg2="1.5707963"
             sodipodi:arg1="0.52359878"
             inkscape:transform-center-y="-126.944"
             sodipodi:r2="73.907005"
             sodipodi:r1="147.814"
             sodipodi:sides="3"
             sodipodi:type="star"
             style="fill:#f3f0ed"
             id="path2816" />
          <path
             d="m157.86 13.143v221.72h25.875l-25.875-221.72z"
             inkscape:transform-center-y="-126.93081"
             style="fill:#917c6f"
             inkscape:transform-center-x="-12.924105"
             id="path3613" />
        </g>
        <g
           transform="matrix(1 0 0 2 0 -652.41)"
           id="g4082">
          <path
             d="m 290.86782,244.84061 -256.021348,0 L 162.85715,23.119614 Z"
             inkscape:flatsided="true"
             inkscape:rounded="0"
             sodipodi:cx="162.85715"
             sodipodi:cy="170.93361"
             inkscape:randomized="0"
             transform="matrix(0 .060878 .30126 0 55.217 642.5)"
             sodipodi:arg2="1.5707963"
             sodipodi:arg1="0.52359878"
             sodipodi:r2="73.907005"
             sodipodi:r1="147.814"
             inkscape:transform-center-x="38.243707"
             sodipodi:sides="3"
             sodipodi:type="star"
             style="fill:#f3f0ed"
             id="path5074" />
          <path
             d="m62.187 652.41h66.796v7.7952l-66.796-7.7952z"
             inkscape:transform-center-y="3.8935736"
             style="fill:#917c6f"
             inkscape:transform-center-x="38.239734"
             id="path5076" />
        </g>
        <g
           transform="matrix(.41932 0 0 .41932 67.628 547.19)"
           id="g5122">
          <rect
             x="106.43"
             y="199.51"
             width="102.86"
             height="102.86"
             style="fill:#f3f0ed"
             id="rect5084" />
          <path
             d="m209.29 199.51v102.86h-102.86l102.86-102.86z"
             style="fill:#917c6f"
             sodipodi:nodetypes="cccc"
             id="rect5088" />
          <rect
             x="117.86"
             y="210.93"
             width="80"
             height="80"
             style="fill:#917c6f"
             id="rect5086" />
        </g>
        <g
           transform="matrix(.37001 0 0 .37001 75.412 559.57)"
           id="g5097">
          <rect
             x="-117.24"
             y="237.63"
             width="102.86"
             height="102.86"
             transform="rotate(-45)"
             style="fill:#f3f0ed"
             id="rect5091" />
          <path
             d="m157.86 178.2 72.731 72.731-72.731 72.731v-145.46z"
             style="fill:#917c6f"
             sodipodi:nodetypes="cccc"
             id="path5093" />
          <rect
             x="-105.82"
             y="249.06"
             width="80"
             height="80"
             transform="rotate(-45)"
             style="fill:#917c6f"
             id="rect5095" />
        </g>
        <path
           sodipodi:start="0"
           sodipodi:end="6.2335773"
           sodipodi:cx="157.5838"
           sodipodi:cy="250.30106"
           transform="matrix(.38239 0 0 .38239 73.479 556.51)"
           sodipodi:open="true"
           d="m 188.39345,250.30106 a 30.809652,30.809652 0 0 1 -30.42756,30.80728 30.809652,30.809652 0 0 1 -31.18226,-30.04316 30.809652,30.809652 0 0 1 29.65413,-31.55245 30.809652,30.809652 0 0 1 31.91779,29.26055"
           sodipodi:type="arc"
           style="fill:#f3f0ed"
           sodipodi:ry="30.809652"
           sodipodi:rx="30.809652"
           id="path5109" />
        <path
           d="m142.24 644.06-16.646 16.658c2.1165 2.0296 4.9857 3.2862 8.1497 3.2862 6.5066 0 11.782-5.2757 11.782-11.782l-0.0239-0.58555c-0.14625-2.9458-1.3593-5.5952-3.2623-7.5761z"
           style="fill:#917c6f"
           id="path5115" />
        <path
           sodipodi:start="0"
           sodipodi:end="6.2335773"
           sodipodi:cx="157.5838"
           sodipodi:cy="250.30106"
           transform="matrix(.27582 0 0 .27582 90.272 583.18)"
           sodipodi:open="true"
           d="m 188.39345,250.30106 a 30.809652,30.809652 0 0 1 -30.42756,30.80728 30.809652,30.809652 0 0 1 -31.18226,-30.04316 30.809652,30.809652 0 0 1 29.65413,-31.55245 30.809652,30.809652 0 0 1 31.91779,29.26055"
           sodipodi:type="arc"
           style="fill:#917c6f"
           sodipodi:ry="30.809652"
           sodipodi:rx="30.809652"
           id="path5111" />
      </g>
      <path
         d="m400.05 622.97c-1.3422 0.0116-2.6776 0.42736-3.8246 1.1194-0.88078 0.40802-1.5159 1.1384-2.0989 1.889-0.43599 0.39141-0.42859 1.1219-0.1166 1.5858 0.43234 0.40797 1.1017 0.41282 1.6558 0.27985 0.51512 0.0243 1.0693-0.19746 1.6325 0.0233 0.80956 0.23758 1.577 0.71631 1.9356 1.5158 0.33995 0.58239 0.52034 1.3472 0.0933 1.9356-0.28672 0.46125-0.71075 0.97309-1.0961 1.2593-1.5273 1.2101-3.4351 1.7362-5.2239 2.4254-0.54867 0.2015-1.8158-0.0812-1.7724 0.76959 0.43608 0.77545 1.3674 0.0715 2.0289 0.0933 1.2168-0.18217 2.4679-0.34083 3.6147-0.81623 0.44077-0.16237 0.8691-0.35378 1.2826-0.58302l1.5625 2.472 0.51306-0.32649-1.9823-2.1922c0.77043-0.43953 1.4714-0.99096 2.0289-1.6791l2.2621 4.1744 0.51305-0.27985-2.6819-4.0345c0.0715-0.0935 0.14374-0.18182 0.20989-0.27985 0.59816-0.80454 0.93497-1.8418 0.86287-2.8451-0.11027-1.2112-0.9791-2.1666-1.9123-2.8685-0.61542-0.43407-1.355-0.63212-2.0989-0.6763-0.45859-0.11866 0.43424-0.35473 0.58302-0.46642 0.63169-0.34801 1.3557-0.38107 2.0522-0.46642 0.90798-0.0828 1.7787 0.24653 2.6586 0.41978 2.1711 0.53305 4.1187 1.6841 6.1101 2.6586 3.0057 1.65 5.5072 4.031 8.0923 6.25 0.52088 0.27635 0.97169 1.4938 1.6325 1.0028 0.0777-0.70844-0.73442-1.1079-1.1194-1.6091-1.1498-1.6388-2.4767-3.1728-4.0812-4.3843-1.5559-1.2476-3.134-2.4809-4.7574-3.638-1.6243-1.0704-3.3781-2.0264-5.3172-2.3554-0.95691-0.15068-1.9228-0.35855-2.8918-0.37313-0.11901 0.004-0.23081-0.004-0.34981 0zm5.0606 6.32 5.0839 7.6492 0.51306-0.32649-5.597-7.3227zm-2.9851 1.1194 4.0112 6.5298 0.51306-0.32649-4.5242-6.2033z"
         style="block-progression:tb;text-indent:0;color:#000000;text-transform:none;fill:#483e37"
         id="path3704" />
      <use
         x="0"
         y="0"
         width="322.19077"
         height="251.35944"
         transform="translate(-20.019 9.4571)"
         xlink:href="#path3704"
         id="use3710" />
      <use
         x="0"
         y="0"
         width="322.19077"
         height="251.35944"
         transform="translate(-106.64 -15.802)"
         xlink:href="#use3710"
         id="use3712" />
      <use
         x="0"
         y="0"
         width="322.19077"
         height="251.35944"
         transform="translate(13.637 12.98)"
         xlink:href="#use3712"
         id="use3714" />
      <use
         x="0"
         y="0"
         width="322.19077"
         height="251.35944"
         transform="translate(136.72 -165.11)"
         xlink:href="#use3714"
         id="use3716" />
      <use
         x="0"
         y="0"
         width="322.19077"
         height="251.35944"
         transform="translate(15.809 -10.152)"
         xlink:href="#use3716"
         id="use3718" />
      <use
         x="0"
         y="0"
         width="322.19077"
         height="251.35944"
         transform="translate(-78.792 11.617)"
         xlink:href="#use3718"
         id="use3720" />
      <use
         x="0"
         y="0"
         width="322.19077"
         height="251.35944"
         transform="translate(-17.173 16.162)"
         xlink:href="#use3720"
         id="use3722" />
      <use
         x="0"
         y="0"
         width="322.19077"
         height="251.35944"
         transform="translate(33.335 -4.5457)"
         xlink:href="#use3722"
         id="use3724" />
      <path
         sodipodi:nodetypes="ccccccccccc"
         inkscape:connector-curvature="0"
         id="path3461"
         d="m 368.42091,594.37338 c -1.54724,-1.44784 -1.02474,-3.93088 -2.4531,-5.45256 -1.94343,-4.40283 -2.81378,-9.48981 -6.31319,-13.03356 -3.23429,-2.63969 -8.1542,-2.55731 -11.5558,-0.27536 -3.41297,1.80844 -8.39537,0.51318 -9.86735,-3.23732 -1.14106,-2.30888 -0.81044,-4.88912 -1.85702,-7.4904 -0.87467,-0.0493 -10.46539,13.9874 -7.30981,12.53428 l 3.03316,9.8072 -15.26322,6.36005 c -22.28446,19.96643 25.88184,19.98351 47.58089,22.88867 3.23182,-9.64902 -4.09424,-23.07277 4.00544,-22.101 z"
         style="fill:#917c6f;stroke:#000000;stroke-width:1px;stroke-linecap:butt;stroke-linejoin:miter;stroke-opacity:1;fill-opacity:1" />
      <path
         sodipodi:nodetypes="ccccccccccssc"
         inkscape:connector-curvature="0"
         id="path3441"
         d="m 290.28561,541.34037 c 2.24118,0.92805 25.28991,-18.88553 27.14254,-16.9765 0.94576,3.213 5.77522,9.1149 5.48343,12.6484 -0.928,2.08101 -4.55208,3.60628 -2.95901,6.28728 1.33918,2.40364 3.96938,3.61996 5.69603,5.68888 2.52842,2.19515 6.74295,0.98356 8.80725,3.91608 2.36206,2.94043 3.86058,7.0066 2.79248,10.73983 -1.22334,2.20657 -4.0878,3.55622 -4.11783,6.3495 -0.24725,2.35628 1.0446,5.355 -1.07216,7.16073 -10.22169,-0.54778 -6.09956,-4.99362 -10.79889,-4.54445 -5.65626,18.25441 -22.56692,9.87126 -27.71371,6.85522 -5.14678,-3.01604 -11.4344,-13.21609 -11.93126,-18.57123 -0.49686,-5.35513 1.96861,-11.87576 8.67113,-19.55374 z"
         style="fill:#bcc8b7;fill-opacity:1;stroke:#000000;stroke-width:1px;stroke-linecap:butt;stroke-linejoin:miter;stroke-opacity:1" />
      <path
         id="path3803"
         transform="translate(190.23,423.27)"
         d="M 199.38281 76.894531 C 199.14992 76.88145 198.91756 76.884072 198.68555 76.904297 C 194.12525 77.602557 190.13227 80.741866 186.85547 84.384766 C 185.23397 86.180766 183.5946 88.392309 181.25 88.724609 C 178.3175 88.882039 175.8228 86.801762 173.25 85.476562 C 169.5383 83.701062 165.46 84.384934 161.5625 84.052734 C 158.9294 83.891224 156.38657 83.016203 153.85547 82.220703 C 148.66147 80.767703 143.05527 80.278197 137.94727 82.435547 C 136.03047 83.393047 134.37014 85.603128 134.52344 88.173828 C 134.55514 89.968628 135.16063 91.723031 136.15039 93.082031 C 135.29307 94.193131 133.88642 94.166678 132.85742 94.955078 C 125.65442 98.555578 118.16003 101.24722 110.70703 104.01562 C 105.33803 106.39892 100.58348 110.62214 97.146484 116.02734 C 93.058684 121.72574 89.321625 127.94795 87.140625 135.00195 C 86.240035 139.12475 87.740171 143.72656 90.644531 146.22266 C 92.449131 148.00846 94.714313 148.97186 96.632812 150.53906 C 97.337792 151.53248 96.8433 152.87434 96.46875 153.89844 C 96.12218 155.15394 96.563741 156.61952 97.556641 157.26562 C 99.507741 159.14243 101.94086 160.08893 104.22656 161.24023 C 110.64256 163.90093 117.82675 164.50718 124.34375 161.97852 C 127.64275 160.46392 130.41822 157.28384 131.60742 153.33594 C 132.96012 151.88184 135.08963 152.49773 136.36523 153.76953 C 138.36313 155.54153 139.70507 158.20425 140.69727 160.81445 C 141.11881 161.76414 140.37826 162.63851 139.82617 163.22461 C 138.79337 164.25091 137.40072 164.4047 136.10742 164.4668 C 128.77932 165.6059 121.73131 169.88998 117.07031 176.70898 C 116.23388 177.65747 116.05849 179.28118 116.76758 180.39258 C 117.4229 181.67958 118.66444 182.26399 119.83984 182.61719 C 127.48314 186.22899 134.77953 190.95446 142.76953 193.47656 C 147.18753 194.08771 151.77391 192.93985 156.07031 194.65625 C 160.91541 196.23375 165.84716 198.12824 170.94336 197.68164 C 173.78036 197.4827 176.76997 195.83382 178.04297 192.70312 C 179.16437 189.43033 178.26196 185.69324 176.69922 182.83984 C 175.7638 181.16904 175.31212 178.63187 176.60742 177.04297 C 178.06682 175.12517 180.40258 175.04966 182.42188 174.78516 C 191.95358 173.27316 201.17188 169.85668 210.67188 168.14258 C 216.78467 166.86618 222.82981 164.63893 228.13281 160.76953 C 232.40871 157.78573 236.41056 154.01573 239.22266 149.14062 C 240.79006 146.11132 241.61634 142.22065 240.46094 138.81445 C 239.32194 135.21385 236.72005 132.71695 234.37305 130.21875 C 233.17175 128.70375 232.79882 126.43241 233.32812 124.47461 C 233.8582 120.75651 234.12889 116.99288 234.62305 113.27148 C 235.05381 110.61788 236.25296 108.24453 237.72266 106.20703 C 239.07596 104.15793 240.40195 101.63338 239.96875 98.925781 C 239.46148 95.910881 236.88107 93.797353 234.32617 93.876953 C 233.07697 93.938653 231.83329 93.891312 230.58789 93.763672 C 221.31529 93.129022 212.04225 92.474406 202.78125 91.628906 C 202.44603 90.168206 203.60174 89.0499 203.79883 87.6875 C 204.74448 85.0877 205.06317 81.826281 203.66406 79.363281 C 202.62474 77.877444 201.01304 76.986099 199.38281 76.894531 z M 199.13477 82.185547 C 199.19793 82.187626 199.25956 82.2111 199.31445 82.265625 C 200.01069 83.277419 199.29441 84.688054 198.44531 85.191406 C 196.18731 87.954006 195.4698 92.645566 197.4082 95.884766 C 199.2254 98.412766 202.25816 99.097628 204.94336 98.798828 C 215.14136 98.208078 225.39217 97.540838 235.57617 98.773438 C 236.83937 99.152968 236.92855 101.45774 235.82031 102.14844 C 233.48391 104.12554 231.13908 106.49854 230.23828 109.83594 C 229.81419 111.69484 229.47094 113.58175 229.0332 115.43945 C 228.0125 120.16595 227.04213 124.97239 226.98633 129.87109 C 227.30219 133.06499 229.35813 135.47759 231.36133 137.42969 C 233.27433 139.27729 235.37716 141.38374 235.84766 144.39844 C 236.08634 147.51964 234.31072 150.29987 232.26172 152.04688 C 228.89072 155.03657 224.66992 156.07507 220.63672 157.13477 C 213.40342 159.16377 206.86597 163.5347 199.79297 166.125 C 195.59647 167.6517 191.20892 168.33775 186.82422 168.43555 C 183.43152 168.57551 180.01448 168.41424 176.64648 168.98828 C 173.48898 169.64236 170.28727 171.676 168.88867 175.2207 C 167.25087 179.1105 167.96222 184.03467 170.37109 187.26367 C 171.12684 188.42337 172.1336 189.38149 172.8418 190.55469 C 173.03015 191.90129 171.55379 192.80763 170.61719 192.17773 C 166.75669 191.50741 163.18115 189.55828 159.46875 188.23828 C 155.93295 186.81598 152.07504 185.783 148.36914 186.9043 C 145.85774 187.55922 143.20498 188.61768 140.64258 187.70508 C 135.69028 185.50328 131.4864 181.31456 126.2793 179.84766 C 124.6087 179.22751 122.93753 178.60944 121.26562 177.99414 C 125.78132 172.68014 131.69083 169.26902 137.79883 167.29102 C 139.85043 166.6957 142.19692 166.36804 143.66992 164.4043 C 145.34012 162.087 144.96321 158.40666 143.28711 156.22656 C 140.52001 152.14416 137.45098 148.09169 133.42188 145.68359 C 131.22868 144.45329 128.30421 144.30624 126.41211 146.33203 C 124.53321 148.59033 125.36294 152.30786 123.52734 154.60156 C 121.70354 156.98136 118.83591 157.63833 116.22461 157.64062 C 112.12861 157.64562 108.12566 156.31672 104.31836 154.63672 C 103.71083 152.62852 105.21266 150.64206 104.58594 148.63086 C 104.06867 145.32566 101.53628 142.89066 98.833984 142.19336 C 96.666284 141.31713 94.151753 140.91838 92.564453 138.77148 C 91.389553 136.53938 92.203686 133.6069 93.666016 131.8457 C 99.499816 122.8774 106.89244 115.36977 115.14844 109.63477 C 119.36424 106.60317 123.80135 103.85185 128.62305 102.43555 C 132.71105 101.13655 136.90132 100.32242 140.97852 98.982422 C 143.19632 97.943722 144.67896 94.683725 143.63086 92.015625 C 143.01005 90.364625 141.86832 89.117153 140.79102 87.876953 C 140.66787 87.060703 141.59586 87.03695 142.06445 86.96875 C 146.83335 85.89925 151.74588 86.784827 156.33398 88.466797 C 158.37608 89.117477 160.35672 90.233375 162.51562 90.171875 C 165.34253 90.227375 168.29081 89.45868 171.00391 90.75 C 173.94421 92.0153 176.65467 94.220281 179.85547 94.488281 C 183.32257 94.864291 186.57718 92.816884 189.23828 90.396484 C 192.26618 87.629984 194.84953 83.968684 198.54883 82.396484 C 198.72956 82.356434 198.94526 82.179309 199.13477 82.185547 z "
         style="color:#000000;text-indent:0;text-transform:none;fill:#121611;stroke:#000000;stroke-opacity:1;fill-opacity:1" />
      <path
         sodipodi:nodetypes="ccccc"
         id="path3799"
         style="fill:none;fill-opacity:1;stroke:#000000;stroke-width:2;stroke-dasharray:4, 4;stroke-opacity:1;marker-end:url(#Arrow2Send);marker-start:url(#DotS)"
         d="m 305.45269,561.55434 c -2.565,-14.338 13.25904,-12.99984 20.7938,-17.71684 7.5348,-4.7166 15.07,-19.81 21.803,-18.489 6.7332,1.3206 5.4507,16.791 10.901,21.696 5.4507,4.9053 24.047,3.5846 24.047,3.5846"
         inkscape:connector-curvature="0" />
      <text
         id="text3496"
         y="565.73553"
         x="382.91663"
         style="font-style:normal;font-weight:normal;font-size:40px;line-height:1.25;font-family:sans-serif;letter-spacing:0px;word-spacing:0px;fill:#000000;fill-opacity:1;stroke:none"
         xml:space="preserve"><tspan
           y="565.73553"
           x="382.91663"
           id="tspan3494"
           sodipodi:role="line">?</tspan></text>
    </g>
  </g>
  <metadata
     id="metadata2893">
    <rdf:RDF>
      <cc:Work>
        <dc:format>image/svg+xml</dc:format>
        <dc:type
           rdf:resource="http://purl.org/dc/dcmitype/StillImage" />
        <cc:license
           rdf:resource="http://creativecommons.org/publicdomain/zero/1.0/" />
        <dc:publisher>
          <cc:Agent
             rdf:about="http://openclipart.org/">
            <dc:title>Openclipart</dc:title>
          </cc:Agent>
        </dc:publisher>
        <dc:title>treasure map</dc:title>
        <dc:date>2011-02-18T17:44:13</dc:date>
        <dc:description />
        <dc:source>https://openclipart.org/detail/120607/treasure-map-by-tzunghaor</dc:source>
        <dc:creator>
          <cc:Agent>
            <dc:title>tzunghaor</dc:title>
          </cc:Agent>
        </dc:creator>
        <dc:subject>
          <rdf:Bag>
            <rdf:li>map</rdf:li>
            <rdf:li>pirate</rdf:li>
            <rdf:li>sea</rdf:li>
            <rdf:li>treasure</rdf:li>
          </rdf:Bag>
        </dc:subject>
      </cc:Work>
      <cc:License
         rdf:about="http://creativecommons.org/licenses/publicdomain/">
        <cc:permits
           rdf:resource="http://creativecommons.org/ns#Reproduction" />
        <cc:permits
           rdf:resource="http://creativecommons.org/ns#Distribution" />
        <cc:permits
           rdf:resource="http://creativecommons.org/ns#DerivativeWorks" />
      </cc:License>
    </rdf:RDF>
  </metadata>
</svg>
