<?xml version="1.0" encoding="UTF-8" standalone="no"?>
<!-- Created with Inkscape (http://www.inkscape.org/) -->

<svg
   xmlns:dc="http://purl.org/dc/elements/1.1/"
   xmlns:cc="http://creativecommons.org/ns#"
   xmlns:rdf="http://www.w3.org/1999/02/22-rdf-syntax-ns#"
   xmlns:svg="http://www.w3.org/2000/svg"
   xmlns="http://www.w3.org/2000/svg"
   xmlns:sodipodi="http://sodipodi.sourceforge.net/DTD/sodipodi-0.dtd"
   xmlns:inkscape="http://www.inkscape.org/namespaces/inkscape"
   width="210mm"
   height="297mm"
   viewBox="0 0 210 297"
   version="1.1"
   id="svg8"
   inkscape:version="0.92.2 (5c3e80d, 2017-08-06)"
   sodipodi:docname="Segmente.svg">
  <defs
     id="defs2" />
  <sodipodi:namedview
     id="base"
     pagecolor="#ffffff"
     bordercolor="#666666"
     borderopacity="1.0"
     inkscape:pageopacity="0.0"
     inkscape:pageshadow="2"
     inkscape:zoom="0.98994949"
     inkscape:cx="478.5526"
     inkscape:cy="541.04784"
     inkscape:document-units="mm"
     inkscape:current-layer="layer1"
     showgrid="false"
     inkscape:window-width="1618"
     inkscape:window-height="1028"
     inkscape:window-x="1734"
     inkscape:window-y="-8"
     inkscape:window-maximized="1" />
  <metadata
     id="metadata5">
    <rdf:RDF>
      <cc:Work
         rdf:about="">
        <dc:format>image/svg+xml</dc:format>
        <dc:type
           rdf:resource="http://purl.org/dc/dcmitype/StillImage" />
        <dc:title></dc:title>
      </cc:Work>
    </rdf:RDF>
  </metadata>
  <g
     inkscape:label="Ebene 1"
     inkscape:groupmode="layer"
     id="layer1">
    <path
       style="fill:#d1b3b3;fill-opacity:1;stroke:none;stroke-width:0.26458332px;stroke-linecap:butt;stroke-linejoin:miter;stroke-opacity:1"
       d="m 123.34489,106.83773 4.54358,-3.4745 c 8.83493,21.82225 9.45847,50.71964 3.34087,88.86711 l -5.34539,0.26727 c 3.80755,-38.45522 2.63337,-65.86403 -2.53906,-85.65988 z"
       id="path900"
       inkscape:connector-curvature="0"
       sodipodi:nodetypes="ccccc"
       inkscape:export-xdpi="79.961159"
       inkscape:export-ydpi="79.961159" />
    <path
       style="fill:#ece0e0;fill-opacity:1;stroke:none;stroke-width:0.26458332px;stroke-linecap:butt;stroke-linejoin:miter;stroke-opacity:1"
       d="m 127.88847,103.36323 4.54358,-3.4745 c 8.83493,21.82225 9.85937,54.59505 3.74177,92.74252 l -4.94448,-0.40091 c 3.80755,-38.45522 1.83156,-69.07126 -3.34087,-88.86711 z"
       id="path900-9"
       inkscape:connector-curvature="0"
       sodipodi:nodetypes="ccccc"
       inkscape:export-xdpi="79.961159"
       inkscape:export-ydpi="79.961159" />
    <rect
       style="fill:none;fill-opacity:1;stroke:#000000;stroke-width:1;stroke-linecap:round;stroke-miterlimit:4;stroke-dasharray:none;stroke-dashoffset:0;stroke-opacity:1;paint-order:stroke markers fill"
       id="rect826"
       width="22.985178"
       height="11.759859"
       x="48.910324"
       y="92.78997"
       rx="1.0000006"
       ry="1.0000006"
       inkscape:export-xdpi="79.961159"
       inkscape:export-ydpi="79.961159" />
    <rect
       style="fill:none;fill-opacity:1;stroke:#000000;stroke-width:1;stroke-linecap:round;stroke-miterlimit:4;stroke-dasharray:none;stroke-dashoffset:0;stroke-opacity:1;paint-order:stroke markers fill"
       id="rect826-4"
       width="22.985178"
       height="11.759859"
       x="48.910324"
       y="76.197762"
       rx="1.0000006"
       ry="1.0000006"
       inkscape:export-xdpi="79.961159"
       inkscape:export-ydpi="79.961159" />
    <rect
       style="fill:none;fill-opacity:1;stroke:#000000;stroke-width:1;stroke-linecap:round;stroke-miterlimit:4;stroke-dasharray:none;stroke-dashoffset:0;stroke-opacity:1;paint-order:stroke markers fill"
       id="rect826-8"
       width="22.985178"
       height="11.759859"
       x="48.910324"
       y="108.84763"
       rx="1.0000006"
       ry="1.0000006"
       inkscape:export-xdpi="79.961159"
       inkscape:export-ydpi="79.961159" />
    <path
       transform="matrix(0.96141475,0.27510305,-0.37634738,0.92647863,0,0)"
       style="fill:none;fill-opacity:1;stroke:#000000;stroke-width:0.91877002;stroke-linecap:round;stroke-miterlimit:4;stroke-dasharray:none;stroke-dashoffset:0;stroke-opacity:1;paint-order:stroke markers fill"
       d="m 132.5281,76.137032 26.15831,-0.08213 c 0.54522,-0.0017 0.88123,0.597037 1.12263,1.032778 l 2.0752,3.74589 c 0,0 -0.43898,0.858474 -0.98449,0.857437 l -28.37165,-0.05398 c -0.54552,-0.001 -0.98449,-0.382417 -0.98449,-0.857437 v -3.785129 c 0,-0.47502 0.43926,-0.855725 0.98449,-0.857437 z"
       id="rect849"
       inkscape:connector-curvature="0"
       sodipodi:nodetypes="ssscsssss"
       inkscape:export-xdpi="79.961159"
       inkscape:export-ydpi="79.961159" />
    <path
       transform="matrix(0.96141475,0.27510305,-0.37634738,0.92647863,0,0)"
       style="fill:none;fill-opacity:1;stroke:#000000;stroke-width:0.91877002;stroke-linecap:round;stroke-miterlimit:4;stroke-dasharray:none;stroke-dashoffset:0;stroke-opacity:1;paint-order:stroke markers fill"
       d="m 135.85705,83.110825 26.87386,-0.07244 c 0.54524,-0.0015 0.75878,0.414631 0.98449,0.857437 l 1.92862,3.783616 c 0.22571,0.442806 -0.43924,0.856037 -0.98449,0.857437 l -28.80248,0.07395 c -0.54526,0.0014 -0.98449,-0.382417 -0.98449,-0.857437 v -3.785129 c 0,-0.47502 0.43924,-0.855967 0.98449,-0.857437 z"
       id="rect849-6"
       inkscape:connector-curvature="0"
       sodipodi:nodetypes="sssssssss"
       inkscape:export-xdpi="79.961159"
       inkscape:export-ydpi="79.961159" />
    <path
       transform="matrix(0.96141474,0.27510306,-0.37634738,0.92647863,0,0)"
       style="fill:none;fill-opacity:1;stroke:#000000;stroke-width:0.91877002;stroke-linecap:round;stroke-miterlimit:4;stroke-dasharray:none;stroke-dashoffset:0;stroke-opacity:1;paint-order:stroke markers fill"
       d="m 139.33862,90.039284 27.03191,0.01907 c 0.54545,3.85e-4 0.77724,0.407273 0.98449,0.857437 l 1.7083,3.710595 c 0.20724,0.450164 -0.4392,0.856386 -0.98449,0.857438 l -28.74021,0.05546 c -0.5453,0.0011 -0.98449,-0.382418 -0.98449,-0.857438 v -3.785129 c 0,-0.47502 0.43904,-0.857822 0.98449,-0.857437 z"
       id="rect849-1"
       inkscape:connector-curvature="0"
       sodipodi:nodetypes="sssssssss"
       inkscape:export-xdpi="79.961159"
       inkscape:export-ydpi="79.961159" />
    <path
       transform="matrix(0.96141474,0.27510306,-0.37634738,0.92647863,0,0)"
       style="fill:none;fill-opacity:1;stroke:#000000;stroke-width:0.91877002;stroke-linecap:round;stroke-miterlimit:4;stroke-dasharray:none;stroke-dashoffset:0;stroke-opacity:1;paint-order:stroke markers fill"
       d="m 142.66757,97.013054 27.1603,0.702144 c 0.54674,0.01413 0.78053,0.406067 0.98449,0.857438 l 1.39312,3.082984 c 0.20396,0.45137 -0.43908,0.85744 -0.98449,0.85744 h -28.55342 c -0.54541,0 -0.9845,-0.38242 -0.9845,-0.85744 v -3.785128 c 0,-0.475021 0.43776,-0.871572 0.9845,-0.857438 z"
       id="rect849-6-5"
       inkscape:connector-curvature="0"
       sodipodi:nodetypes="sssssssss"
       inkscape:export-xdpi="79.961159"
       inkscape:export-ydpi="79.961159" />
    <path
       transform="matrix(0.96141474,0.27510306,-0.37634738,0.92647863,0,0)"
       style="fill:none;fill-opacity:1;stroke:#000000;stroke-width:0.91877002;stroke-linecap:round;stroke-miterlimit:4;stroke-dasharray:none;stroke-dashoffset:0;stroke-opacity:1;paint-order:stroke markers fill"
       d="m 144.51727,104.42609 28.067,1.9e-4 c 0.54541,10e-6 0.80055,0.39936 0.98449,0.85743 l 1.43563,3.57521 c 0.18394,0.45807 -0.43951,0.85356 -0.98449,0.85744 l -29.50263,0.20973 c -0.54498,0.004 -0.98449,-0.38242 -0.98449,-0.85744 v -3.78513 c 0,-0.47502 0.43908,-0.85743 0.98449,-0.85743 z"
       id="rect849-3"
       inkscape:connector-curvature="0"
       sodipodi:nodetypes="sssssssss"
       inkscape:export-xdpi="79.961159"
       inkscape:export-ydpi="79.961159" />
    <path
       transform="matrix(0.96141474,0.27510306,-0.37634738,0.92647863,0,0)"
       style="fill:none;fill-opacity:1;stroke:#000000;stroke-width:0.91877002;stroke-linecap:round;stroke-miterlimit:4;stroke-dasharray:none;stroke-dashoffset:0;stroke-opacity:1;paint-order:stroke markers fill"
       d="m 147.84622,111.39987 27.36694,-0.21885 c 0.54493,-0.004 0.80874,0.39693 0.98449,0.85744 l 1.51808,3.97764 c 0.17575,0.4605 -0.43914,0.85694 -0.98449,0.85744 l -28.88502,0.0263 c -0.54536,5e-4 -0.9845,-0.38242 -0.9845,-0.85744 l 0,-3.78513 c 0,-0.47502 0.43957,-0.85308 0.9845,-0.85744 z"
       id="rect849-6-4"
       inkscape:connector-curvature="0"
       sodipodi:nodetypes="sssssssss"
       inkscape:export-xdpi="79.961159"
       inkscape:export-ydpi="79.961159" />
    <ellipse
       style="fill:#d1196b;fill-opacity:1;stroke:none;stroke-width:1;stroke-linecap:round;stroke-miterlimit:4;stroke-dasharray:none;stroke-dashoffset:0;stroke-opacity:1;paint-order:stroke markers fill"
       id="path917"
       cx="83.722183"
       cy="169.91333"
       rx="21.314743"
       ry="24.722431"
       inkscape:export-xdpi="79.961159"
       inkscape:export-ydpi="79.961159" />
    <path
       style="fill:none;stroke:#4e70e2;stroke-width:2;stroke-linecap:round;stroke-linejoin:miter;stroke-miterlimit:4;stroke-dasharray:none;stroke-opacity:1"
       d="m 71.8955,91.202469 c 6.156547,-1.283921 0.07316,30.109581 9.621704,32.740501 0,0 8.091761,0.676 12.468929,3.43559 l -7.390808,19.01506"
       id="path919"
       inkscape:connector-curvature="0"
       sodipodi:nodetypes="cscc"
       inkscape:export-xdpi="79.961159"
       inkscape:export-ydpi="79.961159" />
    <path
       style="fill:none;stroke:#4e70e2;stroke-width:2;stroke-linecap:butt;stroke-linejoin:miter;stroke-miterlimit:4;stroke-dasharray:none;stroke-opacity:1"
       d="m 129.05027,137.25477 c -12.01129,-3.87391 -24.70268,-8.972 -35.064137,-9.87621"
       id="path921"
       inkscape:connector-curvature="0"
       sodipodi:nodetypes="cc"
       inkscape:export-xdpi="79.961159"
       inkscape:export-ydpi="79.961159" />
    <path
       style="fill:#3855b5;fill-opacity:1;stroke:none;stroke-width:0.26458332px;stroke-linecap:butt;stroke-linejoin:miter;stroke-opacity:1"
       d="m 127.01984,128.28611 5.01131,-0.73499 c 0.49527,6.02265 0.85208,12.27451 1.1693,18.74227 l -5.11153,0.16705 c -0.0395,-5.74128 -0.31861,-11.72211 -1.06908,-18.17433 z"
       id="path993"
       inkscape:connector-curvature="0"
       sodipodi:nodetypes="ccccc"
       inkscape:export-xdpi="79.961159"
       inkscape:export-ydpi="79.961159" />
    <path
       style="fill:#5a9cd5;fill-opacity:1;stroke:none;stroke-width:0.26458332px;stroke-linecap:butt;stroke-linejoin:miter;stroke-opacity:1"
       d="m 133.11693,159.99096 6.54811,0.53454 c -0.31633,6.29229 -0.94961,13.40061 -1.73726,19.54407 l -5.65012,-0.3911 c 0.29459,-5.8081 0.85475,-12.66735 0.83927,-19.68751 z"
       id="path993-8"
       inkscape:connector-curvature="0"
       sodipodi:nodetypes="ccccc"
       inkscape:export-xdpi="79.961159"
       inkscape:export-ydpi="79.961159" />
    <path
       style="fill:none;stroke:#4e70e2;stroke-width:2;stroke-linecap:round;stroke-linejoin:miter;stroke-miterlimit:4;stroke-dasharray:none;stroke-opacity:1"
       d="m 128.28187,137.05432 c 9.5821,1.78561 2.63279,31.41141 8.56013,34.86354"
       id="path923"
       inkscape:connector-curvature="0"
       sodipodi:nodetypes="cc"
       inkscape:export-xdpi="79.961159"
       inkscape:export-ydpi="79.961159" />
    <path
       style="fill:none;stroke:#4e70e2;stroke-width:2;stroke-linecap:round;stroke-linejoin:miter;stroke-miterlimit:4;stroke-dasharray:none;stroke-opacity:1"
       d="m 129.9264,134.73399 -3.144,1.70423"
       id="path925"
       inkscape:connector-curvature="0"
       sodipodi:nodetypes="cc"
       inkscape:export-xdpi="79.961159"
       inkscape:export-ydpi="79.961159" />
    <text
       xml:space="preserve"
       style="font-style:normal;font-weight:normal;font-size:10.58333302px;line-height:1.25;font-family:sans-serif;letter-spacing:0px;word-spacing:0px;fill:#000000;fill-opacity:1;stroke:none;stroke-width:0.26458332"
       x="142.16489"
       y="138.75212"
       id="text929"
       inkscape:export-xdpi="79.961159"
       inkscape:export-ydpi="79.961159"><tspan
         sodipodi:role="line"
         id="tspan927"
         x="142.16489"
         y="138.75212"
         style="font-size:7.05555534px;stroke-width:0.26458332">Myotom Th5</tspan></text>
    <text
       xml:space="preserve"
       style="font-style:normal;font-weight:normal;font-size:10.58333302px;line-height:1.25;font-family:sans-serif;letter-spacing:0px;word-spacing:0px;fill:#000000;fill-opacity:1;stroke:none;stroke-width:0.26458332"
       x="140.23969"
       y="172.40945"
       id="text929-0"
       inkscape:export-xdpi="79.961159"
       inkscape:export-ydpi="79.961159"><tspan
         sodipodi:role="line"
         id="tspan927-7"
         x="140.23969"
         y="172.40945"
         style="font-size:5.29166651px;stroke-width:0.26458332"><tspan
           style="font-size:7.05555534px"
           id="tspan1016">Dermatom Th5</tspan></tspan></text>
    <text
       xml:space="preserve"
       style="font-style:normal;font-weight:normal;font-size:10.58333302px;line-height:1.25;font-family:sans-serif;letter-spacing:0px;word-spacing:0px;fill:#000000;fill-opacity:1;stroke:none;stroke-width:1;stroke-miterlimit:4;stroke-dasharray:none"
       x="54.000202"
       y="101.29678"
       id="text951"
       inkscape:export-xdpi="79.961159"
       inkscape:export-ydpi="79.961159"><tspan
         sodipodi:role="line"
         id="tspan949"
         x="54.000202"
         y="101.29678"
         style="font-size:7.05555534px;stroke-width:1;stroke-miterlimit:4;stroke-dasharray:none">Th5</tspan></text>
    <text
       xml:space="preserve"
       style="font-style:normal;font-weight:normal;font-size:10.58333302px;line-height:1.25;font-family:sans-serif;letter-spacing:0px;word-spacing:0px;fill:#000000;fill-opacity:1;stroke:none;stroke-width:1;stroke-miterlimit:4;stroke-dasharray:none"
       x="53.920967"
       y="84.757973"
       id="text951-6"
       inkscape:export-xdpi="79.961159"
       inkscape:export-ydpi="79.961159"><tspan
         sodipodi:role="line"
         id="tspan949-9"
         x="53.920967"
         y="84.757973"
         style="font-size:7.05555534px;stroke-width:1;stroke-miterlimit:4;stroke-dasharray:none">Th4</tspan></text>
    <text
       xml:space="preserve"
       style="font-style:normal;font-weight:normal;font-size:10.58333302px;line-height:1.25;font-family:sans-serif;letter-spacing:0px;word-spacing:0px;fill:#000000;fill-opacity:1;stroke:none;stroke-width:1;stroke-miterlimit:4;stroke-dasharray:none"
       x="53.941635"
       y="117.35445"
       id="text951-6-8"
       inkscape:export-xdpi="79.961159"
       inkscape:export-ydpi="79.961159"><tspan
         sodipodi:role="line"
         id="tspan949-9-8"
         x="53.941635"
         y="117.35445"
         style="font-size:7.05555534px;stroke-width:1;stroke-miterlimit:4;stroke-dasharray:none">Th6</tspan></text>
    <text
       xml:space="preserve"
       style="font-style:normal;font-weight:normal;font-size:10.58333302px;line-height:1.25;font-family:sans-serif;letter-spacing:0px;word-spacing:0px;fill:#000000;fill-opacity:1;stroke:none;stroke-width:0.26458332"
       x="71.815475"
       y="173.40178"
       id="text991"
       inkscape:export-xdpi="79.961159"
       inkscape:export-ydpi="79.961159"><tspan
         sodipodi:role="line"
         id="tspan989"
         x="71.815475"
         y="173.40178"
         style="stroke-width:0.26458332">Herz</tspan></text>
  </g>
</svg>
